<?xml version="1.0" encoding="UTF-8"?>
<svg version="1.1" xmlns="http://www.w3.org/2000/svg" width="128" height="128">
<path d="M0 0 C2.12109375 2.12109375 2.12109375 2.12109375 3.34375 4.91015625 C2.99720267 9.90773351 0.06999877 12.15555154 -3.44140625 15.49609375 C-4.06337891 16.13675781 -4.68535156 16.77742188 -5.32617188 17.4375 C-8.27829996 20.33101739 -9.99107996 21.96886454 -14.13671875 22.6796875 C-16.89092333 22.11864583 -18.11205491 21.63004105 -20.19140625 19.80859375 C-28.74376979 13.29250725 -38.53233805 13.20936645 -48.87890625 14.12109375 C-59.80142886 16.48452468 -67.38127618 22.29127001 -73.40234375 31.5703125 C-78.73128834 40.77613476 -79.70198392 51.83813221 -77.1171875 62.1640625 C-73.10099542 72.65695959 -65.96980869 80.9165047 -55.9921875 86.1015625 C-47.38627945 89.59310234 -35.90437467 89.68208998 -27.25390625 86.37109375 C-18.52082166 82.20203327 -11.95070274 76.35300959 -6.87890625 68.12109375 C-6.38390625 66.63609375 -6.38390625 66.63609375 -5.87890625 65.12109375 C-6.80751465 65.1368042 -7.73612305 65.15251465 -8.69287109 65.16870117 C-12.13319454 65.21978228 -15.57311601 65.25741982 -19.01367188 65.28588867 C-20.50364534 65.30098975 -21.99357426 65.32147233 -23.48339844 65.34741211 C-25.62315855 65.38373959 -27.76233191 65.40080596 -29.90234375 65.4140625 C-31.834729 65.43762817 -31.834729 65.43762817 -33.80615234 65.46166992 C-34.82016113 65.34927979 -35.83416992 65.23688965 -36.87890625 65.12109375 C-39.72486936 60.85214908 -39.24683542 57.14138261 -39.25390625 52.12109375 C-39.27839844 51.20585938 -39.30289063 50.290625 -39.328125 49.34765625 C-39.33199219 48.46851563 -39.33585937 47.589375 -39.33984375 46.68359375 C-39.34806152 45.88050781 -39.3562793 45.07742187 -39.36474609 44.25 C-38.87890625 42.12109375 -38.87890625 42.12109375 -37.18276978 40.51229858 C-34.40575665 38.83537891 -32.75947876 38.74112139 -29.53125 38.73291016 C-28.46334229 38.72345367 -27.39543457 38.71399719 -26.29516602 38.70425415 C-25.14717529 38.71032684 -23.99918457 38.71639954 -22.81640625 38.72265625 C-21.63296631 38.71978607 -20.44952637 38.71691589 -19.23022461 38.71395874 C-16.72867352 38.71191768 -14.22710648 38.71745038 -11.72558594 38.72998047 C-7.89351766 38.74603254 -4.06250417 38.73013213 -0.23046875 38.7109375 C2.19922108 38.71291992 4.62891026 38.71676358 7.05859375 38.72265625 C8.78057983 38.71354721 8.78057983 38.71354721 10.53735352 38.70425415 C11.60526123 38.71371063 12.67316895 38.72316711 13.7734375 38.73291016 C14.71179443 38.73529694 15.65015137 38.73768372 16.61694336 38.74014282 C19.57795977 39.19059578 20.95916982 40.07947745 23.12109375 42.12109375 C23.63867188 44.16723633 23.63867188 44.16723633 23.65234375 46.515625 C23.66479126 47.81512085 23.66479126 47.81512085 23.67749023 49.14086914 C23.65887939 50.06246826 23.64026855 50.98406738 23.62109375 51.93359375 C23.60828369 52.87904053 23.59547363 53.8244873 23.58227539 54.79858398 C23.07788252 72.38947252 15.89636716 87.00096256 3.12109375 99.12109375 C-13.56705811 113.36707704 -30.68623604 116.2929818 -51.87890625 115.12109375 C-67.61383861 113.38233208 -81.92061314 103.58792211 -91.8984375 91.71875 C-104.41274745 74.89668194 -106.73320179 56.90155046 -104.484375 36.55078125 C-101.04856836 20.28057435 -90.40430554 6.20305316 -77.06640625 -3.31640625 C-52.36724725 -18.79368604 -23.50797886 -15.34238511 0 0 Z " fill="#157DE6" transform="translate(104.87890625,12.87890625)"/>
<path d="M0 0 C2.12109375 2.12109375 2.12109375 2.12109375 3.34375 4.91015625 C2.99720267 9.90773351 0.06999877 12.15555154 -3.44140625 15.49609375 C-4.06337891 16.13675781 -4.68535156 16.77742188 -5.32617188 17.4375 C-8.27829996 20.33101739 -9.99107996 21.96886454 -14.13671875 22.6796875 C-16.89092333 22.11864583 -18.11205491 21.63004105 -20.19140625 19.80859375 C-28.74376979 13.29250725 -38.53233805 13.20936645 -48.87890625 14.12109375 C-59.80142886 16.48452468 -67.38127618 22.29127001 -73.40234375 31.5703125 C-78.8270816 40.94161889 -79.69320743 52.13092902 -76.9765625 62.59765625 C-76.04326497 65.16837613 -75.05102631 67.65126934 -73.87890625 70.12109375 C-78.90836986 73.58837548 -84.02895634 76.89311315 -89.25390625 80.05859375 C-90.25164062 80.66574219 -91.249375 81.27289063 -92.27734375 81.8984375 C-94.87890625 83.12109375 -94.87890625 83.12109375 -97.87890625 82.12109375 C-99.1953125 79.93359375 -99.1953125 79.93359375 -100.44140625 77.12109375 C-100.85519531 76.21359375 -101.26898438 75.30609375 -101.6953125 74.37109375 C-107.37813987 58.76676248 -106.93161927 39.62592315 -100.28515625 24.4921875 C-92.57327156 8.34722168 -80.40069907 -3.58501682 -63.44140625 -9.81640625 C-40.98178069 -17.35405078 -19.36754228 -12.64014632 0 0 Z " fill="#FF4B25" transform="translate(104.87890625,12.87890625)"/>
<path d="M0 0 C2.48516977 2.47691339 4.9582563 4.95605926 7.375 7.5 C16.01664415 15.73013728 24.10397852 18.45009974 36.03344727 18.43481445 C41.29022633 18.27254132 45.48134011 17.16843059 50.1796875 14.875 C52 14 52 14 54 14 C56.03736586 17.42795597 58.05196199 20.86875165 60.0625 24.3125 C60.93358398 25.77719727 60.93358398 25.77719727 61.82226562 27.27148438 C62.63920898 28.67817383 62.63920898 28.67817383 63.47265625 30.11328125 C63.98062744 30.97735596 64.48859863 31.84143066 65.01196289 32.73168945 C66 35 66 35 65 38 C62.8125 39.31640625 62.8125 39.31640625 60 40.5625 C59.0925 40.97628906 58.185 41.39007813 57.25 41.81640625 C41.74294637 47.46380679 22.33911573 47.19317711 7.3359375 40.37109375 C-5.21471041 34.32087582 -14.59921087 25.87157301 -22 14 C-17.70841448 10.31904088 -13.06453565 7.56257379 -8.1875 4.75 C-7.39923828 4.29109375 -6.61097656 3.8321875 -5.79882812 3.359375 C-3.86795196 2.23595614 -1.93500474 1.11628756 0 0 Z " fill="#12B346" transform="translate(30,83)"/>
<path d="M0 0 C8.03714289 3.82921467 15.58748883 8.06805359 23 13 C22.71125 13.6084375 22.4225 14.216875 22.125 14.84375 C17.78393168 25.09349464 17.20369857 35.97882174 21 46.5 C21.64016487 48.01150038 22.29622614 49.51704794 23 51 C17.97053639 54.46728173 12.84994991 57.7720194 7.625 60.9375 C6.62726562 61.54464844 5.62953125 62.15179688 4.6015625 62.77734375 C2 64 2 64 -1 63 C-2.31640625 60.8125 -2.31640625 60.8125 -3.5625 58 C-3.97628906 57.0925 -4.39007813 56.185 -4.81640625 55.25 C-7.60839256 47.58355575 -8.36127845 40.31653536 -8.3125 32.1875 C-8.30758545 31.21917236 -8.3026709 30.25084473 -8.29760742 29.25317383 C-8.11659636 18.19107753 -5.98881176 9.37379232 0 0 Z " fill="#FED400" transform="translate(8,32)"/>
<path d="M0 0 C16.38716628 0 27.38276395 4.07070483 40.87890625 12.87890625 C43 15 43 15 44.22265625 17.7890625 C43.87610892 22.78663976 40.94890502 25.03445779 37.4375 28.375 C36.50454102 29.33599609 36.50454102 29.33599609 35.55273438 30.31640625 C32.60060629 33.20992364 30.88782629 34.84777079 26.7421875 35.55859375 C23.98798292 34.99755208 22.76685134 34.5089473 20.6875 32.6875 C14.37048762 27.77581416 7.86596167 26.98324521 0 26 C0 17.42 0 8.84 0 0 Z " fill="#DA3F20" transform="translate(64,0)"/>
<path d="M0 0 C2.03736586 3.42795597 4.05196199 6.86875165 6.0625 10.3125 C6.64322266 11.28896484 7.22394531 12.26542969 7.82226562 13.27148438 C8.36689453 14.20927734 8.91152344 15.14707031 9.47265625 16.11328125 C9.98062744 16.97735596 10.48859863 17.84143066 11.01196289 18.73168945 C12 21 12 21 11 24 C0.9242914 30.0634175 -8.30131725 31 -20 31 C-20 22.42 -20 13.84 -20 5 C-16.04 4.34 -12.08 3.68 -8 3 C-1.30769231 0 -1.30769231 0 0 0 Z " fill="#0F993E" transform="translate(84,97)"/>
</svg>
