<?xml version="1.0" encoding="UTF-8"?>
<svg version="1.1" xmlns="http://www.w3.org/2000/svg" width="128" height="128">
<path d="M0 0 C7.68014784 2.4207826 14.28896872 0.64932223 21.66015625 -1.98046875 C30.24724271 -4.72167272 38.06681735 -3.63749102 46.125 0.1875 C51.35804598 3.01251088 55.07141538 5.40985943 56.875 11.3125 C56.34390625 11.725 55.8128125 12.1375 55.265625 12.5625 C49.272753 17.46178222 46.30157209 22.03278373 43.875 29.3125 C43.04125671 38.19507273 44.38746652 45.64970648 50.125 52.625 C53.36895633 56.09029237 56.6272271 58.23195817 60.875 60.3125 C59.29584861 72.02453945 48.94164469 85.04433956 40.29296875 92.5546875 C35.29775855 96.1861004 29.81982917 95.90086998 23.875 95.3125 C21.0234375 94.41796875 21.0234375 94.41796875 18.25 93.3125 C10.93204015 90.41019298 5.87303791 90.38410141 -1.4375 93.3125 C-8.09356209 95.90045141 -14.79492041 97.06092331 -21.6015625 94.3125 C-35.79866617 85.72593558 -44.20797036 66.86996802 -48.125 51.3125 C-50.44557932 37.93412659 -50.71180244 22.9304356 -42.76953125 11.29296875 C-36.59237041 3.85396508 -30.28439766 -1.11745746 -20.9375 -3.5 C-13.70845507 -3.8555268 -6.81760989 -2.32979739 0 0 Z " fill="#000000" transform="translate(58.125,32.6875)"/>
<path d="M0 0 C0.67137351 7.55295199 -1.46940121 14.32167388 -5.765625 20.56640625 C-10.15219843 25.8078434 -15.00540929 30.4408333 -22.05859375 31.23046875 C-24 31.25 -24 31.25 -27 31 C-27.74783648 23.18926345 -26.54746387 17.46773864 -22 11 C-15.85765574 4.2376808 -9.49855921 -0.69501653 0 0 Z " fill="#000000" transform="translate(89,0)"/>
</svg>
