<?xml version="1.0" encoding="UTF-8"?>
<svg version="1.1" xmlns="http://www.w3.org/2000/svg" width="128" height="128">
<path d="M0 0 C2.73618224 3.00322706 2.974056 3.38942587 2.9765625 7.16796875 C2.7909375 8.99328125 2.7909375 8.99328125 2.6015625 10.85546875 C3.74371216 10.83190308 3.74371216 10.83190308 4.90893555 10.80786133 C8.3689019 10.74538422 11.8287494 10.70643703 15.2890625 10.66796875 C16.48724609 10.64283203 17.68542969 10.61769531 18.91992188 10.59179688 C20.07685547 10.58212891 21.23378906 10.57246094 22.42578125 10.5625 C23.48885498 10.54678955 24.55192871 10.5310791 25.6472168 10.51489258 C29.0530858 10.90752023 30.86725821 11.81703909 33.6015625 13.85546875 C36.08261201 17.57704302 35.86955004 20.41952511 35.82861328 24.72338867 C35.82890533 25.52361954 35.82919739 26.3238504 35.82949829 27.14833069 C35.82810455 29.79430979 35.81254134 32.44000757 35.796875 35.0859375 C35.79314503 36.9201085 35.79029798 38.75428149 35.78829956 40.5884552 C35.78066188 45.41687518 35.76101222 50.24517491 35.7388916 55.07354736 C35.71843609 60.0001869 35.70929847 64.92684586 35.69921875 69.85351562 C35.67776647 79.52088618 35.64362887 89.18816747 35.6015625 98.85546875 C37.5815625 99.35046875 37.5815625 99.35046875 39.6015625 99.85546875 C39.6829847 102.08402449 39.74094329 104.3134453 39.7890625 106.54296875 C39.82386719 107.78433594 39.85867187 109.02570313 39.89453125 110.3046875 C39.57694846 114.1537909 39.0097578 115.87264985 36.6015625 118.85546875 C31.82922394 122.82978928 26.73065844 122.27872064 20.83203125 122.24365234 C19.20438339 122.25153778 19.20438339 122.25153778 17.54385376 122.25958252 C13.95877671 122.27278099 10.37414404 122.26404462 6.7890625 122.25390625 C4.29711827 122.25592702 1.80517462 122.25883848 -0.68676758 122.26260376 C-6.57746465 122.26759334 -12.46800059 122.25709742 -18.35867405 122.24115145 C-23.05395989 122.22988764 -27.7490571 122.23387198 -32.44433594 122.24658203 C-38.92106599 122.26396349 -45.39761371 122.26670229 -51.87435913 122.25691605 C-54.34312991 122.25491407 -56.81190845 122.25737321 -59.28067017 122.26435471 C-62.73029179 122.271969 -66.17932823 122.26036445 -69.62890625 122.24365234 C-70.65035736 122.24972504 -71.67180847 122.25579773 -72.72421265 122.26205444 C-81.40139868 122.18413314 -81.40139868 122.18413314 -85.3984375 118.85546875 C-88.64825759 114.83020351 -88.72830729 111.62082455 -88.5859375 106.54296875 C-88.54533203 104.66158203 -88.54533203 104.66158203 -88.50390625 102.7421875 C-88.46910156 101.78957031 -88.43429688 100.83695312 -88.3984375 99.85546875 C-86.4184375 99.36046875 -86.4184375 99.36046875 -84.3984375 98.85546875 C-84.40731995 97.83926956 -84.41620239 96.82307037 -84.425354 95.77607727 C-84.50645485 86.19748761 -84.5664101 76.61896765 -84.60568619 67.0401125 C-84.62655735 62.11554462 -84.65486646 57.19125401 -84.70019531 52.2668457 C-84.74366977 47.51412927 -84.76757816 42.76167946 -84.77794647 38.00877953 C-84.78533496 36.19587189 -84.79976304 34.38297878 -84.82135773 32.57018471 C-84.85041337 30.02994934 -84.85439266 27.49081437 -84.85253906 24.95043945 C-84.86692017 24.20165527 -84.88130127 23.45287109 -84.89611816 22.68139648 C-84.86778061 19.09023402 -84.48317727 16.99505528 -82.60443115 13.90031433 C-79.66933277 11.1796252 -77.31776175 11.08158361 -73.3984375 10.85546875 C-73.5221875 8.99921875 -73.5221875 8.99921875 -73.6484375 7.10546875 C-73.84789497 4.1136067 -73.61802772 3.13906276 -71.75 0.7265625 C-69.06745993 -1.40788383 -66.7895089 -2.313981 -63.5234375 -3.33203125 C-62.51539062 -3.65558594 -61.50734375 -3.97914062 -60.46875 -4.3125 C-44.17796094 -8.72717948 -14.38410307 -9.99850146 0 0 Z " fill="#8FB9E0" transform="translate(88.3984375,6.14453125)"/>
<path d="M0 0 C2.1061967 1.87136788 2.55507739 2.83079132 2.97021484 5.65356445 C2.96045318 8.76779311 2.75665944 11.80554114 2.46875 14.90625 C2.39398438 15.98068359 2.31921875 17.05511719 2.2421875 18.16210938 C2.05393601 20.80939602 1.83696941 23.45104092 1.59375 26.09375 C-0.19869141 26.02414063 -0.19869141 26.02414063 -2.02734375 25.953125 C-14.29731301 25.46451124 -14.29731301 25.46451124 -25.40625 30.09375 C-26.09847656 30.50625 -26.79070313 30.91875 -27.50390625 31.34375 C-33.56815214 35.33368374 -37.64397827 41.06482822 -40.046875 47.921875 C-41.80816601 58.56619891 -41.15435389 69.01948571 -35.05078125 78.11328125 C-31.74286086 82.32578041 -28.17169687 84.71102656 -23.40625 87.09375 C-23.40625 87.42375 -23.40625 87.75375 -23.40625 88.09375 C-27.45889618 88.16901343 -31.5112608 88.22286541 -35.56445312 88.25854492 C-36.93757226 88.27344923 -38.31064539 88.29377997 -39.68359375 88.32006836 C-50.82542463 88.527756 -62.4019676 88.4393488 -71.40625 81.09375 C-73.83180624 78.66819376 -73.65514273 77.37768745 -73.69952393 74.06628418 C-73.69861755 73.36910278 -73.69771118 72.67192139 -73.69677734 71.95361328 C-73.70349457 71.21847504 -73.71021179 70.48333679 -73.71713257 69.72592163 C-73.73617589 67.28856704 -73.74004004 64.85148692 -73.7421875 62.4140625 C-73.74861152 60.72256353 -73.75533958 59.03106569 -73.76235962 57.33956909 C-73.77434856 53.79031803 -73.77803884 50.24116442 -73.77685547 46.69189453 C-73.7766523 42.1430586 -73.80394505 37.59484758 -73.83839989 33.04615974 C-73.86063565 29.55114878 -73.86469402 26.05628891 -73.86363602 22.56121445 C-73.86599736 20.88426435 -73.87485084 19.20731043 -73.89030075 17.53042984 C-73.90989251 15.18406691 -73.90415048 12.83906044 -73.89208984 10.49267578 C-73.90332886 9.79954285 -73.91456787 9.10640991 -73.92614746 8.39227295 C-73.88266842 5.06443022 -73.61957643 3.36807698 -71.55117798 0.70822144 C-68.96706446 -1.23682171 -66.61623453 -2.13214541 -63.53125 -3.09375 C-62.52320313 -3.41730469 -61.51515625 -3.74085937 -60.4765625 -4.07421875 C-43.08557971 -8.78704233 -15.91725309 -8.90782054 0 0 Z " fill="#557681" transform="translate(88.40625,5.90625)"/>
<path d="M0 0 C0.33 0 0.66 0 1 0 C0.95617187 1.08539062 0.91234375 2.17078125 0.8671875 3.2890625 C0.79537538 9.71832121 0.79537538 9.71832121 2 16 C4.30210694 18.34164695 6.37140158 19.32430585 9.35546875 20.65625 C15.95658303 24.0104351 19.60671359 31.27367901 22 38 C22.44707142 40.9499809 22.52463564 43.83190309 22.5 46.8125 C22.49500488 47.60567627 22.49000977 48.39885254 22.48486328 49.21606445 C22.28986513 55.78615729 20.87821726 60.61186348 17 66 C16.58878906 66.64066406 16.17757812 67.28132813 15.75390625 67.94140625 C11.14374691 74.27524535 2.68790742 78.7064324 -5 80 C-7.18592844 80.09278598 -9.37460887 80.12997814 -11.5625 80.125 C-12.69816406 80.12757812 -13.83382812 80.13015625 -15.00390625 80.1328125 C-18 80 -18 80 -21 79 C-23.13661258 78.84929203 -25.27712124 78.7514034 -27.41796875 78.68359375 C-28.67158203 78.64169922 -29.92519531 78.59980469 -31.21679688 78.55664062 C-32.52712891 78.51732422 -33.83746094 78.47800781 -35.1875 78.4375 C-36.52279978 78.39429008 -37.85808652 78.350675 -39.19335938 78.30664062 C-42.46213297 78.20043498 -45.73098333 78.09839003 -49 78 C-49 77.67 -49 77.34 -49 77 C-41.74 76.67 -34.48 76.34 -27 76 C-29.64 74.02 -32.28 72.04 -35 70 C-37.0234375 67.65625 -37.0234375 67.65625 -38.375 65.5 C-39.06722656 64.43265625 -39.06722656 64.43265625 -39.7734375 63.34375 C-44.11187567 55.05374075 -44.32719648 45.07172522 -42.34765625 36.015625 C-39.08229376 26.99033126 -32.61384247 20.15396515 -24 16 C-19.30901963 14.09843027 -15.36005978 13.75725308 -10.3125 13.8125 C-9.00925781 13.81894531 -7.70601562 13.82539063 -6.36328125 13.83203125 C-3 14 -3 14 0 15 C0 10.05 0 5.1 0 0 Z " fill="#48B29E" transform="translate(90,17)"/>
<path d="M0 0 C1.04321411 -0.00281982 2.08642822 -0.00563965 3.16125488 -0.00854492 C4.31041382 -0.00652069 5.45957275 -0.00449646 6.64355469 -0.00241089 C7.8500769 -0.00416321 9.05659912 -0.00591553 10.29968262 -0.00772095 C13.61366425 -0.01137534 16.9275837 -0.01050844 20.24156189 -0.00734186 C23.70531296 -0.00481486 27.16906133 -0.00715675 30.6328125 -0.00872803 C36.45020018 -0.01054872 42.26757518 -0.00814603 48.08496094 -0.00338745 C54.81621441 0.00205498 61.5474376 0.00029225 68.27869034 -0.00521386 C74.05196518 -0.00974782 79.82523088 -0.01039414 85.59850693 -0.00777519 C89.04927823 -0.00621398 92.50003527 -0.00601439 95.95080566 -0.00931168 C99.79631737 -0.0127293 103.64179499 -0.007996 107.48730469 -0.00241089 C108.63646362 -0.00443512 109.78562256 -0.00645935 110.96960449 -0.00854492 C112.0128186 -0.0057251 113.05603271 -0.00290527 114.13085938 0 C115.4958255 0.00056554 115.4958255 0.00056554 116.8883667 0.0011425 C119.06542969 0.12698364 119.06542969 0.12698364 121.06542969 1.12698364 C121.14685189 3.35553939 121.20481048 5.58496019 121.25292969 7.81448364 C121.28773438 9.05585083 121.32253906 10.29721802 121.35839844 11.57620239 C121.04081565 15.42530579 120.47362498 17.14416474 118.06542969 20.12698364 C113.29309112 24.10130418 108.19452563 23.55023553 102.29589844 23.51516724 C101.21079987 23.52042419 100.12570129 23.52568115 99.00772095 23.53109741 C95.42264389 23.54429588 91.83801122 23.53555951 88.25292969 23.52542114 C85.76098546 23.52744191 83.26904181 23.53035337 80.77709961 23.53411865 C74.88640253 23.53910823 68.9958666 23.52861231 63.10519314 23.51266634 C58.4099073 23.50140253 53.71481009 23.50538687 49.01953125 23.51809692 C42.5428012 23.53547838 36.06625348 23.53821718 29.58950806 23.52843094 C27.12073728 23.52642896 24.65195874 23.52888811 22.18319702 23.5358696 C18.7335754 23.54348389 15.28453896 23.53187935 11.83496094 23.51516724 C10.30278427 23.52427628 10.30278427 23.52427628 8.73965454 23.53356934 C0.06246851 23.45564804 0.06246851 23.45564804 -3.93457031 20.12698364 C-7.18439041 16.10171841 -7.2644401 12.89233944 -7.12207031 7.81448364 C-7.08146484 5.93309692 -7.08146484 5.93309692 -7.04003906 4.01370239 C-7.00523437 3.06108521 -6.97042969 2.10846802 -6.93457031 1.12698364 C-4.44559478 -0.11750412 -2.78524223 0.00115399 0 0 Z " fill="#547680" transform="translate(6.9345703125,104.87301635742188)"/>
<path d="M0 0 C0.81173172 0.41551872 0.81173172 0.41551872 1.63986206 0.83943176 C2.35409332 1.20155258 3.06832458 1.5636734 3.80419922 1.93676758 C4.5103537 2.29628006 5.21650818 2.65579254 5.94406128 3.02619934 C14.85228505 7.24560242 25.32083178 7.5791666 35 8 C34.7834375 8.53625 34.566875 9.0725 34.34375 9.625 C31.02183249 18.97558261 30.17611702 30.11054037 33.625 39.5625 C37.15842094 46.93929109 41.73993572 51.36996786 49 55 C49 55.33 49 55.66 49 56 C44.94735382 56.07526343 40.8949892 56.12911541 36.84179688 56.16479492 C35.46867774 56.17969923 34.09560461 56.20002997 32.72265625 56.22631836 C21.55556642 56.43447683 10.03928193 56.32914751 1 49 C0 48 0 48 -0.12025452 46.05747986 C-0.11803391 45.20698563 -0.11581329 44.35649139 -0.11352539 43.48022461 C-0.11344986 42.51930405 -0.11337433 41.55838348 -0.11329651 40.56834412 C-0.10813522 39.523564 -0.10297394 38.47878387 -0.09765625 37.40234375 C-0.0962413 36.33834854 -0.09482635 35.27435333 -0.09336853 34.17811584 C-0.08775064 30.76454917 -0.07519511 27.351047 -0.0625 23.9375 C-0.05748731 21.62955824 -0.052924 19.32161545 -0.04882812 17.01367188 C-0.0377754 11.34242574 -0.02101987 5.67121747 0 0 Z " fill="#537580" transform="translate(16,38)"/>
<path d="M0 0 C0.70139099 0.00270905 1.40278198 0.00541809 2.12542725 0.00820923 C27.94019243 0.15953234 27.94019243 0.15953234 38.1875 9.4375 C38.125 11.6875 38.125 11.6875 37.1875 14.4375 C20.7735652 25.21432588 -2.10825785 24.12954322 -20.8125 21.4375 C-27.38853765 19.90784016 -33.95457917 18.29582422 -37.8125 12.4375 C-38.125 9.875 -38.125 9.875 -36.8125 7.4375 C-25.93858609 0.32763321 -12.61235492 -0.11415665 0 0 Z " fill="#94A4A4" transform="translate(52.8125,-0.4375)"/>
<path d="M0 0 C0.50644043 0.26917236 1.01288086 0.53834473 1.53466797 0.81567383 C12.1545957 6.3173691 23.15612241 7.4850488 35 8 C34.52309796 9.62566606 34.04340334 11.25051311 33.5625 12.875 C33.29566406 13.77992187 33.02882812 14.68484375 32.75390625 15.6171875 C32 18 32 18 31 20 C30.77141886 22.0374763 30.58975722 24.08040303 30.4375 26.125 C30.35371094 27.22070312 30.26992188 28.31640625 30.18359375 29.4453125 C30.09271484 30.70988281 30.09271484 30.70988281 30 32 C19.97926798 32.52332643 10.77010343 31.17211228 2 26 C0 24 0 24 -0.22705078 21.56982422 C-0.21657715 20.5748291 -0.20610352 19.57983398 -0.1953125 18.5546875 C-0.18886719 17.47832031 -0.18242187 16.40195312 -0.17578125 15.29296875 C-0.15902344 14.16503906 -0.14226563 13.03710938 -0.125 11.875 C-0.11597656 10.73933594 -0.10695313 9.60367188 -0.09765625 8.43359375 C-0.07403098 5.62218701 -0.04109013 2.81119702 0 0 Z " fill="#3F5C6C" transform="translate(16,38)"/>
<path d="M0 0 C0.15330105 6.90074897 0.25769325 13.8010521 0.32958984 20.703125 C0.35959036 23.04639088 0.40040491 25.38954611 0.45263672 27.73242188 C0.96062058 51.11960022 0.96062058 51.11960022 -6 62 C-6.91441769 64.59202697 -7.34672129 66.95593322 -7.8125 69.6875 C-8.03164062 70.94046875 -8.25078125 72.1934375 -8.4765625 73.484375 C-9.0974825 77.65473322 -9.63155824 81.79976398 -10 86 C-10.33 86 -10.66 86 -11 86 C-11.09270353 75.65572619 -11.16376684 65.3115513 -11.20724869 54.9669466 C-11.22811847 50.16344334 -11.25642499 45.3602244 -11.30175781 40.55688477 C-11.3452373 35.92087703 -11.36914169 31.28514267 -11.37950897 26.64894676 C-11.38689657 24.88069543 -11.40132293 23.11245897 -11.42292023 21.34432411 C-11.45198273 18.86634684 -11.4559549 16.38949739 -11.45410156 13.91137695 C-11.46848267 13.18129425 -11.48286377 12.45121155 -11.49768066 11.69900513 C-11.46874804 8.12097789 -11.07880439 6.1255113 -9.15911865 3.06803894 C-6.04803261 0.08819016 -4.31550272 0 0 0 Z " fill="#AED1EF" transform="translate(15,17)"/>
<path d="M0 0 C1.914962 0.96429581 3.77960736 2.02724031 5.6328125 3.10546875 C5.6328125 4.42546875 5.6328125 5.74546875 5.6328125 7.10546875 C0.8828125 6.23046875 0.8828125 6.23046875 -1.3671875 5.10546875 C-6.65023964 4.57889002 -11.03581607 4.46355753 -15.8671875 6.79296875 C-19.81461864 10.44434255 -21.52116206 13.09348531 -21.8046875 18.48046875 C-21.62471665 23.38876466 -20.28262917 26.1656827 -17.3671875 30.10546875 C-13.6142568 33.52725851 -9.75549396 33.62392159 -4.87109375 33.44921875 C-0.73260977 32.88106494 1.33403047 31.73102995 4.6328125 29.10546875 C6.67547181 25.89557554 7.6328125 22.94789972 7.6328125 19.10546875 C6.9728125 19.76546875 6.3128125 20.42546875 5.6328125 21.10546875 C3.5078125 20.73046875 3.5078125 20.73046875 1.6328125 20.10546875 C3.28373028 15.81308252 6.37035816 13.22607725 9.6328125 10.10546875 C13.92519873 11.75638653 16.512204 14.84301441 19.6328125 18.10546875 C19.1378125 19.59046875 19.1378125 19.59046875 18.6328125 21.10546875 C14.7578125 20.23046875 14.7578125 20.23046875 13.6328125 19.10546875 C13.47425781 19.75773437 13.31570312 20.41 13.15234375 21.08203125 C11.37600498 27.7359411 9.66997525 32.27857142 3.84765625 36.35546875 C-1.1166965 39.19788146 -5.71587358 40.07370085 -11.3671875 39.10546875 C-17.28529067 37.21082421 -20.8608774 34.15868037 -24.3671875 29.10546875 C-26.86105546 23.78286717 -27.14697332 18.89700299 -26.3671875 13.10546875 C-24.03485516 6.93103537 -19.87701218 3.47258384 -14.3671875 0.10546875 C-9.57729578 -1.49116182 -4.78450363 -1.8080055 0 0 Z " fill="#F4FAF9" transform="translate(86.3671875,44.89453125)"/>
<path d="M0 0 C14.52 0 29.04 0 44 0 C44 7 44 7 42.5078125 9.40429688 C39.03148564 11.61625875 35.86853601 11.57412015 31.875 11.53125 C31.09108887 11.5350769 30.30717773 11.53890381 29.49951172 11.54284668 C27.84536451 11.54556353 26.19117417 11.5382181 24.53710938 11.52148438 C22.00813838 11.50006892 19.48200786 11.52129097 16.953125 11.546875 C15.34374374 11.54423168 13.73436425 11.53910661 12.125 11.53125 C11.3707373 11.53934692 10.61647461 11.54744385 9.83935547 11.55578613 C6.50386759 11.49634593 4.32972158 11.20979948 1.4921875 9.40429688 C0 7 0 7 0 0 Z " fill="#3F5C6C" transform="translate(42,106)"/>
<path d="M0 0 C8.58 0 17.16 0 26 0 C21.77547591 2.11226204 18.16835664 2.64514132 13.5625 3.125 C12.81162109 3.21136719 12.06074219 3.29773438 11.28710938 3.38671875 C7.50641462 3.80568756 3.81023488 4.10605027 0 4 C0 2.68 0 1.36 0 0 Z " fill="#A7CCEB" transform="translate(91,17)"/>
<path d="M0 0 C2.05078125 0.03255208 4.1015625 0.06510417 6.15234375 0.09765625 C6.71484375 2.03515625 6.71484375 2.03515625 7.15234375 4.09765625 C6.15234375 5.09765625 6.15234375 5.09765625 4.0859375 5.1953125 C3.26222656 5.18371094 2.43851563 5.17210938 1.58984375 5.16015625 C0.76355469 5.15113281 -0.06273437 5.14210938 -0.9140625 5.1328125 C-1.55214844 5.12121094 -2.19023437 5.10960938 -2.84765625 5.09765625 C-2.84765625 0.15051037 -2.84765625 0.15051037 0 0 Z " fill="#415F6E" transform="translate(27.84765625,111.90234375)"/>
</svg>
