<?xml version="1.0" encoding="UTF-8"?>
<svg version="1.1" xmlns="http://www.w3.org/2000/svg" width="128" height="128">
<path d="M0 0 C5.58648303 4.43352802 8.32258636 9.50882298 10.2734375 16.26953125 C11.70159268 20.9051825 14.14707592 22.58219526 17.8984375 25.64453125 C21.76644133 31.54708144 22.98756327 37.69433689 21.8984375 44.64453125 C20.06497316 50.75246274 16.40430013 55.43110961 10.8984375 58.64453125 C1.58730309 62.46411425 -8.2400803 61.96000521 -18.1015625 61.64453125 C-18.16214844 62.28261719 -18.22273438 62.92070313 -18.28515625 63.578125 C-18.36894531 64.40441406 -18.45273438 65.23070313 -18.5390625 66.08203125 C-18.62027344 66.90574219 -18.70148438 67.72945313 -18.78515625 68.578125 C-19.1015625 70.64453125 -19.1015625 70.64453125 -20.1015625 71.64453125 C-22.90668203 71.79807463 -25.67019921 71.87618901 -28.4765625 71.89453125 C-29.25773437 71.91515625 -30.03890625 71.93578125 -30.84375 71.95703125 C-36.62750039 71.99664598 -36.62750039 71.99664598 -38.83837891 70.35449219 C-40.85713904 67.62171368 -40.28707734 64.92196003 -40.1015625 61.64453125 C-40.68534668 61.6602417 -41.26913086 61.67595215 -41.87060547 61.69213867 C-44.57248845 61.75535153 -47.27421509 61.79379048 -49.9765625 61.83203125 C-50.894375 61.85716797 -51.8121875 61.88230469 -52.7578125 61.90820312 C-60.40171773 61.9889486 -67.31398345 60.86767548 -73.9765625 56.95703125 C-78.17299944 52.39032046 -80.32292657 47.88981929 -80.6015625 41.64453125 C-80.30520237 35.60619358 -78.63234528 31.0696446 -74.23046875 26.8515625 C-70.7266569 24.06308464 -67.70467971 21.93222608 -63.1015625 21.64453125 C-63.0190625 20.92265625 -62.9365625 20.20078125 -62.8515625 19.45703125 C-61.72129481 15.21852741 -59.67952351 12.59130785 -55.9140625 10.33203125 C-51.96048553 9.36560132 -48.15017953 9.48576195 -44.1015625 9.64453125 C-43.8540625 8.62359375 -43.8540625 8.62359375 -43.6015625 7.58203125 C-40.72661351 1.95192281 -35.73540257 -2.03160217 -29.8515625 -4.29296875 C-19.52160093 -7.13282073 -9.03710207 -5.82876286 0 0 Z M-20.1015625 -1.35546875 C-22.72543385 0.03546017 -22.72543385 0.03546017 -25.1015625 1.64453125 C-24.1115625 2.13953125 -24.1115625 2.13953125 -23.1015625 2.64453125 C-20.47769115 1.25360233 -20.47769115 1.25360233 -18.1015625 -0.35546875 C-18.7615625 -0.68546875 -19.4215625 -1.01546875 -20.1015625 -1.35546875 Z M-27.1015625 2.64453125 C-29.72543385 4.03546017 -29.72543385 4.03546017 -32.1015625 5.64453125 C-31.1115625 6.13953125 -31.1115625 6.13953125 -30.1015625 6.64453125 C-27.47769115 5.25360233 -27.47769115 5.25360233 -25.1015625 3.64453125 C-25.7615625 3.31453125 -26.4215625 2.98453125 -27.1015625 2.64453125 Z M-34.1015625 6.64453125 C-35.0915625 7.63453125 -36.0815625 8.62453125 -37.1015625 9.64453125 C-35.4515625 8.98453125 -33.8015625 8.32453125 -32.1015625 7.64453125 C-32.7615625 7.31453125 -33.4215625 6.98453125 -34.1015625 6.64453125 Z M-39.1015625 9.64453125 C-40.0915625 10.63453125 -41.0815625 11.62453125 -42.1015625 12.64453125 C-40.4515625 11.98453125 -38.8015625 11.32453125 -37.1015625 10.64453125 C-37.7615625 10.31453125 -38.4215625 9.98453125 -39.1015625 9.64453125 Z M-50.01953125 15.078125 C-51.09847656 15.73941406 -52.17742188 16.40070312 -53.2890625 17.08203125 C-54.37574219 17.74074219 -55.46242188 18.39945313 -56.58203125 19.078125 C-57.41347656 19.59503906 -58.24492188 20.11195312 -59.1015625 20.64453125 C-58.7715625 21.30453125 -58.4415625 21.96453125 -58.1015625 22.64453125 C-53.4815625 20.00453125 -48.8615625 17.36453125 -44.1015625 14.64453125 C-47.14256905 13.24077898 -47.14256905 13.24077898 -50.01953125 15.078125 Z " fill="#2AB4E0" transform="translate(93.1015625,6.35546875)"/>
<path d="M0 0 C0.78503906 -0.020625 1.57007813 -0.04125 2.37890625 -0.0625 C4.65625 -0.078125 4.65625 -0.078125 8.5 0.25 C10.6519437 3.47791555 10.70086443 4.53400809 10.5 8.25 C11.75296875 8.22679688 13.0059375 8.20359375 14.296875 8.1796875 C15.9479107 8.16092573 17.59895285 8.14272597 19.25 8.125 C20.075 8.10824219 20.9 8.09148437 21.75 8.07421875 C22.54921875 8.06777344 23.3484375 8.06132813 24.171875 8.0546875 C24.9050293 8.04421387 25.63818359 8.03374023 26.39355469 8.02294922 C28.83992539 8.28664008 30.41604264 8.95590223 32.5 10.25 C33.85827701 12.96655403 33.6323445 15.15789406 33.625 18.1875 C33.62886719 19.77884766 33.62886719 19.77884766 33.6328125 21.40234375 C33.5 24.25 33.5 24.25 32.5 27.25 C32.995 28.5803125 32.995 28.5803125 33.5 29.9375 C34.81787041 34.30294574 34.43634105 36.78437344 33.5 41.25 C32.29058838 43.45509338 32.29058838 43.45509338 30.5 45.25 C28.0223999 45.78916931 28.0223999 45.78916931 25.03808594 45.84350586 C23.91972351 45.87290756 22.80136108 45.90230927 21.64910889 45.93260193 C20.4397467 45.94324173 19.23038452 45.95388153 17.984375 45.96484375 C16.740047 45.98849503 15.49571899 46.0121463 14.21368408 46.03651428 C11.57713863 46.08184133 8.94186023 46.1193544 6.30517578 46.14379883 C3.60836006 46.16946963 0.91262546 46.21090321 -1.78369141 46.26879883 C-5.67343731 46.3514732 -9.5628701 46.41200084 -13.453125 46.46484375 C-14.65439026 46.48965317 -15.85565552 46.51446259 -17.09332275 46.5400238 C-23.33089735 46.58048678 -28.05220054 46.42532986 -33.5 43.25 C-36.18118147 39.45165958 -35.46408002 35.72988173 -34.88671875 31.3359375 C-34.5 29.25 -34.5 29.25 -33.5 26.25 C-33.83 25.92 -34.16 25.59 -34.5 25.25 C-34.70481609 23.15209802 -34.81406354 21.04449528 -34.875 18.9375 C-34.92398438 17.78636719 -34.97296875 16.63523437 -35.0234375 15.44921875 C-34.5 12.25 -34.5 12.25 -32.52734375 9.84765625 C-28.44734852 7.69447167 -25.21865948 7.80249766 -20.6875 8 C-19.50510742 8.02707031 -19.50510742 8.02707031 -18.29882812 8.0546875 C-16.36535739 8.10155952 -14.43251715 8.1732959 -12.5 8.25 C-12.21125 7.115625 -11.9225 5.98125 -11.625 4.8125 C-11.25375 3.636875 -10.8825 2.46125 -10.5 1.25 C-7.21428629 -0.39285685 -3.60752467 0.02369474 0 0 Z " fill="#B0D9DC" transform="translate(64.5,81.75)"/>
<path d="M0 0 C7.46268656 0.13326226 14.17415526 2.70351743 19.86328125 7.60546875 C24.24110204 12.35263422 25.97689851 17.61589507 27.8125 23.6875 C28.93675123 26.2742438 28.93675123 26.2742438 31.875 28.25 C36.51025168 31.89685243 38.50991269 36.7694245 39.3828125 42.5234375 C39.70214771 49.44236704 37.94401803 54.38353216 33.59765625 59.72265625 C26.96399969 66.32387439 18.03309156 67.11428985 9.09130859 67.19775391 C5.72482793 67.1830102 2.36481442 67.10764217 -1 67 C-1.06058594 67.63808594 -1.12117188 68.27617188 -1.18359375 68.93359375 C-1.26738281 69.75988281 -1.35117188 70.58617188 -1.4375 71.4375 C-1.51871094 72.26121094 -1.59992188 73.08492188 -1.68359375 73.93359375 C-2 76 -2 76 -3 77 C-5.80511953 77.15354338 -8.56863671 77.23165776 -11.375 77.25 C-12.15617187 77.270625 -12.93734375 77.29125 -13.7421875 77.3125 C-19.52593789 77.35211473 -19.52593789 77.35211473 -21.73681641 75.70996094 C-23.75557654 72.97718243 -23.18551484 70.27742878 -23 67 C-23.58378418 67.01571045 -24.16756836 67.0314209 -24.76904297 67.04760742 C-27.47092595 67.11082028 -30.17265259 67.14925923 -32.875 67.1875 C-33.7928125 67.21263672 -34.710625 67.23777344 -35.65625 67.26367188 C-43.30015523 67.34441735 -50.21242095 66.22314423 -56.875 62.3125 C-61.07143694 57.74578921 -63.22136407 53.24528804 -63.5 47 C-63.20363987 40.96166233 -61.53078278 36.42511335 -57.12890625 32.20703125 C-53.6250944 29.41855339 -50.60311721 27.28769483 -46 27 C-45.9175 26.278125 -45.835 25.55625 -45.75 24.8125 C-44.83749583 21.39060935 -43.41828071 19.56053252 -41 17 C-40.01 16.67 -39.02 16.34 -38 16 C-38.61277612 18.96175123 -39.25372522 20.38058783 -41 23 C-41.39013716 24.9896995 -41.73202649 26.99019869 -42 29 C-42.58007812 29.13535156 -43.16015625 29.27070313 -43.7578125 29.41015625 C-49.95749468 31.11864952 -53.52637382 33.54144457 -57 39 C-58.44070033 43.32210098 -58.43329185 47.47932173 -58 52 C-56.6490712 54.9254644 -56.6490712 54.9254644 -55 57 C-55 57.66 -55 58.32 -55 59 C-47.92118875 63.12930656 -39.96762195 63.36124424 -32 63.625 C-31.03449219 63.66367188 -30.06898437 63.70234375 -29.07421875 63.7421875 C-26.7163256 63.83556941 -24.35842244 63.92134329 -22 64 C-22 62.02 -22 60.04 -22 58 C-23.918125 58.0309375 -23.918125 58.0309375 -25.875 58.0625 C-29.75 58.125 -29.75 58.125 -32 57 C-31.96396055 51.27873661 -29.293245 48.66910297 -25.46875 44.83398438 C-24.7365625 44.12564453 -24.004375 43.41730469 -23.25 42.6875 C-22.53328125 41.95982422 -21.8165625 41.23214844 -21.078125 40.48242188 C-14.84940557 34.33957633 -14.84940557 34.33957633 -10 34 C-7.5 35.9140625 -7.5 35.9140625 -5 38.625 C-4.175 39.50414062 -3.35 40.38328125 -2.5 41.2890625 C-1.675 42.18367188 -0.85 43.07828125 0 44 C3.31035252 47.39098369 3.31035252 47.39098369 6.875 50.5 C8 52 8 52 7.6875 54.6875 C7.460625 55.450625 7.23375 56.21375 7 57 C4.36 57.66 1.72 58.32 -1 59 C-1.33 60.65 -1.66 62.3 -2 64 C1.83462289 63.97700308 5.66633552 63.89942611 9.5 63.8125 C10.57765625 63.80669922 11.6553125 63.80089844 12.765625 63.79492188 C19.64079523 63.60627391 24.80637693 62.76136487 30 58 C34.14552966 52.45151196 34.93778619 46.7961917 34 40 C33.25017468 37.36367148 32.34301447 35.42775693 31 33 C30.34 32.67 29.68 32.34 29 32 C29 31.34 29 30.68 29 30 C28.236875 29.855625 27.47375 29.71125 26.6875 29.5625 C22.52022698 27.13966685 22.19842602 23.47162708 21 19 C20.4121875 17.2365625 20.4121875 17.2365625 19.8125 15.4375 C19.4103125 14.2309375 19.4103125 14.2309375 19 13 C18.34 13 17.68 13 17 13 C16.75507812 12.39414063 16.51015625 11.78828125 16.2578125 11.1640625 C13.7055551 6.77291157 8.32340696 4.74639927 3.62890625 3.23828125 C1.76568857 2.7699859 -0.11614127 2.37677175 -2 2 C-1.34 1.34 -0.68 0.68 0 0 Z " fill="#272C2D" transform="translate(76,1)"/>
<path d="M0 0 C1.13465195 -0.00315216 2.26930389 -0.00630432 3.43833923 -0.009552 C5.29139427 -0.00651566 5.29139427 -0.00651566 7.18188477 -0.00341797 C8.44090103 -0.00437469 9.6999173 -0.00533142 10.99708557 -0.00631714 C13.66622313 -0.00699927 16.33526988 -0.00564055 19.00439453 -0.00097656 C22.42885981 0.00471496 25.85324662 0.0014453 29.27770901 -0.00454903 C32.53743709 -0.00902874 35.79715566 -0.00589316 39.05688477 -0.00341797 C40.29023056 -0.0054422 41.52357635 -0.00746643 42.79429626 -0.009552 C44.50100243 -0.00482376 44.50100243 -0.00482376 46.2421875 0 C47.24732895 0.00079559 48.2524704 0.00159119 49.28807068 0.00241089 C51.68579102 0.12939453 51.68579102 0.12939453 53.68579102 1.12939453 C54.17016602 3.52783203 54.17016602 3.52783203 54.43579102 6.50439453 C54.58274414 7.97005859 54.58274414 7.97005859 54.73266602 9.46533203 C54.68579102 12.12939453 54.68579102 12.12939453 52.68579102 15.12939453 C50.38418579 15.50361633 50.38418579 15.50361633 47.47338867 15.50170898 C46.38530914 15.50793777 45.29722961 15.51416656 44.17617798 15.52058411 C42.99599091 15.51137436 41.81580383 15.50216461 40.59985352 15.49267578 C39.39138763 15.49317429 38.18292175 15.49367279 36.93783569 15.4941864 C34.37724161 15.49184208 31.8166454 15.48209269 29.25610352 15.46557617 C25.33401881 15.44203396 21.41261566 15.44500662 17.49047852 15.45166016 C15.00609946 15.44608199 12.52172327 15.43897124 10.03735352 15.43017578 C8.2731456 15.43154289 8.2731456 15.43154289 6.47329712 15.43293762 C4.83172134 15.4186396 4.83172134 15.4186396 3.15698242 15.40405273 C2.19482819 15.39944534 1.23267395 15.39483795 0.24136353 15.39009094 C-2.39869661 15.12077587 -4.04801188 14.47271622 -6.31420898 13.12939453 C-6.34107451 11.15030056 -6.36054274 9.17110482 -6.37670898 7.19189453 C-6.38831055 6.08974609 -6.39991211 4.98759766 -6.41186523 3.85205078 C-6.24177576 -0.89004378 -4.22896076 0.00334997 0 0 Z " fill="#C2E6EA" transform="translate(40.314208984375,92.87060546875)"/>
<path d="M0 0 C0.78503906 -0.020625 1.57007813 -0.04125 2.37890625 -0.0625 C4.65625 -0.078125 4.65625 -0.078125 8.5 0.25 C10.6519437 3.47791555 10.70086443 4.53400809 10.5 8.25 C11.75296875 8.22679688 13.0059375 8.20359375 14.296875 8.1796875 C15.9479107 8.16092573 17.59895285 8.14272597 19.25 8.125 C20.075 8.10824219 20.9 8.09148437 21.75 8.07421875 C22.54921875 8.06777344 23.3484375 8.06132813 24.171875 8.0546875 C24.9050293 8.04421387 25.63818359 8.03374023 26.39355469 8.02294922 C28.83992539 8.28664008 30.41604264 8.95590223 32.5 10.25 C33.85827701 12.96655403 33.6323445 15.15789406 33.625 18.1875 C33.62886719 19.77884766 33.62886719 19.77884766 33.6328125 21.40234375 C33.5 24.25 33.5 24.25 32.5 27.25 C32.995 28.5803125 32.995 28.5803125 33.5 29.9375 C34.81787041 34.30294574 34.43634105 36.78437344 33.5 41.25 C32.29058838 43.45509338 32.29058838 43.45509338 30.5 45.25 C28.0223999 45.78916931 28.0223999 45.78916931 25.03808594 45.84350586 C23.91972351 45.87290756 22.80136108 45.90230927 21.64910889 45.93260193 C20.4397467 45.94324173 19.23038452 45.95388153 17.984375 45.96484375 C16.740047 45.98849503 15.49571899 46.0121463 14.21368408 46.03651428 C11.57713863 46.08184133 8.94186023 46.1193544 6.30517578 46.14379883 C3.60836006 46.16946963 0.91262546 46.21090321 -1.78369141 46.26879883 C-5.67343731 46.3514732 -9.5628701 46.41200084 -13.453125 46.46484375 C-14.65439026 46.48965317 -15.85565552 46.51446259 -17.09332275 46.5400238 C-23.33089735 46.58048678 -28.05220054 46.42532986 -33.5 43.25 C-36.18118147 39.45165958 -35.46408002 35.72988173 -34.88671875 31.3359375 C-34.5 29.25 -34.5 29.25 -33.5 26.25 C-33.83 25.92 -34.16 25.59 -34.5 25.25 C-34.70481609 23.15209802 -34.81406354 21.04449528 -34.875 18.9375 C-34.92398438 17.78636719 -34.97296875 16.63523437 -35.0234375 15.44921875 C-34.5 12.25 -34.5 12.25 -32.52734375 9.84765625 C-28.44734852 7.69447167 -25.21865948 7.80249766 -20.6875 8 C-19.50510742 8.02707031 -19.50510742 8.02707031 -18.29882812 8.0546875 C-16.36535739 8.10155952 -14.43251715 8.1732959 -12.5 8.25 C-12.21125 7.115625 -11.9225 5.98125 -11.625 4.8125 C-11.25375 3.636875 -10.8825 2.46125 -10.5 1.25 C-7.21428629 -0.39285685 -3.60752467 0.02369474 0 0 Z M-30.5 12.25 C-30.57244053 14.26964199 -30.58377188 16.29167124 -30.5625 18.3125 C-30.55347656 19.41722656 -30.54445313 20.52195312 -30.53515625 21.66015625 C-30.52355469 22.51480469 -30.51195312 23.36945313 -30.5 24.25 C-27.23983776 26.18250916 -24.79599175 26.50661859 -21.02880859 26.5246582 C-19.38723282 26.53895622 -19.38723282 26.53895622 -17.7124939 26.55354309 C-15.94828598 26.55217598 -15.94828598 26.55217598 -14.1484375 26.55078125 C-12.93805817 26.55506638 -11.72767883 26.5593515 -10.48062134 26.56376648 C-7.9236107 26.56950773 -5.36658372 26.57001156 -2.80957031 26.56567383 C1.11681672 26.5625066 5.04245575 26.58600195 8.96875 26.61132812 C11.45051988 26.61360028 13.93229179 26.61430501 16.4140625 26.61328125 C17.59424957 26.622491 18.77443665 26.63170074 19.99038696 26.64118958 C21.62250626 26.63184639 21.62250626 26.63184639 23.28759766 26.62231445 C24.24816071 26.62294388 25.20872375 26.6235733 26.19839478 26.6242218 C27.33768936 26.43898201 27.33768936 26.43898201 28.5 26.25 C30.83719587 22.74420619 30.65827595 21.6970154 30.25 17.625 C30.16234375 16.64273438 30.0746875 15.66046875 29.984375 14.6484375 C29.82453125 13.85695313 29.6646875 13.06546875 29.5 12.25 C26.89125744 10.94562872 24.97760523 11.12291767 22.05639648 11.12060547 C20.91859238 11.11745331 19.78078827 11.11430115 18.60850525 11.11105347 C17.37515945 11.1130777 16.14181366 11.11510193 14.87109375 11.1171875 C12.98113426 11.11575241 12.98113426 11.11575241 11.05299377 11.11428833 C8.38563626 11.11360683 5.71836992 11.11495987 3.05102539 11.11962891 C-0.37463062 11.12533188 -3.80020839 11.12204237 -7.22586155 11.11605644 C-10.48521264 11.1115834 -13.74455415 11.11471072 -17.00390625 11.1171875 C-18.85696129 11.11415115 -18.85696129 11.11415115 -20.74745178 11.11105347 C-21.88210373 11.11420563 -23.01675568 11.11735779 -24.18579102 11.12060547 C-25.6923098 11.12179886 -25.6923098 11.12179886 -27.22926331 11.12301636 C-29.46730757 10.99513333 -29.46730757 10.99513333 -30.5 12.25 Z M-15.1875 27.6875 C-16.24079498 27.71683624 -16.24079498 27.71683624 -17.31536865 27.74676514 C-19.31847538 27.80377911 -21.32135769 27.86851884 -23.32421875 27.93359375 C-24.49041748 27.97025146 -25.65661621 28.00690918 -26.8581543 28.04467773 C-29.42271022 27.95598014 -29.42271022 27.95598014 -30.5 29.25 C-30.65126231 31.22513667 -30.72173766 33.20678135 -30.75 35.1875 C-30.77578125 36.26902344 -30.8015625 37.35054687 -30.828125 38.46484375 C-30.71984375 39.38394531 -30.6115625 40.30304688 -30.5 41.25 C-27.13359688 43.49426875 -25.99041258 43.50617555 -22.05053711 43.5246582 C-20.37881691 43.53895622 -20.37881691 43.53895622 -18.67332458 43.55354309 C-17.47015091 43.55263168 -16.26697723 43.55172028 -15.02734375 43.55078125 C-13.17635826 43.55720894 -13.17635826 43.55720894 -11.28797913 43.56376648 C-8.00896048 43.57098593 -4.73012496 43.56787977 -1.45111084 43.56219482 C0.56208498 43.56249994 2.57498776 43.57254997 4.58813477 43.58618164 C8.44561704 43.6105766 12.30260675 43.61484082 16.16015625 43.61328125 C17.36535416 43.622491 18.57055206 43.63170074 19.81227112 43.64118958 C21.47926308 43.63184639 21.47926308 43.63184639 23.17993164 43.62231445 C24.65194786 43.62325859 24.65194786 43.62325859 26.15370178 43.6242218 C26.92798019 43.50072861 27.70225861 43.37723541 28.5 43.25 C31.16583201 39.25125199 31.21043991 35.9511826 30.5 31.25 C27.94755655 28.22488183 25.30325415 27.83829169 21.5 27.25 C18.69748832 27.15136087 15.926942 27.10872458 13.125 27.125 C12.28735107 27.12765869 11.44970215 27.13031738 10.58666992 27.13305664 C1.99255934 27.19322989 -6.59742038 27.43201184 -15.1875 27.6875 Z " fill="#282929" transform="translate(64.5,81.75)"/>
<path d="M0 0 C1.875 0.25 1.875 0.25 4 1 C4.6837045 2.32467746 5.34964186 3.65863633 6 5 C6.57234375 5.26941406 7.1446875 5.53882813 7.734375 5.81640625 C10.78052049 7.40775467 12.83173036 9.56758843 15.25 12 C16.58804688 13.3303125 16.58804688 13.3303125 17.953125 14.6875 C20 17 20 17 20 19 C16.37 19 12.74 19 9 19 C9 25.27 9 31.54 9 38 C4.71 38 0.42 38 -4 38 C-5.65497356 34.69005287 -5.10084335 31.00877 -5.0625 27.375 C-5.05573242 26.17230469 -5.05573242 26.17230469 -5.04882812 24.9453125 C-5.03703168 22.96350994 -5.01909605 20.98174567 -5 19 C-8.3 19 -11.6 19 -15 19 C-13.70088398 13.70300907 -11.62302765 11.31164846 -7.5 7.8125 C-3.35036457 4.26463396 -3.35036457 4.26463396 0 0 Z " fill="#F4C930" transform="translate(62,38)"/>
<path d="M0 0 C0.78503906 -0.020625 1.57007812 -0.04125 2.37890625 -0.0625 C4.65625 -0.078125 4.65625 -0.078125 8.5 0.25 C10.5 3.25 10.5 3.25 10.5 8.25 C16.44 8.25 22.38 8.25 28.5 8.25 C28.17 9.24 27.84 10.23 27.5 11.25 C13.31 11.25 -0.88 11.25 -15.5 11.25 C-15.83 10.59 -16.16 9.93 -16.5 9.25 C-15.18 8.92 -13.86 8.59 -12.5 8.25 C-12.066875 6.5484375 -12.066875 6.5484375 -11.625 4.8125 C-11.25375 3.636875 -10.8825 2.46125 -10.5 1.25 C-7.21428629 -0.39285685 -3.60752467 0.02369474 0 0 Z " fill="#403925" transform="translate(64.5,81.75)"/>
<path d="M0 0 C-0.35967274 2.56487384 -0.6116223 3.69499869 -2.68652344 5.32446289 C-3.40356445 5.7033667 -4.12060547 6.08227051 -4.859375 6.47265625 C-5.64570312 6.89740234 -6.43203125 7.32214844 -7.2421875 7.75976562 C-8.06976563 8.18966797 -8.89734375 8.61957031 -9.75 9.0625 C-11.37008722 9.9278323 -12.98988667 10.79370362 -14.609375 11.66015625 C-15.37185547 12.06508301 -16.13433594 12.47000977 -16.91992188 12.88720703 C-21.72524893 15.14342529 -21.72524893 15.14342529 -25 19 C-26.85546875 19.7109375 -26.85546875 19.7109375 -29.1875 20.375 C-33.41383331 21.68731687 -36.40819718 23.45945654 -40 26 C-40.66 26 -41.32 26 -42 26 C-41.43518386 22.04628701 -40.28003407 19.28324906 -38 16 C-35.59454362 14.79727181 -34.05003047 14.89928528 -31.375 14.9375 C-30.14910156 14.95103516 -30.14910156 14.95103516 -28.8984375 14.96484375 C-27.95871094 14.98224609 -27.95871094 14.98224609 -27 15 C-26.835 14.319375 -26.67 13.63875 -26.5 12.9375 C-23.56517923 7.19014266 -18.53123736 3.26803047 -12.5 1.0625 C-8.24428219 -0.15130473 -4.40304296 -0.24016598 0 0 Z " fill="#262F32" transform="translate(76,1)"/>
<path d="M0 0 C1.88138672 0.05414063 1.88138672 0.05414063 3.80078125 0.109375 C5.22970703 0.17898437 5.22970703 0.17898437 6.6875 0.25 C6.6875 1.24 6.6875 2.23 6.6875 3.25 C2.0675 3.58 -2.5525 3.91 -7.3125 4.25 C-7.6425 8.21 -7.9725 12.17 -8.3125 16.25 C-4.74573418 17.14169146 -1.94618955 17.41354711 1.6953125 17.49609375 C3.42201172 17.54540039 3.42201172 17.54540039 5.18359375 17.59570312 C7.6105768 17.65709613 10.03766764 17.71436196 12.46484375 17.76757812 C13.61339844 17.80173828 14.76195313 17.83589844 15.9453125 17.87109375 C16.9986377 17.8961499 18.05196289 17.92120605 19.13720703 17.94702148 C21.6875 18.25 21.6875 18.25 23.6875 20.25 C8.3425 20.745 8.3425 20.745 -7.3125 21.25 C-7.3125 25.21 -7.3125 29.17 -7.3125 33.25 C-6.3225 34.24 -5.3325 35.23 -4.3125 36.25 C-6.87111291 37.25516936 -7.93467225 37.41192618 -10.5 36.3125 C-13.16655363 33.27814587 -13.40930564 30.14988422 -13.3125 26.25 C-12.79536722 23.52329987 -12.06374951 20.92632638 -11.3125 18.25 C-11.6425 17.92 -11.9725 17.59 -12.3125 17.25 C-12.51731609 15.15209802 -12.62656354 13.04449528 -12.6875 10.9375 C-12.73648437 9.78636719 -12.78546875 8.63523437 -12.8359375 7.44921875 C-12.3125 4.25 -12.3125 4.25 -10.24609375 1.84765625 C-6.58009378 -0.14887369 -4.1493403 -0.15511553 0 0 Z " fill="#35393A" transform="translate(42.3125,89.75)"/>
<path d="M0 0 C2.90905279 1.11927258 4.44309404 2.83092079 6.58984375 5.078125 C7.37488281 5.89023437 8.15992187 6.70234375 8.96875 7.5390625 C9.68933594 8.29445313 10.40992187 9.04984375 11.15234375 9.828125 C12.10715167 10.78997082 13.0646312 11.74919099 14.02734375 12.703125 C14.72859375 13.404375 15.42984375 14.105625 16.15234375 14.828125 C17.08046875 15.570625 17.08046875 15.570625 18.02734375 16.328125 C19.15234375 17.828125 19.15234375 17.828125 18.83984375 20.515625 C18.49953125 21.6603125 18.49953125 21.6603125 18.15234375 22.828125 C15.18234375 23.158125 12.21234375 23.488125 9.15234375 23.828125 C9.15234375 23.168125 9.15234375 22.508125 9.15234375 21.828125 C11.79234375 21.828125 14.43234375 21.828125 17.15234375 21.828125 C13.26979606 17.17850862 9.34570092 12.98274269 4.65234375 9.1484375 C3.15234375 7.828125 3.15234375 7.828125 1.40234375 5.453125 C0.98984375 4.916875 0.57734375 4.380625 0.15234375 3.828125 C-0.83765625 3.828125 -1.82765625 3.828125 -2.84765625 3.828125 C-4.0291432 5.21215258 -5.20118082 6.60589845 -6.3125 8.046875 C-8.62884128 10.73453817 -11.38978515 12.83577115 -14.17578125 15.01953125 C-16.22037611 17.23132428 -16.50477728 18.8783574 -16.84765625 21.828125 C-14.86765625 22.158125 -12.88765625 22.488125 -10.84765625 22.828125 C-10.84765625 23.158125 -10.84765625 23.488125 -10.84765625 23.828125 C-18.59765625 23.953125 -18.59765625 23.953125 -20.84765625 22.828125 C-20.84040709 18.22490967 -19.38266498 15.98642293 -16.3203125 12.77734375 C-14.86292412 11.34378188 -13.39235401 9.92352071 -11.91015625 8.515625 C-11.16830078 7.78794922 -10.42644531 7.06027344 -9.66210938 6.31054688 C-2.8980067 -0.26958202 -2.8980067 -0.26958202 0 0 Z " fill="#2C3331" transform="translate(64.84765625,35.171875)"/>
<path d="M0 0 C1.875 0.25 1.875 0.25 4 1 C4.6837045 2.32467746 5.34964186 3.65863633 6 5 C8.0335948 6.26804566 8.0335948 6.26804566 10 7 C8.35 8.32 6.7 9.64 5 11 C4.34 10.01 3.68 9.02 3 8 C2.01 8 1.02 8 0 8 C0.66 7.01 1.32 6.02 2 5 C0.68 5.33 -0.64 5.66 -2 6 C-2 3 -2 3 0 0 Z M-7 7 C-6.34 7.33 -5.68 7.66 -5 8 C-7.2646629 11.05729491 -9.61327331 14.03716687 -12 17 C-10.35 16.67 -8.7 16.34 -7 16 C-7.99 17.485 -7.99 17.485 -9 19 C-12.125 19.1875 -12.125 19.1875 -15 19 C-13.64994369 13.32976351 -11.1842771 10.82042691 -7 7 Z " fill="#EBBE2A" transform="translate(62,38)"/>
<path d="M0 0 C4.29 0 8.58 0 13 0 C13.33 2.31 13.66 4.62 14 7 C9.38 7 4.76 7 0 7 C0 4.69 0 2.38 0 0 Z " fill="#F5C52A" transform="translate(57,84)"/>
<path d="M0 0 C-2.23881844 2.43047521 -4.52516288 4.04424529 -7.37890625 5.69921875 C-8.21744141 6.18583984 -9.05597656 6.67246094 -9.91992188 7.17382812 C-10.79197266 7.67333984 -11.66402344 8.17285156 -12.5625 8.6875 C-13.43841797 9.19861328 -14.31433594 9.70972656 -15.21679688 10.23632812 C-21.74417974 14 -21.74417974 14 -24 14 C-22.03882724 8.00294014 -18.24211733 5.24910787 -13 2 C-8.78958833 0.29186146 -4.53901033 -0.28368815 0 0 Z " fill="#2AAED9" transform="translate(76,3)"/>
<path d="M0 0 C1.32 0.66 2.64 1.32 4 2 C3.01 2.33 2.02 2.66 1 3 C-0.17077459 4.40492951 -1.33633876 5.81480356 -2.46484375 7.25390625 C-4.79833671 9.90803183 -7.55237643 12.01567852 -10.328125 14.19140625 C-12.37271986 16.40319928 -12.65712103 18.0502324 -13 21 C-11.02 21.33 -9.04 21.66 -7 22 C-7 22.33 -7 22.66 -7 23 C-14.75 23.125 -14.75 23.125 -17 22 C-17.00732464 17.35617596 -15.5033555 15.13154064 -12.40234375 11.9140625 C-10.926615 10.47142184 -9.43782436 9.04204419 -7.9375 7.625 C-7.17888672 6.88894531 -6.42027344 6.15289062 -5.63867188 5.39453125 C-3.7699074 3.58453295 -1.89049188 1.78724707 0 0 Z " fill="#363D35" transform="translate(61,36)"/>
<path d="M0 0 C5.61 0 11.22 0 17 0 C16.67 0.99 16.34 1.98 16 3 C2.47 3 -11.06 3 -25 3 C-25 2.67 -25 2.34 -25 2 C-16.75 2 -8.5 2 0 2 C0 1.34 0 0.68 0 0 Z " fill="#505754" transform="translate(76,90)"/>
<path d="M0 0 C2.4375 0.375 2.4375 0.375 5 1 C6.34413413 3.68826826 6.13239863 5.81235402 6.125 8.8125 C6.12757812 9.85019531 6.13015625 10.88789062 6.1328125 11.95703125 C6.01076175 14.75342942 5.63363355 17.27939879 5 20 C4.34 19.67 3.68 19.34 3 19 C1.97726493 15.37861734 1.89237768 11.93265244 1.9375 8.1875 C1.94652344 7.21167969 1.95554687 6.23585938 1.96484375 5.23046875 C1.97644531 4.49441406 1.98804687 3.75835937 2 3 C1.34 3 0.68 3 0 3 C0 2.01 0 1.02 0 0 Z " fill="#2C2E2E" transform="translate(92,91)"/>
<path d="M0 0 C0 2.31 0 4.62 0 7 C4.62 7 9.24 7 14 7 C14 7.33 14 7.66 14 8 C3.11 8.495 3.11 8.495 -8 9 C-8.33 8.34 -8.66 7.68 -9 7 C-7.68 6.67 -6.36 6.34 -5 6 C-4.814375 4.7934375 -4.814375 4.7934375 -4.625 3.5625 C-4.41875 2.716875 -4.2125 1.87125 -4 1 C-2 0 -2 0 0 0 Z " fill="#272727" transform="translate(57,84)"/>
<path d="M0 0 C0.33 0.99 0.66 1.98 1 3 C0.54625 3.598125 0.0925 4.19625 -0.375 4.8125 C-2.37803712 7.50889612 -2.62538204 9.70336199 -3 13 C-4.98 13 -6.96 13 -9 13 C-8.26290216 11.38986415 -7.50974143 9.78707609 -6.75 8.1875 C-6.33234375 7.29417969 -5.9146875 6.40085937 -5.484375 5.48046875 C-3.93460211 2.89071669 -2.51599234 1.61819166 0 0 Z " fill="#252727" transform="translate(37,17)"/>
<path d="M0 0 C-2.16323247 2.31242092 -4.37647804 4.0156396 -7.0625 5.6875 C-8.10083984 6.34298828 -8.10083984 6.34298828 -9.16015625 7.01171875 C-11 8 -11 8 -13 8 C-12.68762196 5.11050316 -12.35661121 3.41366901 -10.4375 1.1875 C-6.8580787 -0.55632063 -3.95820158 -0.19791008 0 0 Z " fill="#29AFD9" transform="translate(47,19)"/>
<path d="M0 0 C1.27230469 0.01804687 2.54460938 0.03609375 3.85546875 0.0546875 C5.31919922 0.08949219 5.31919922 0.08949219 6.8125 0.125 C6.8125 1.115 6.8125 2.105 6.8125 3.125 C4.35470024 3.34626178 1.89722352 3.55250395 -0.5625 3.75 C-1.61050781 3.84667969 -1.61050781 3.84667969 -2.6796875 3.9453125 C-4.51119111 4.08619739 -6.35062748 4.11261659 -8.1875 4.125 C-8.8475 3.465 -9.5075 2.805 -10.1875 2.125 C-6.4507157 -0.36618953 -4.44298181 -0.0815226 0 0 Z " fill="#3F4546" transform="translate(42.1875,89.875)"/>
<path d="M0 0 C2.25 0.25 2.25 0.25 4 1 C4 1.66 4 2.32 4 3 C5.32 3.66 6.64 4.32 8 5 C6.35 6.32 4.7 7.64 3 9 C2.34 8.01 1.68 7.02 1 6 C0.01 6 -0.98 6 -2 6 C-1.34 5.01 -0.68 4.02 0 3 C-1.32 3.33 -2.64 3.66 -4 4 C-2.25 1.9375 -2.25 1.9375 0 0 Z " fill="#C5C459" transform="translate(64,40)"/>
<path d="M0 0 C0.33 0 0.66 0 1 0 C1 2.31 1 4.62 1 7 C3.97 7.495 3.97 7.495 7 8 C7 8.33 7 8.66 7 9 C-0.75 9.125 -0.75 9.125 -3 8 C-2.25 2.25 -2.25 2.25 0 0 Z " fill="#314341" transform="translate(47,50)"/>
<path d="M0 0 C-1.32 1.32 -2.64 2.64 -4 4 C-2.35 3.67 -0.7 3.34 1 3 C0.01 4.485 0.01 4.485 -1 6 C-4.125 6.1875 -4.125 6.1875 -7 6 C-6.75 3.625 -6.75 3.625 -6 1 C-2.69333333 -1.34666667 -2.69333333 -1.34666667 0 0 Z " fill="#ADB259" transform="translate(54,51)"/>
<path d="M0 0 C2.5 0.3125 2.5 0.3125 5 1 C5.33 1.66 5.66 2.32 6 3 C4.02 3.99 2.04 4.98 0 6 C-0.38218767 4.34385343 -0.71395102 2.67542976 -1 1 C-0.67 0.67 -0.34 0.34 0 0 Z " fill="#B7C264" transform="translate(66,43)"/>
<path d="M0 0 C2.31 0 4.62 0 7 0 C6.67 0.66 6.34 1.32 6 2 C3.67843403 2.40729228 1.3431213 2.74438677 -1 3 C-0.67 2.01 -0.34 1.02 0 0 Z " fill="#282929" transform="translate(79,90)"/>
<path d="M0 0 C1.32 0.66 2.64 1.32 4 2 C4 2.66 4 3.32 4 4 C1.03 4 -1.94 4 -5 4 C-5 3.67 -5 3.34 -5 3 C-3.35 2.67 -1.7 2.34 0 2 C0 1.34 0 0.68 0 0 Z " fill="#C0A331" transform="translate(78,53)"/>
</svg>
