<?xml version="1.0" encoding="UTF-8"?>
<svg version="1.1" xmlns="http://www.w3.org/2000/svg" width="128" height="128">
<path d="M0 0 C0.7156311 -0.00817749 1.43126221 -0.01635498 2.1685791 -0.02478027 C4.5409257 -0.04962874 6.91321255 -0.06614753 9.28564453 -0.08056641 C10.09522739 -0.08589008 10.90481026 -0.09121376 11.73892593 -0.09669876 C16.0228811 -0.12342621 20.30680714 -0.14280357 24.59082031 -0.15722656 C29.01867148 -0.17388637 33.44578005 -0.21867556 37.87335014 -0.26959801 C41.27569448 -0.30322672 44.67786146 -0.31479902 48.0803566 -0.32045364 C49.71268524 -0.32717683 51.34500178 -0.34242671 52.97716904 -0.36634445 C55.26144017 -0.39791186 57.54369367 -0.39804697 59.828125 -0.390625 C61.77765579 -0.40275528 61.77765579 -0.40275528 63.76657104 -0.41513062 C67.04345703 0.19287109 67.04345703 0.19287109 69.47000122 2.5484314 C71.31997262 5.65759898 71.46614465 7.42210294 71.29345703 11.00537109 C71.25736328 11.98119141 71.22126953 12.95701172 71.18408203 13.96240234 C71.13767578 14.69845703 71.09126953 15.43451172 71.04345703 16.19287109 C72.0524707 16.18239746 73.06148438 16.17192383 74.10107422 16.16113281 C77.8507125 16.12488612 81.60033533 16.10195366 85.35009766 16.08300781 C86.97186896 16.07296087 88.59362219 16.05932094 90.21533203 16.04199219 C92.54871077 16.01768616 94.88184963 16.00637496 97.21533203 15.99755859 C98.29992706 15.98207474 98.29992706 15.98207474 99.40643311 15.96627808 C106.06097137 15.96480065 106.06097137 15.96480065 109.04345703 18.19287109 C110.73991616 23.28224848 110.30815564 28.69002292 110.33862305 34.0168457 C110.35016519 35.42417436 110.37065267 36.83145848 110.40014648 38.23852539 C110.4428136 40.27439034 110.45898659 42.30895842 110.46923828 44.34521484 C110.4838208 45.56200928 110.49840332 46.77880371 110.51342773 48.0324707 C110.04345703 51.19287109 110.04345703 51.19287109 108.42675781 53.59594727 C105.27734506 55.70620221 103.25876777 55.64729581 99.48486328 55.59130859 C98.21191406 55.59646484 96.93896484 55.60162109 95.62744141 55.60693359 C93.61500119 55.59220303 91.60325335 55.56782392 89.59106445 55.53271484 C87.63918032 55.50596034 85.68689481 55.51696015 83.73486328 55.52880859 C82.57156494 55.51382324 81.4082666 55.49883789 80.2097168 55.48339844 C76.81887079 56.24319476 75.02107639 57.18754936 72.9591217 60.03259277 C70.84536379 65.01946792 71.40897527 70.6280482 71.47705078 75.94677734 C71.47408745 77.29386761 71.46835072 78.64095436 71.4599762 79.98802185 C71.43930108 84.24403281 71.45887678 88.49940255 71.48095703 92.75537109 C71.50210166 97.69347674 71.50658414 102.6309217 71.4804554 107.5690136 C71.47710592 109.53934346 71.49877362 111.50966472 71.52085876 113.47987366 C71.51727859 114.68139572 71.51369843 115.88291779 71.51000977 117.12084961 C71.51620834 118.17530777 71.52240692 119.22976593 71.52879333 120.31617737 C70.89572368 124.06851877 69.88229342 125.66007088 67.04345703 128.19287109 C63.7800293 128.81433105 63.7800293 128.81433105 59.85986328 128.80810547 C59.14394012 128.81365448 58.42801697 128.81920349 57.69039917 128.82492065 C55.32823356 128.83671393 52.9679879 128.81244835 50.60595703 128.78662109 C48.96215909 128.78490981 47.31835843 128.78497586 45.67456055 128.78674316 C42.23117935 128.78509012 38.78844936 128.7663959 35.34521484 128.73486328 C30.93322031 128.69518524 26.52207866 128.69081799 22.10993958 128.69832611 C18.71610715 128.70139683 15.3224662 128.68927174 11.92868042 128.67219543 C10.302004 128.66516808 8.67530588 128.66204058 7.0486145 128.66288757 C4.77436162 128.66108816 2.50112733 128.63969584 0.22705078 128.61279297 C-1.066604 128.60437378 -2.36025879 128.59595459 -3.69311523 128.58728027 C-7.14878054 128.16963777 -8.55455471 127.66591226 -10.95654297 125.19287109 C-11.92029862 122.30160413 -12.08641872 120.46756096 -12.09698486 117.46194458 C-12.10269501 116.48900452 -12.10840515 115.51606445 -12.11428833 114.51364136 C-12.11540619 113.44759674 -12.11652405 112.38155212 -12.11767578 111.28320312 C-12.12264069 110.15938232 -12.12760559 109.03556152 -12.13272095 107.87768555 C-12.14735184 104.15201205 -12.15414578 100.42638112 -12.15966797 96.70068359 C-12.1654182 94.11620075 -12.17117595 91.53171792 -12.17694092 88.94723511 C-12.18610907 84.21835421 -12.19240862 79.48949037 -12.19543767 74.76060212 C-12.1999187 67.80349438 -12.21747031 60.84658308 -12.24643826 53.88953507 C-12.27066818 47.86086174 -12.27838237 41.8322813 -12.28011322 35.80355453 C-12.28314392 33.23987635 -12.29118642 30.67619908 -12.3042984 28.11255264 C-12.32132149 24.52865899 -12.31948761 20.94524561 -12.31298828 17.36132812 C-12.32681046 15.76833389 -12.32681046 15.76833389 -12.34091187 14.14315796 C-12.28927538 5.06989015 -12.28927538 5.06989015 -8.95654297 1.19287109 C-5.99308419 -0.2888583 -3.30722442 0.03276512 0 0 Z M-6.95654297 6.19287109 C-7.4011686 8.05718561 -7.4011686 8.05718561 -7.31730652 10.22976685 C-7.32143051 11.07393158 -7.3255545 11.91809631 -7.32980347 12.7878418 C-7.31901764 13.7157251 -7.30823181 14.6436084 -7.29711914 15.59960938 C-7.29755722 16.57525848 -7.2979953 17.55090759 -7.29844666 18.55612183 C-7.29635091 21.79201026 -7.27298268 25.02738529 -7.24951172 28.26318359 C-7.24391856 30.50234697 -7.23964714 32.74151402 -7.23664856 34.98068237 C-7.22517774 40.88269128 -7.19569125 46.78447974 -7.16253662 52.68640137 C-7.12649745 59.76316268 -7.11268526 66.83999758 -7.0951767 73.91682434 C-7.06605534 84.67566005 -7.00858331 95.43401179 -6.95654297 106.19287109 C17.13345703 106.19287109 41.22345703 106.19287109 66.04345703 106.19287109 C66.04345703 92.99287109 66.04345703 79.79287109 66.04345703 66.19287109 C65.38345703 65.86287109 64.72345703 65.53287109 64.04345703 65.19287109 C63.62939453 62.90771484 63.62939453 62.90771484 63.41845703 60.13037109 C63.30630859 58.75171875 63.30630859 58.75171875 63.19189453 57.34521484 C63.14291016 56.63494141 63.09392578 55.92466797 63.04345703 55.19287109 C62.23908203 54.98662109 61.43470703 54.78037109 60.60595703 54.56787109 C59.76033203 54.11412109 58.91470703 53.66037109 58.04345703 53.19287109 C57.23095703 50.06787109 57.23095703 50.06787109 57.04345703 47.19287109 C56.38345703 47.85287109 55.72345703 48.51287109 55.04345703 49.19287109 C53.37283203 49.28568359 53.37283203 49.28568359 51.66845703 49.38037109 C48.09747469 49.79395688 48.09747469 49.79395688 46.69580078 51.81005859 C45.71814369 53.55512393 44.87117323 55.37189545 44.04345703 57.19287109 C44.69572266 57.53318359 45.34798828 57.87349609 46.02001953 58.22412109 C53.15563529 62.18133573 57.81439714 66.24024996 61.18798828 73.73583984 C62.41025988 78.6751566 62.29334948 83.43844756 62.23095703 88.50537109 C62.22999023 90.02614258 62.22999023 90.02614258 62.22900391 91.57763672 C62.18394515 99.05238297 62.18394515 99.05238297 61.04345703 100.19287109 C59.08521005 100.29212883 57.12335806 100.32086523 55.16259766 100.32226562 C53.27559143 100.32699387 53.27559143 100.32699387 51.35046387 100.33181763 C49.9668779 100.33002785 48.58329225 100.32797689 47.19970703 100.32568359 C45.79105614 100.32635668 44.38240537 100.32732675 42.97375488 100.32858276 C40.0179738 100.33005951 37.06222289 100.32790592 34.10644531 100.32324219 C30.30971119 100.3175449 26.51304775 100.32082403 22.71631622 100.32681465 C19.80649275 100.33042089 16.89668615 100.32928139 13.98686218 100.32668686 C12.58656303 100.32601776 11.18626236 100.32684541 9.78596497 100.32916641 C7.83208239 100.33169392 5.87819448 100.32716143 3.92431641 100.32226562 C2.81036499 100.32147003 1.69641357 100.32067444 0.54870605 100.31985474 C-1.95654297 100.19287109 -1.95654297 100.19287109 -2.95654297 99.19287109 C-3.267001 95.70203815 -3.23518746 92.19578737 -3.26904297 88.69287109 C-3.29804688 87.72349609 -3.32705078 86.75412109 -3.35693359 85.75537109 C-3.42934178 77.46741874 -1.36563315 71.77209079 3.23095703 64.94287109 C6.78064284 61.47206719 10.61576344 59.37295552 15.04345703 57.19287109 C13.33177178 53.49501069 13.33177178 53.49501069 11.04345703 50.19287109 C7.46349444 48.82386755 7.46349444 48.82386755 4.04345703 48.19287109 C2.3529961 44.81194923 2.38204302 41.822311 3.04345703 38.19287109 C6.40283941 29.54693715 10.49150474 23.1340733 19.04345703 19.19287109 C27.27869868 16.06915874 34.10691769 16.82673375 42.04345703 20.19287109 C49.61244518 24.2684801 53.0282213 30.41673685 56.04345703 38.19287109 C56.37345703 38.19287109 56.70345703 38.19287109 57.04345703 38.19287109 C57.05803955 37.62777832 57.07262207 37.06268555 57.08764648 36.48046875 C57.16201761 33.9255709 57.25870946 31.37199611 57.35595703 28.81787109 C57.37851563 27.92841797 57.40107422 27.03896484 57.42431641 26.12255859 C57.47749023 24.84638672 57.47749023 24.84638672 57.53173828 23.54443359 C57.55792236 22.75891113 57.58410645 21.97338867 57.61108398 21.1640625 C58.04345703 19.19287109 58.04345703 19.19287109 61.04345703 17.19287109 C62.69895234 16.80787218 64.36570033 16.46493975 66.04345703 16.19287109 C66.12436674 14.56868364 66.18260698 12.94335364 66.23095703 11.31787109 C66.26576172 10.41294922 66.30056641 9.50802734 66.33642578 8.57568359 C66.19140625 7.39619141 66.19140625 7.39619141 66.04345703 6.19287109 C62.30667274 3.70168156 60.29893884 3.98634849 55.85595703 4.06787109 C54.58365234 4.08591797 53.31134766 4.10396484 52.00048828 4.12255859 C51.02466797 4.14576172 50.04884766 4.16896484 49.04345703 4.19287109 C48.38345703 6.50287109 47.72345703 8.81287109 47.04345703 11.19287109 C35.49345703 11.19287109 23.94345703 11.19287109 12.04345703 11.19287109 C11.38345703 8.88287109 10.72345703 6.57287109 10.04345703 4.19287109 C7.77288326 4.13888123 5.50194415 4.10008368 3.23095703 4.06787109 C1.96638672 4.04466797 0.70181641 4.02146484 -0.60107422 3.99755859 C-4.09034537 3.91705191 -4.09034537 3.91705191 -6.95654297 6.19287109 Z M26.04345703 21.19287109 C26.04345703 21.52287109 26.04345703 21.85287109 26.04345703 22.19287109 C29.67345703 22.52287109 33.30345703 22.85287109 37.04345703 23.19287109 C33.95457181 21.13361428 33.33409776 20.95383369 29.85595703 21.06787109 C28.59783203 21.10912109 27.33970703 21.15037109 26.04345703 21.19287109 Z M22.04345703 22.19287109 C26.04345703 23.19287109 26.04345703 23.19287109 26.04345703 23.19287109 Z M15.04345703 26.19287109 C14.38345703 27.51287109 13.72345703 28.83287109 13.04345703 30.19287109 C14.36345703 28.87287109 15.68345703 27.55287109 17.04345703 26.19287109 C16.38345703 26.19287109 15.72345703 26.19287109 15.04345703 26.19287109 Z M42.04345703 26.19287109 C43.69345703 27.84287109 45.34345703 29.49287109 47.04345703 31.19287109 C46.252278 29.19303576 46.252278 29.19303576 45.04345703 27.19287109 C44.05345703 26.86287109 43.06345703 26.53287109 42.04345703 26.19287109 Z M66.04345703 26.19287109 C65.71345703 26.85287109 65.38345703 27.51287109 65.04345703 28.19287109 C68.05558733 29.69893624 71.15628325 29.3144744 74.45751953 29.29052734 C75.18715912 29.2891124 75.91679871 29.28769745 76.66854858 29.28623962 C79.00189288 29.2806364 81.33514167 29.26808344 83.66845703 29.25537109 C85.24918481 29.25035651 86.8299141 29.24579353 88.41064453 29.24169922 C92.28828557 29.23066594 96.1658551 29.2133992 100.04345703 29.19287109 C100.37345703 28.20287109 100.70345703 27.21287109 101.04345703 26.19287109 C89.49345703 26.19287109 77.94345703 26.19287109 66.04345703 26.19287109 Z M17.23095703 32.81787109 C14.33886795 36.61139054 13.64524899 40.486052 14.04345703 45.19287109 C15.34768736 49.75767726 17.34192557 53.01784386 21.29345703 55.69287109 C22.20095703 56.18787109 23.10845703 56.68287109 24.04345703 57.19287109 C24.70345703 56.86287109 25.36345703 56.53287109 26.04345703 56.19287109 C25.71345703 55.86287109 25.38345703 55.53287109 25.04345703 55.19287109 C25.00252766 52.85989676 25.0010398 50.52581885 25.04345703 48.19287109 C31.62410219 48.06383884 31.62410219 48.06383884 34.48095703 48.94287109 C38.56313357 49.34113222 41.57851648 47.19617419 45.04345703 45.19287109 C45.0152933 38.98276777 44.0413173 35.07502819 39.64892578 30.56787109 C36.39010967 27.77686557 33.8276612 27.26416238 29.60595703 26.88037109 C24.14324498 27.35955636 21.21157252 29.10262997 17.23095703 32.81787109 Z M11.04345703 31.19287109 C12.04345703 33.19287109 12.04345703 33.19287109 12.04345703 33.19287109 Z M47.04345703 31.19287109 C48.04345703 33.19287109 48.04345703 33.19287109 48.04345703 33.19287109 Z M66.04345703 34.19287109 C66.04345703 35.18287109 66.04345703 36.17287109 66.04345703 37.19287109 C77.26345703 37.19287109 88.48345703 37.19287109 100.04345703 37.19287109 C100.04345703 36.20287109 100.04345703 35.21287109 100.04345703 34.19287109 C88.82345703 34.19287109 77.60345703 34.19287109 66.04345703 34.19287109 Z M66.04345703 43.19287109 C66.04345703 43.85287109 66.04345703 44.51287109 66.04345703 45.19287109 C77.59345703 45.19287109 89.14345703 45.19287109 101.04345703 45.19287109 C101.04345703 44.53287109 101.04345703 43.87287109 101.04345703 43.19287109 C89.49345703 43.19287109 77.94345703 43.19287109 66.04345703 43.19287109 Z M34.04345703 54.19287109 C33.71345703 55.18287109 33.38345703 56.17287109 33.04345703 57.19287109 C34.69345703 56.53287109 36.34345703 55.87287109 38.04345703 55.19287109 C36.72345703 54.86287109 35.40345703 54.53287109 34.04345703 54.19287109 Z M-6.95654297 111.19287109 C-6.95654297 114.82287109 -6.95654297 118.45287109 -6.95654297 122.19287109 C-3.36910805 124.58449437 -1.77537806 124.44588601 2.48681641 124.45166016 C3.13592484 124.45516479 3.78503326 124.45866943 4.45381165 124.46228027 C6.59838572 124.47107918 8.74262963 124.46525513 10.88720703 124.45849609 C12.37788964 124.45984328 13.86857182 124.46178426 15.35925293 124.46429443 C18.4830341 124.46724319 21.60670088 124.46295608 24.73046875 124.45361328 C28.73552303 124.44221881 32.74030926 124.44877962 36.7453537 124.46075821 C39.82340517 124.46798354 42.90139303 124.4656858 45.97944641 124.46050262 C47.4562432 124.45916799 48.93304576 124.46080735 50.40983582 124.46546173 C52.47341214 124.4705381 54.53655373 124.46280156 56.60009766 124.45166016 C57.77463501 124.45006897 58.94917236 124.44847778 60.15930176 124.44683838 C63.24055796 124.40783196 63.24055796 124.40783196 66.04345703 122.19287109 C66.04345703 118.56287109 66.04345703 114.93287109 66.04345703 111.19287109 C41.95345703 111.19287109 17.86345703 111.19287109 -6.95654297 111.19287109 Z " fill="#32AAC9" transform="translate(14.95654296875,-0.19287109375)"/>
<path d="M0 0 C0.69416016 -0.01224609 1.38832031 -0.02449219 2.10351562 -0.03710938 C3.92470901 -0.04239842 5.7453692 0.06580793 7.5625 0.1875 C9.5625 2.1875 9.5625 2.1875 10 5.125 C9.5625 8.1875 9.5625 8.1875 7.625 10.0625 C3.51276207 11.57311802 -0.10389426 11.79875 -4.4375 11.1875 C-7.5 9.6875 -7.5 9.6875 -9.4375 8.1875 C-8.40877815 0.10468543 -7.81421144 0.00721534 0 0 Z " fill="#4BB6C8" transform="translate(44.4375,111.8125)"/>
</svg>
