<?xml version="1.0" encoding="UTF-8"?>
<svg version="1.1" xmlns="http://www.w3.org/2000/svg" width="128" height="128">
<path d="M0 0 C0.18175781 0.96421875 0.36351562 1.9284375 0.55078125 2.921875 C0.80214844 4.18515625 1.05351563 5.4484375 1.3125 6.75 C1.55613281 8.00296875 1.79976562 9.2559375 2.05078125 10.546875 C2.94889056 13.814071 3.59689071 15.64925871 6 18 C12.8481965 18.97831379 18.85381544 17.03187345 25 14 C27.01882607 12.46481284 28.79956909 10.89444492 30.5625 9.07421875 C31.036875 8.71972656 31.51125 8.36523438 32 8 C32.99 8.33 33.98 8.66 35 9 C36.359375 11.80078125 36.359375 11.80078125 37.75 15.3125 C40.41540909 21.39255008 42.05450546 23.35755798 48 26 C52.15285634 30.48071342 53.15901321 33.78462519 53.25 39.8125 C53.27578125 40.82957031 53.3015625 41.84664062 53.328125 42.89453125 C53 46 53 46 51.51171875 48.62890625 C49.23836797 53.69841976 49.60050599 58.63232612 49.5625 64.125 C49.19475361 78.77706676 46.95595206 90.46974219 35.86328125 101.03515625 C20.94406254 113.2985978 3.45709939 113.12217787 -15 112 C-25.89499078 110.72014718 -35.49204592 105.72013172 -42.375 97.125 C-48.87574864 87.5942414 -51.34997024 77.45715448 -51.1953125 66.02734375 C-51.1924826 65.21882462 -51.18965271 64.41030548 -51.18673706 63.57728577 C-51.17566777 61.03053082 -51.15058958 58.4841461 -51.125 55.9375 C-51.11495302 54.19596867 -51.1058302 52.45443175 -51.09765625 50.71289062 C-51.07577213 46.47512083 -51.04133646 42.23762287 -51 38 C-49.515 37.505 -49.515 37.505 -48 37 C-45.3125 38.9375 -45.3125 38.9375 -43 41 C-42.90203125 40.09378906 -42.8040625 39.18757813 -42.703125 38.25390625 C-41.1581833 25.66795879 -38.10794779 16.9686577 -28.33203125 8.56640625 C-23.91566556 5.43692858 -18.98229317 3.8284044 -13.875 2.1875 C-13.19381104 1.96811768 -12.51262207 1.74873535 -11.81079102 1.52270508 C-7.76585096 0.30336511 -4.21788851 -0.22994719 0 0 Z " fill="#279CF3" transform="translate(65,8)"/>
<path d="M0 0 C4.2095738 2.74111783 6.38081466 5.22766425 8 10 C8.68544076 16.01014524 9.10236704 22.36588957 5.51953125 27.53125 C-0.73942761 33.58104057 -6.38948912 34 -15 34 C-15.33 45.22 -15.66 56.44 -16 68 C-35.8 68 -55.6 68 -76 68 C-76 48.2 -76 28.4 -76 8 C-51.3125 7.875 -51.3125 7.875 -43.5402832 7.88232422 C-41.50208739 7.85879595 -39.4639153 7.83306605 -37.42578125 7.8046875 C-35.84476624 7.81834351 -35.84476624 7.81834351 -34.23181152 7.83227539 C-28.91511996 7.88059262 -28.91511996 7.88059262 -24.27890015 5.67681885 C-22.75983792 3.89068674 -22.75983792 3.89068674 -21 1 C-14.57468931 -3.38089365 -6.96699195 -3.16681452 0 0 Z " fill="#B0D5FB" transform="translate(110,32)"/>
<path d="M0 0 C0.99 0.33 1.98 0.66 3 1 C2.48474397 6.28137429 0.74522883 9.57221156 -2 14 C-6.75 13.25 -6.75 13.25 -9 11 C-8.875 8.5 -8.875 8.5 -8 6 C-5.84898936 4.54286376 -4.59713506 4 -2 4 C-1.34 2.68 -0.68 1.36 0 0 Z " fill="#21AEF8" transform="translate(107,46)"/>
<path d="M0 0 C2.96175123 0.61277612 4.38058783 1.25372522 7 3 C6.38722388 5.96175123 5.74627478 7.38058783 4 10 C2.68 9.67 1.36 9.34 0 9 C-0.66 10.65 -1.32 12.3 -2 14 C-2.99 13.67 -3.98 13.34 -5 13 C-5.83861979 7.63283335 -2.92070405 4.20372761 0 0 Z " fill="#3895F0" transform="translate(95,36)"/>
<path d="M0 0 C5.94 0 11.88 0 18 0 C18 1.32 18 2.64 18 4 C12.06 4 6.12 4 0 4 C0 2.68 0 1.36 0 0 Z " fill="#259FF4" transform="translate(45,88)"/>
<path d="M0 0 C5.94 0 11.88 0 18 0 C18 1.32 18 2.64 18 4 C12.06 4 6.12 4 0 4 C0 2.68 0 1.36 0 0 Z " fill="#259FF4" transform="translate(45,68)"/>
<path d="M0 0 C5.94 0 11.88 0 18 0 C18 1.32 18 2.64 18 4 C12.06 4 6.12 4 0 4 C0 2.68 0 1.36 0 0 Z " fill="#259FF4" transform="translate(45,48)"/>
</svg>
