<?xml version="1.0" encoding="UTF-8"?>
<svg version="1.1" xmlns="http://www.w3.org/2000/svg" width="128" height="128">
<path d="M0 0 C4.17230982 0.45778419 7.16295094 2.02697099 10.75390625 4.1328125 C11.85669922 4.77476562 12.95949219 5.41671875 14.09570312 6.078125 C15.25140951 6.76023468 16.40700815 7.44252696 17.5625 8.125 C19.23795898 9.10339844 19.23795898 9.10339844 20.94726562 10.1015625 C23.18423972 11.40873345 25.41944734 12.7189323 27.65283203 14.03222656 C32.76063814 17.03506516 37.88070632 20.01679359 43 23 C42.938125 22.21625 42.87625 21.4325 42.8125 20.625 C42.9053125 19.325625 42.9053125 19.325625 43 18 C46 16 46 16 48.38671875 16.2265625 C52.95089008 17.57739348 56.78303378 19.42559309 60 23 C60.76829226 26.77916734 60.54776378 30.19946612 60 34 C60.721875 34.268125 61.44375 34.53625 62.1875 34.8125 C63.115625 35.204375 64.04375 35.59625 65 36 C65.91136719 36.30550781 66.82273437 36.61101563 67.76171875 36.92578125 C70.51610064 39.47827127 70.41933604 40.44325545 70.70703125 44.10546875 C70.76683747 46.13223511 70.80101571 48.15988397 70.8125 50.1875 C70.83763672 51.22326172 70.86277344 52.25902344 70.88867188 53.32617188 C70.94761943 55.88449579 70.98384257 58.44110605 71 61 C71.66 61.33 72.32 61.66 73 62 C73 67.28 73 72.56 73 78 C71.515 78.495 71.515 78.495 70 79 C70.05220703 80.50240234 70.05220703 80.50240234 70.10546875 82.03515625 C70.13363164 83.37758723 70.16092909 84.72003656 70.1875 86.0625 C70.23970703 88.02896484 70.23970703 88.02896484 70.29296875 90.03515625 C69.97550709 94.33147076 69.72725194 97.62202868 67 101 C63.20368692 103.89204191 59.12033009 106.15322393 54.9375 108.4375 C53.76046315 109.09505838 52.58378868 109.75326585 51.4074707 110.41210938 C44.62022761 114.18001776 37.74820739 117.77094017 30.6875 121 C29.97263428 121.33185303 29.25776855 121.66370605 28.52124023 122.00561523 C24.49273994 123.74847632 22.19111737 124.17842862 18 123 C15.7019043 121.9152832 15.7019043 121.9152832 13.32421875 120.55078125 C11.97674561 119.78374878 11.97674561 119.78374878 10.60205078 119.0012207 C9.64024902 118.44394287 8.67844727 117.88666504 7.6875 117.3125 C6.17518799 116.44661255 6.17518799 116.44661255 4.63232422 115.56323242 C1.41634465 113.71768457 -1.7927276 111.86063383 -5 110 C-6.55871826 109.09701172 -6.55871826 109.09701172 -8.14892578 108.17578125 C-13.22155529 105.23383163 -18.28573149 102.27833365 -23.33984375 99.3046875 C-26.95439439 97.18151507 -30.58786276 95.10320512 -34.25390625 93.0703125 C-35.05070801 92.62196045 -35.84750977 92.1736084 -36.66845703 91.71166992 C-38.13456224 90.88838575 -39.60783951 90.07768877 -41.08935547 89.2824707 C-43.02734375 88.18359375 -43.02734375 88.18359375 -46 86 C-46.68579102 83.36352539 -46.68579102 83.36352539 -47 81 C-46.24082275 80.56768066 -45.48164551 80.13536133 -44.69946289 79.68994141 C-41.78941909 78.03202888 -38.87999836 76.37303224 -35.97094727 74.71337891 C-34.72932019 74.00528456 -33.48746996 73.29758131 -32.24536133 72.59033203 C-31.65198975 72.25243652 -31.05861816 71.91454102 -30.44726562 71.56640625 C-29.84606903 71.22571609 -29.24487244 70.88502594 -28.62545776 70.53401184 C-27.3845793 69.82099492 -26.15148111 69.09428639 -24.92605591 68.35502625 C-21.46246119 66.2858791 -18.10216932 64.60982636 -14.31787109 63.19848633 C-9.48795618 61.22771595 -5.1638193 59.2882476 -2 55 C0.89037645 46.22520258 -0.128861 36.52923465 -0.5 27.4375 C-0.54567142 24.8901035 -0.58351117 22.34255382 -0.61328125 19.79492188 C-0.68327053 14.22719608 -0.82934065 8.66701565 -1.04382324 3.10301208 C-1 1 -1 1 0 0 Z " fill="#DFE4F0" transform="translate(51,2)"/>
<path d="M0 0 C4.11660618 1.25684661 7.64522142 2.78182386 11.34375 4.9765625 C12.83358398 5.85417236 12.83358398 5.85417236 14.35351562 6.74951172 C15.91102539 7.67787842 15.91102539 7.67787842 17.5 8.625 C19.64555999 9.89108832 21.79139236 11.15671519 23.9375 12.421875 C24.97390625 13.03482422 26.0103125 13.64777344 27.078125 14.27929688 C30.86700874 16.51058469 34.67746941 18.70198785 38.5 20.875 C39.5828125 21.49117187 40.665625 22.10734375 41.78125 22.7421875 C42.5134375 23.15726563 43.245625 23.57234375 44 24 C44 20.7 44 17.4 44 14 C47.16375915 13.00990271 48.56280065 12.80468313 51.640625 14.1796875 C52.50171875 14.73914062 53.3628125 15.29859375 54.25 15.875 C55.12140625 16.42929687 55.9928125 16.98359375 56.890625 17.5546875 C59 19 59 19 60 20 C60.07226502 21.85287502 60.0838122 23.70833878 60.0625 25.5625 C60.05347656 26.57441406 60.04445312 27.58632813 60.03515625 28.62890625 C60.02355469 29.41136719 60.01195312 30.19382812 60 31 C60.721875 31.268125 61.44375 31.53625 62.1875 31.8125 C63.115625 32.204375 64.04375 32.59625 65 33 C65.91136719 33.30550781 66.82273437 33.61101563 67.76171875 33.92578125 C70.51610064 36.47827127 70.41933604 37.44325545 70.70703125 41.10546875 C70.76683747 43.13223511 70.80101571 45.15988397 70.8125 47.1875 C70.83763672 48.22326172 70.86277344 49.25902344 70.88867188 50.32617188 C70.94761943 52.88449579 70.98384257 55.44110605 71 58 C71.66 58.33 72.32 58.66 73 59 C73 64.28 73 69.56 73 75 C71.35 75.33 69.7 75.66 68 76 C68 80.62 68 85.24 68 90 C64.41440824 89.10360206 62.15394339 88.11761713 58.984375 86.33203125 C57.99228027 85.77539795 57.00018555 85.21876465 55.97802734 84.64526367 C54.91277832 84.04045166 53.8475293 83.43563965 52.75 82.8125 C51.64479004 82.18899658 50.53958008 81.56549316 49.40087891 80.9230957 C26.02344692 67.69468795 26.02344692 67.69468795 18.08129883 62.72583008 C15.65751783 61.36827459 13.56786364 60.4429462 10.98706055 59.5144043 C6.58823709 57.74959662 2.76875024 55.97868854 0 52 C-2.51703086 43.49391276 -1.39994868 34.17399906 -0.9375 25.4375 C-0.86220555 22.97350945 -0.79377363 20.50929901 -0.73242188 18.04492188 C-0.5676317 12.02513016 -0.31720605 6.01358406 0 0 Z " fill="#7489F8" transform="translate(51,5)"/>
<path d="M0 0 C0.78439453 0.41878418 1.56878906 0.83756836 2.37695312 1.26904297 C3.47652344 1.83880859 4.57609375 2.40857422 5.70898438 2.99560547 C6.85753906 3.62208984 8.00609375 4.24857422 9.18945312 4.89404297 C9.78693359 5.21888672 10.38441406 5.54373047 11 5.87841797 C12.46032448 6.67283448 13.91882804 7.47059673 15.37695312 8.26904297 C15.37695312 8.92904297 15.37695312 9.58904297 15.37695312 10.26904297 C16.03695312 10.33091797 16.69695312 10.39279297 17.37695312 10.45654297 C21.49862062 11.57282792 25.03445814 13.60665863 28.37695312 16.26904297 C28.37695312 16.92904297 28.37695312 17.58904297 28.37695312 18.26904297 C29.11067139 18.38691162 29.84438965 18.50478027 30.6003418 18.6262207 C33.37692561 19.2690366 35.33607897 20.15228715 37.80273438 21.55419922 C38.99672852 22.22612305 38.99672852 22.22612305 40.21484375 22.91162109 C41.03146484 23.38019531 41.84808594 23.84876953 42.68945312 24.33154297 C43.52541016 24.80398437 44.36136719 25.27642578 45.22265625 25.76318359 C47.27764578 26.92572053 49.3288305 28.09446387 51.37695312 29.26904297 C51.37695312 29.92904297 51.37695312 30.58904297 51.37695312 31.26904297 C52.11945313 31.35154297 52.86195312 31.43404297 53.62695312 31.51904297 C56.90448566 32.41291548 58.09254325 33.82843413 60.37695312 36.26904297 C57.70852684 37.98821604 55.01482214 39.66307675 52.31445312 41.33154297 C51.56228516 41.816875 50.81011719 42.30220703 50.03515625 42.80224609 C43.65429688 46.69705636 43.65429688 46.69705636 39.31835938 46.07763672 C38.34769531 45.81080078 37.37703125 45.54396484 36.37695312 45.26904297 C37.03695312 46.58904297 37.69695312 47.90904297 38.37695312 49.26904297 C34.25094191 48.68315312 31.39606902 47.31763678 27.84570312 45.16357422 C26.79382813 44.53273926 25.74195313 43.9019043 24.65820312 43.25195312 C23.57539062 42.59759277 22.49257812 41.94323242 21.37695312 41.26904297 C19.28521941 40.04034357 17.19148776 38.81503867 15.09570312 37.59326172 C11.95452749 35.75630536 8.81339297 33.91929827 5.67382812 32.07958984 C4.15015625 31.18916992 4.15015625 31.18916992 2.59570312 30.28076172 C1.68755859 29.74926514 0.77941406 29.21776855 -0.15625 28.67016602 C-2.28351672 27.46189368 -4.42245864 26.33627691 -6.62304688 25.26904297 C-6.62304688 24.60904297 -6.62304688 23.94904297 -6.62304688 23.26904297 C-7.35394531 23.16462891 -8.08484375 23.06021484 -8.83789062 22.95263672 C-11.86448279 22.2097845 -13.65875567 21.12886054 -16.18554688 19.33154297 C-18.92797031 17.39711257 -21.58219974 15.69637938 -24.62304688 14.26904297 C-24.62304688 13.60904297 -24.62304688 12.94904297 -24.62304688 12.26904297 C-21.24640784 9.74176865 -17.55550075 7.6778353 -13.93554688 5.51904297 C-12.92814453 4.89126953 -11.92074219 4.26349609 -10.8828125 3.61669922 C-9.90634766 3.03275391 -8.92988281 2.44880859 -7.92382812 1.84716797 C-7.02833252 1.30479492 -6.13283691 0.76242188 -5.21020508 0.20361328 C-2.62304688 -0.73095703 -2.62304688 -0.73095703 0 0 Z " fill="#6B6F81" transform="translate(52.623046875,60.73095703125)"/>
<path d="M0 0 C4.11660618 1.25684661 7.64522142 2.78182386 11.34375 4.9765625 C12.83358398 5.85417236 12.83358398 5.85417236 14.35351562 6.74951172 C15.91102539 7.67787842 15.91102539 7.67787842 17.5 8.625 C19.64555999 9.89108832 21.79139236 11.15671519 23.9375 12.421875 C24.97390625 13.03482422 26.0103125 13.64777344 27.078125 14.27929688 C30.86700874 16.51058469 34.67746941 18.70198785 38.5 20.875 C39.5828125 21.49117187 40.665625 22.10734375 41.78125 22.7421875 C42.5134375 23.15726563 43.245625 23.57234375 44 24 C43.505 25.485 43.505 25.485 43 27 C39.51669878 24.99233917 36.03363946 22.98425934 32.55078125 20.97583008 C30.79959985 19.96609926 29.04824002 18.95667793 27.296875 17.94726562 C26.1625 17.29306641 25.028125 16.63886719 23.859375 15.96484375 C22.72306641 15.30983887 21.58675781 14.65483398 20.41601562 13.97998047 C16.07332228 11.46288191 11.75152725 8.91081573 7.43457031 6.34985352 C4.97921173 4.89114858 4.97921173 4.89114858 2 4 C-0.91417421 28.87485291 -0.91417421 28.87485291 4.95166016 52.24755859 C10.21692832 57.13250543 16.66937353 59.33595723 23.37841797 61.61962891 C29.31596251 63.88273237 34.61996537 67.164936 40.05795288 70.42050171 C42.92840923 72.12582497 45.83657608 73.76154439 48.7421875 75.40625 C54.20907722 78.5282769 59.61505108 81.73883467 65 85 C65 81.04 65 77.08 65 73 C63.35 72.34 61.7 71.68 60 71 C59.01 70.505 59.01 70.505 58 70 C58 65.05 58 60.1 58 55 C64.82293932 53.63541214 67.0100759 55.72550816 73 59 C73 64.28 73 69.56 73 75 C71.35 75.33 69.7 75.66 68 76 C68 80.62 68 85.24 68 90 C64.41440824 89.10360206 62.15394339 88.11761713 58.984375 86.33203125 C57.99228027 85.77539795 57.00018555 85.21876465 55.97802734 84.64526367 C54.91277832 84.04045166 53.8475293 83.43563965 52.75 82.8125 C51.64479004 82.18899658 50.53958008 81.56549316 49.40087891 80.9230957 C26.02344692 67.69468795 26.02344692 67.69468795 18.08129883 62.72583008 C15.65751783 61.36827459 13.56786364 60.4429462 10.98706055 59.5144043 C6.58823709 57.74959662 2.76875024 55.97868854 0 52 C-2.51703086 43.49391276 -1.39994868 34.17399906 -0.9375 25.4375 C-0.86220555 22.97350945 -0.79377363 20.50929901 -0.73242188 18.04492188 C-0.5676317 12.02513016 -0.31720605 6.01358406 0 0 Z " fill="#65687B" transform="translate(51,5)"/>
<path d="M0 0 C1.67542976 0.28604898 3.34385343 0.61781233 5 1 C5.33 1.99 5.66 2.98 6 4 C5.01 5.485 5.01 5.485 4 7 C7.04134491 5.33075929 7.04134491 5.33075929 8 3 C10.98100384 4.49050192 13.48696394 5.97392788 15 9 C14.01 9.66 13.02 10.32 12 11 C13.97536745 10.65213292 13.97536745 10.65213292 16 10 C16.33 9.34 16.66 8.68 17 8 C19 9 19 9 22 11 C22 11.66 22 12.32 22 13 C23.65 12.67 25.3 12.34 27 12 C27 11.01 27 10.02 27 9 C30.66881155 9.70554068 33.70450534 11.27735506 37 13 C37 13.66 37 14.32 37 15 C37.7425 15.0825 38.485 15.165 39.25 15.25 C42.52753253 16.14387251 43.71559013 17.55939116 46 20 C43.33157372 21.71917307 40.63786901 23.39403378 37.9375 25.0625 C36.80924805 25.79049805 36.80924805 25.79049805 35.65820312 26.53320312 C29.27734375 30.42801339 29.27734375 30.42801339 24.94140625 29.80859375 C23.97074219 29.54175781 23.00007813 29.27492188 22 29 C22.66 30.32 23.32 31.64 24 33 C19.68690287 32.41221144 16.65479388 30.85255664 12.9375 28.625 C11.91527344 28.01914063 10.89304687 27.41328125 9.83984375 26.7890625 C7.45822689 25.28867664 5.2156623 23.73214847 3 22 C3.598125 21.71125 4.19625 21.4225 4.8125 21.125 C7.19327792 19.95257974 7.19327792 19.95257974 10 18 C12.32108669 17.29187186 14.65377147 16.61975848 17 16 C15.68 15.67 14.36 15.34 13 15 C13 14.34 13 13.68 13 13 C11.35 13 9.7 13 8 13 C8 13.66 8 14.32 8 15 C8.66 15.33 9.32 15.66 10 16 C9.01 16 8.02 16 7 16 C7 15.34 7 14.68 7 14 C5.35 14 3.7 14 2 14 C2 13.34 2 12.68 2 12 C0.35 12 -1.3 12 -3 12 C-3 10.68 -3 9.36 -3 8 C-0.69 8.33 1.62 8.66 4 9 C2.68 7.68 1.36 6.36 0 5 C0.99 4.34 1.98 3.68 3 3 C1.68 2.34 0.36 1.68 -1 1 C-0.67 0.67 -0.34 0.34 0 0 Z " fill="#787B8C" transform="translate(67,77)"/>
<path d="M0 0 C0.76634766 0.40976074 1.53269531 0.81952148 2.32226562 1.24169922 C3.13308594 1.66708984 3.94390625 2.09248047 4.77929688 2.53076172 C5.94525391 3.19205078 5.94525391 3.19205078 7.13476562 3.86669922 C7.92496094 4.31271484 8.71515625 4.75873047 9.52929688 5.21826172 C10.12097656 5.55599609 10.71265625 5.89373047 11.32226562 6.24169922 C10.99226563 7.23169922 10.66226563 8.22169922 10.32226562 9.24169922 C6.94726562 10.36669922 6.94726562 10.36669922 3.32226562 11.24169922 C2.33226563 11.57169922 1.34226562 11.90169922 0.32226562 12.24169922 C3.41036258 14.00632605 4.55538698 14.24169922 8.32226562 14.24169922 C7.82726563 13.25169922 7.82726563 13.25169922 7.32226562 12.24169922 C8.31226563 12.24169922 9.30226562 12.24169922 10.32226562 12.24169922 C10.32226562 12.90169922 10.32226562 13.56169922 10.32226562 14.24169922 C10.98226562 14.57169922 11.64226562 14.90169922 12.32226562 15.24169922 C11.33226562 16.23169922 10.34226563 17.22169922 9.32226562 18.24169922 C10.31226563 18.24169922 11.30226562 18.24169922 12.32226562 18.24169922 C11.66226563 20.22169922 11.00226562 22.20169922 10.32226562 24.24169922 C7.16466712 24.24169922 5.13042 23.6457764 2.32226562 22.24169922 C2.65226562 21.58169922 2.98226562 20.92169922 3.32226562 20.24169922 C2.33226563 20.90169922 1.34226562 21.56169922 0.32226562 22.24169922 C-2.97832503 23.89199455 -6.12490364 23.87802711 -9.67773438 23.24169922 C-13.22287351 21.5417539 -16.41710289 19.42786487 -19.67773438 17.24169922 C-20.60199219 16.72220703 -21.52625 16.20271484 -22.47851562 15.66748047 C-23.20425781 15.19697266 -23.93 14.72646484 -24.67773438 14.24169922 C-24.67773438 13.58169922 -24.67773438 12.92169922 -24.67773438 12.24169922 C-21.30109534 9.7144249 -17.61018825 7.65049155 -13.99023438 5.49169922 C-12.98283203 4.86392578 -11.97542969 4.23615234 -10.9375 3.58935547 C-9.96103516 3.00541016 -8.98457031 2.42146484 -7.97851562 1.81982422 C-7.08302002 1.27745117 -6.18752441 0.73507813 -5.26489258 0.17626953 C-2.67773438 -0.75830078 -2.67773438 -0.75830078 0 0 Z " fill="#797D8E" transform="translate(52.677734375,60.75830078125)"/>
<path d="M0 0 C3.39215971 1.69258885 6.62996611 3.60521676 9.875 5.5625 C10.75414063 6.08263672 11.63328125 6.60277344 12.5390625 7.13867188 C14.6978235 8.41750312 16.85107726 9.70472839 19 11 C17.76958112 14.69125665 16.62364582 15.22818417 13.375 17.25 C12.53710938 17.79140625 11.69921875 18.3328125 10.8359375 18.890625 C6.99489126 20.39318303 4.98817117 20.05680246 1 19 C-2.06676201 17.53095172 -4.93014979 15.79990646 -7.8125 14 C-9.31890875 13.08316627 -10.8254145 12.16649189 -12.33203125 11.25 C-12.98921143 10.84265625 -13.6463916 10.4353125 -14.32348633 10.015625 C-16.02654875 8.95300312 -16.02654875 8.95300312 -18 8 C-16.71097128 4.13291383 -15.32092886 3.70070538 -11.8125 1.75 C-10.87019531 1.20859375 -9.92789063 0.6671875 -8.95703125 0.109375 C-5.23490788 -1.28703588 -3.80297493 -1.19156838 0 0 Z " fill="#CAD0DD" transform="translate(46,88)"/>
<path d="M0 0 C3.98859862 1.32953287 7.45156857 3.41680143 10.8125 5.9375 C12.2366906 8.78588121 11.98245508 11.26537908 12 14.4375 C12.01417969 15.6028125 12.02835938 16.768125 12.04296875 17.96875 C11.8125 20.9375 11.8125 20.9375 9.8125 22.9375 C4.85637431 22.9375 0.63878362 20.91569433 -3.3828125 18.16015625 C-6.59287965 14.20663199 -5.9825118 9.87281071 -5.796875 4.984375 C-5.59578125 3.97890625 -5.3946875 2.9734375 -5.1875 1.9375 C-2.1875 -0.0625 -2.1875 -0.0625 0 0 Z " fill="#84C987" transform="translate(22.1875,3.0625)"/>
<path d="M0 0 C1.796875 0.2421875 1.796875 0.2421875 4 1 C5.27617188 1.43699219 5.27617188 1.43699219 6.578125 1.8828125 C9.6646615 3.31778122 11.69851282 4.46577816 14 7 C14.89084252 12.13039425 14.58985745 16.84857826 14 22 C10.90684525 23.66815476 9.54921582 24.15342466 6.10546875 23.19140625 C2.82679309 21.36114153 0.47834276 19.8433042 -2 17 C-3.07859143 11.83354705 -2.94127581 7.22439664 -2 2 C-1.34 1.34 -0.68 0.68 0 0 Z " fill="#DEB2A0" transform="translate(32,31)"/>
<path d="M0 0 C1.98036486 0.97674104 3.95926133 1.95645982 5.9375 2.9375 C7.03964844 3.48277344 8.14179688 4.02804688 9.27734375 4.58984375 C12 6 12 6 13 7 C13.07313567 9.53049402 13.09247527 12.03304837 13.0625 14.5625 C13.05798828 15.27341797 13.05347656 15.98433594 13.04882812 16.71679688 C13.03700864 18.47790013 13.01907263 20.23896036 13 22 C10.828125 23.17578125 10.828125 23.17578125 8 24 C5.359375 22.91796875 5.359375 22.91796875 2.75 21.1875 C1.87859375 20.62417969 1.0071875 20.06085937 0.109375 19.48046875 C-2 18 -2 18 -3 17 C-3.15313272 14.5057035 -3.23156517 12.05811507 -3.25 9.5625 C-3.270625 8.86833984 -3.29125 8.17417969 -3.3125 7.45898438 C-3.328125 5.44140625 -3.328125 5.44140625 -3 2 C-2.01 1.34 -1.02 0.68 0 0 Z " fill="#EEAF4A" transform="translate(13,36)"/>
<path d="M0 0 C5.01832715 1.79153261 9.55075652 4.40964051 14.1875 7 C15.00669922 7.45117188 15.82589844 7.90234375 16.66992188 8.3671875 C17.45302734 8.80289063 18.23613281 9.23859375 19.04296875 9.6875 C19.75477295 10.08324219 20.46657715 10.47898437 21.19995117 10.88671875 C23 12 23 12 25 14 C26.010625 14.433125 27.02125 14.86625 28.0625 15.3125 C31 17 31 17 31.875 19.6875 C31.91625 20.450625 31.9575 21.21375 32 22 C29.64282126 22.82422508 28.42200179 23.15185353 26.03515625 22.29296875 C25.38417969 21.92816406 24.73320313 21.56335938 24.0625 21.1875 C21.9099131 20.00207938 19.8560428 18.94393974 17.5625 18.05078125 C14.82699054 16.92905557 12.4507331 15.55377626 9.9375 14 C2.51075816 9.40499703 2.51075816 9.40499703 -6 8 C-4.68 9.32 -3.36 10.64 -2 12 C-6.50802601 10.74194623 -9.4912812 9.09592835 -13 6 C-12.67 5.01 -12.34 4.02 -12 3 C-7.80530429 3.59924224 -3.99000166 4.57499941 0 6 C0.33 5.01 0.66 4.02 1 3 C1.66 3.33 2.32 3.66 3 4 C3 3.34 3 2.68 3 2 C2.01 1.67 1.02 1.34 0 1 C0 0.67 0 0.34 0 0 Z " fill="#9CA6EA" transform="translate(71,45)"/>
<path d="M0 0 C5.05126517 0.47355611 9.45661524 2.8978369 14 5 C14 10.28 14 15.56 14 21 C9.17690982 22.20577254 8.40119822 21.4840323 4.25 19.0625 C3.26515625 18.49660156 2.2803125 17.93070313 1.265625 17.34765625 C0.51796875 16.90292969 -0.2296875 16.45820312 -1 16 C-1.02685095 13.52076199 -1.04676547 11.0418116 -1.0625 8.5625 C-1.07506836 7.50192383 -1.07506836 7.50192383 -1.08789062 6.41992188 C-1.09653588 4.61306441 -1.05220011 2.80612397 -1 1 C-0.67 0.67 -0.34 0.34 0 0 Z " fill="#EC5B74" transform="translate(110,59)"/>
<path d="M0 0 C2.35620117 1.28613281 2.35620117 1.28613281 5.35620117 3.28613281 C5.35620117 3.94613281 5.35620117 4.60613281 5.35620117 5.28613281 C2.70881201 6.74676132 1.46171783 7.28613281 -1.64379883 7.28613281 C-1.31379883 6.29613281 -0.98379883 5.30613281 -0.64379883 4.28613281 C0.01620117 4.28613281 0.67620117 4.28613281 1.35620117 4.28613281 C1.35620117 3.62613281 1.35620117 2.96613281 1.35620117 2.28613281 C0.36620117 2.28613281 -0.62379883 2.28613281 -1.64379883 2.28613281 C-1.64379883 2.94613281 -1.64379883 3.60613281 -1.64379883 4.28613281 C-2.96379883 4.61613281 -4.28379883 4.94613281 -5.64379883 5.28613281 C-4.98379883 5.94613281 -4.32379883 6.60613281 -3.64379883 7.28613281 C-4.63379883 8.27613281 -5.62379883 9.26613281 -6.64379883 10.28613281 C-5.32379883 10.94613281 -4.00379883 11.60613281 -2.64379883 12.28613281 C-5.58100391 13.80912804 -8.56066373 15.08713583 -11.64379883 16.28613281 C-10.00906367 19.41087908 -10.00906367 19.41087908 -7.51879883 19.97363281 C-6.90004883 20.07675781 -6.28129883 20.17988281 -5.64379883 20.28613281 C-5.97379883 21.27613281 -6.30379883 22.26613281 -6.64379883 23.28613281 C-10.54552398 22.72874351 -13.0053898 21.62545332 -16.20629883 19.34863281 C-18.94872226 17.41420242 -21.60295169 15.71346922 -24.64379883 14.28613281 C-24.64379883 13.62613281 -24.64379883 12.96613281 -24.64379883 12.28613281 C-21.26715979 9.75885849 -17.57625271 7.69492514 -13.95629883 5.53613281 C-12.94889648 4.90835938 -11.94149414 4.28058594 -10.90356445 3.63378906 C-9.92709961 3.04984375 -8.95063477 2.46589844 -7.94458008 1.86425781 C-7.04908447 1.32188477 -6.15358887 0.77951172 -5.23095703 0.22070312 C-2.64379883 -0.71386719 -2.64379883 -0.71386719 0 0 Z " fill="#6B6E80" transform="translate(52.643798828125,60.7138671875)"/>
<path d="M0 0 C1.67542976 0.28604898 3.34385343 0.61781233 5 1 C5.33 1.99 5.66 2.98 6 4 C5.01 5.485 5.01 5.485 4 7 C7.04134491 5.33075929 7.04134491 5.33075929 8 3 C10.98100384 4.49050192 13.48696394 5.97392788 15 9 C14.01 9.66 13.02 10.32 12 11 C13.97536745 10.65213292 13.97536745 10.65213292 16 10 C16.33 9.34 16.66 8.68 17 8 C19 9 19 9 22 11 C22 11.66 22 12.32 22 13 C23.65 12.67 25.3 12.34 27 12 C27 11.01 27 10.02 27 9 C29.16874252 9.50603992 30.99967627 9.99983813 33 11 C32.67 11.99 32.34 12.98 32 14 C31.01 14 30.02 14 29 14 C28.67 14.66 28.34 15.32 28 16 C28.99 16 29.98 16 31 16 C31.495 17.485 31.495 17.485 32 19 C29.69 18.67 27.38 18.34 25 18 C25 18.66 25 19.32 25 20 C24.01 20 23.02 20 22 20 C22 19.34 22 18.68 22 18 C19.03 17.01 16.06 16.02 13 15 C13 14.34 13 13.68 13 13 C11.35 13 9.7 13 8 13 C8 13.66 8 14.32 8 15 C8.66 15.33 9.32 15.66 10 16 C9.01 16 8.02 16 7 16 C7 15.34 7 14.68 7 14 C5.35 14 3.7 14 2 14 C2 13.34 2 12.68 2 12 C0.35 12 -1.3 12 -3 12 C-3 10.68 -3 9.36 -3 8 C-0.69 8.33 1.62 8.66 4 9 C2.68 7.68 1.36 6.36 0 5 C0.99 4.34 1.98 3.68 3 3 C1.68 2.34 0.36 1.68 -1 1 C-0.67 0.67 -0.34 0.34 0 0 Z " fill="#808394" transform="translate(67,77)"/>
<path d="M0 0 C0.33 0.66 0.66 1.32 1 2 C2.2684375 2.4021875 2.2684375 2.4021875 3.5625 2.8125 C7.78764399 4.2720952 11.61341063 6.03462822 15 9 C15.5 11.8125 15.5 11.8125 15 14 C14.01 14.33 13.02 14.66 12 15 C11.608125 14.54625 11.21625 14.0925 10.8125 13.625 C8.64133759 11.6784406 6.7403316 10.99648422 4 10 C2.72630356 9.46510046 1.45552937 8.92319856 0.1875 8.375 C-0.864375 7.92125 -1.91625 7.4675 -3 7 C-2.67 8.32 -2.34 9.64 -2 11 C-3.32 10.67 -4.64 10.34 -6 10 C-6.33 10.66 -6.66 11.32 -7 12 C-5.02 12.66 -3.04 13.32 -1 14 C-1.33 14.99 -1.66 15.98 -2 17 C-5.3 15.35 -8.6 13.7 -12 12 C-11.67 10.68 -11.34 9.36 -11 8 C-11 7.01 -11 6.02 -11 5 C-11.66 4.34 -12.32 3.68 -13 3 C-11.3125 2.3125 -11.3125 2.3125 -9 2 C-6.25 3.4375 -6.25 3.4375 -4 5 C-4 4.34 -4 3.68 -4 3 C-5.2065625 2.566875 -5.2065625 2.566875 -6.4375 2.125 C-9 1 -9 1 -10 -1 C-5.97215907 -2.15081169 -3.71901707 -1.96281457 0 0 Z " fill="#A0AFF9" transform="translate(69,26)"/>
<path d="M0 0 C0.33 0.66 0.66 1.32 1 2 C1.680625 2.103125 2.36125 2.20625 3.0625 2.3125 C7.19963667 3.28076603 10.67863137 5.35444335 14 8 C14 8.66 14 9.32 14 10 C15.08861328 10.16822266 15.08861328 10.16822266 16.19921875 10.33984375 C19.12563993 11.02961387 21.22287809 12.05510814 23.8125 13.5625 C24.60269531 14.01753906 25.39289063 14.47257812 26.20703125 14.94140625 C26.79871094 15.29074219 27.39039062 15.64007813 28 16 C27.67 16.99 27.34 17.98 27 19 C27.33 19.66 27.66 20.32 28 21 C24.25 22.125 24.25 22.125 22 21 C22 20.34 22 19.68 22 19 C20.05396726 18.40929986 20.05396726 18.40929986 18 18 C17.67 18.33 17.34 18.66 17 19 C15.33985384 19.36442233 13.67293936 19.69972883 12 20 C11.67 19.34 11.34 18.68 11 18 C11.66 17.34 12.32 16.68 13 16 C11.35 14.68 9.7 13.36 8 12 C7.67 12.99 7.34 13.98 7 15 C6.01 15 5.02 15 4 15 C4.33 12.36 4.66 9.72 5 7 C3.35 7 1.7 7 0 7 C0 6.01 0 5.02 0 4 C-0.66 3.34 -1.32 2.68 -2 2 C-1.34 2 -0.68 2 0 2 C0 1.34 0 0.68 0 0 Z " fill="#7C7F90" transform="translate(67,69)"/>
<path d="M0 0 C4.875 0.875 4.875 0.875 6 2 C6.07226502 3.85287502 6.0838122 5.70833878 6.0625 7.5625 C6.05347656 8.57441406 6.04445313 9.58632813 6.03515625 10.62890625 C6.02355469 11.41136719 6.01195313 12.19382812 6 13 C6.721875 13.268125 7.44375 13.53625 8.1875 13.8125 C9.115625 14.204375 10.04375 14.59625 11 15 C11.92167969 15.30550781 12.84335938 15.61101563 13.79296875 15.92578125 C16.54253848 18.50989015 16.36313893 19.42115038 16.48828125 23.10546875 C16.4550367 25.13338658 16.39539629 27.16100447 16.3125 29.1875 C16.28994141 30.22326172 16.26738281 31.25902344 16.24414062 32.32617188 C16.18516846 34.88556404 16.10292567 37.44205951 16 40 C15.34 40 14.68 40 14 40 C14 33.4 14 26.8 14 20 C8.59535312 17.4144727 8.59535312 17.4144727 3 17.6875 C2.34 17.790625 1.68 17.89375 1 18 C-1.25 16.0625 -1.25 16.0625 -3 14 C-2.01 14 -1.02 14 0 14 C0.19627391 12.41773035 0.38165538 10.83410729 0.5625 9.25 C0.66691406 8.36828125 0.77132812 7.4865625 0.87890625 6.578125 C0.99456676 4.11567549 0.73638695 2.33461936 0 0 Z " fill="#6B7EF7" transform="translate(105,23)"/>
<path d="M0 0 C0.99 0.33 1.98 0.66 3 1 C3.33 2.98 3.66 4.96 4 7 C6.475 7.495 6.475 7.495 9 8 C8.67 8.66 8.34 9.32 8 10 C6.35 10 4.7 10 3 10 C4.32 10.66 5.64 11.32 7 12 C6.01 12.99 5.02 13.98 4 15 C5.32 15.99 6.64 16.98 8 18 C3.25 19.125 3.25 19.125 1 18 C0.67 18.99 0.34 19.98 0 21 C-1.32 20.67 -2.64 20.34 -4 20 C-4 18 -4 18 -2 16 C-0.97695052 14.34738161 0.02616054 12.68208635 1 11 C0.01 11 -0.98 11 -2 11 C-1.67 9.02 -1.34 7.04 -1 5 C-1.99 5.495 -1.99 5.495 -3 6 C-2.67 6.66 -2.34 7.32 -2 8 C-3.625 8.75 -3.625 8.75 -6 9 C-9.25 7.0625 -9.25 7.0625 -12 5 C-8.49235307 3.03571772 -4.85305811 2.09048815 -1 1 C-0.67 0.67 -0.34 0.34 0 0 Z " fill="#636679" transform="translate(64,68)"/>
<path d="M0 0 C4.93562022 1.54500293 9.47816658 3.05962986 13 7 C13.4375 10.8125 13.4375 10.8125 13 14 C11.88497867 12.88497867 10.78471397 11.75242106 9.75 10.5625 C7.41339698 8.47624731 4.82482283 7.31825065 2 6 C2.62211478 9.11057388 3.50116412 10.66257902 6.13671875 12.4453125 C8.40013413 13.68894732 10.6751284 14.87583369 13 16 C13 17.32 13 18.64 13 20 C8.56615254 19.67557214 4.92233169 18.63185997 1.34765625 16.0078125 C-1.68898732 11.48365367 -0.44352444 5.20261205 0 0 Z " fill="#77B279" transform="translate(17,5)"/>
<path d="M0 0 C1.98036486 0.97674104 3.95926133 1.95645982 5.9375 2.9375 C7.03964844 3.48277344 8.14179688 4.02804688 9.27734375 4.58984375 C12 6 12 6 13 7 C13.07313567 9.53049402 13.09247527 12.03304837 13.0625 14.5625 C13.05798828 15.27341797 13.05347656 15.98433594 13.04882812 16.71679688 C13.03700864 18.47790013 13.01907263 20.23896036 13 22 C11.35 22.66 9.7 23.32 8 24 C7.01 23.01 6.02 22.02 5 21 C6.32 21.33 7.64 21.66 9 22 C8.01625809 18.69104995 7.4116891 17.27789014 4.5 15.3125 C3.675 14.879375 2.85 14.44625 2 14 C1.34 13.34 0.68 12.68 0 12 C-0.66 11.67 -1.32 11.34 -2 11 C-1.67 10.01 -1.34 9.02 -1 8 C4.75 10.75 4.75 10.75 7 13 C7.66 13.33 8.32 13.66 9 14 C8.9307652 11.60080146 8.9307652 11.60080146 8 9 C5.4952741 7.09497396 5.4952741 7.09497396 2.4375 5.6875 C1.42558594 5.17574219 0.41367188 4.66398437 -0.62890625 4.13671875 C-1.41136719 3.76160156 -2.19382812 3.38648438 -3 3 C-2.01 2.01 -1.02 1.02 0 0 Z " fill="#F4C064" transform="translate(13,36)"/>
<path d="M0 0 C0.66 0 1.32 0 2 0 C1.81005859 1.79516602 1.81005859 1.79516602 1 4 C-1.14208984 5.65991211 -1.14208984 5.65991211 -3.9609375 7.27734375 C-4.99089844 7.87353516 -6.02085938 8.46972656 -7.08203125 9.08398438 C-8.16871094 9.69564453 -9.25539063 10.30730469 -10.375 10.9375 C-11.42300781 11.54529297 -12.47101563 12.15308594 -13.55078125 12.77929688 C-31.966655 23.330295 -31.966655 23.330295 -36.31005859 22.62475586 C-37.14657959 22.31550171 -37.14657959 22.31550171 -38 22 C-37.09121094 21.45472656 -36.18242188 20.90945312 -35.24609375 20.34765625 C-34.64603516 19.98752441 -34.04597656 19.62739258 -33.42773438 19.25634766 C-32.08693212 18.45206367 -30.74577896 17.64836442 -29.40429688 16.84521484 C-25.8979217 14.74482096 -22.3975038 12.63576555 -18.91015625 10.50390625 C-18.254104 10.10486084 -17.59805176 9.70581543 -16.92211914 9.29467773 C-15.6755881 8.53611934 -14.43114485 7.77411524 -13.18920898 7.00805664 C-9.22974981 4.60589277 -5.25818975 2.77779422 -1 1 C-0.67 0.67 -0.34 0.34 0 0 Z " fill="#CED3E0" transform="translate(115,100)"/>
<path d="M0 0 C0 1.32 0 2.64 0 4 C-0.66 4 -1.32 4 -2 4 C-2 3.34 -2 2.68 -2 2 C-3.65 2.33 -5.3 2.66 -7 3 C-4.55420823 5.30925485 -3.40557866 5.99001814 0.015625 6.07421875 C1.08296875 5.94660156 2.1503125 5.81898437 3.25 5.6875 C4.32765625 5.56761719 5.4053125 5.44773437 6.515625 5.32421875 C7.74539062 5.16373047 7.74539062 5.16373047 9 5 C9 6.32 9 7.64 9 9 C6.69 8.67 4.38 8.34 2 8 C2.433125 8.86625 2.433125 8.86625 2.875 9.75 C3.91666667 11.83333333 4.95833333 13.91666667 6 16 C1.68690287 15.41221144 -1.34520612 13.85255664 -5.0625 11.625 C-6.08472656 11.01914063 -7.10695313 10.41328125 -8.16015625 9.7890625 C-10.54177311 8.28867664 -12.7843377 6.73214847 -15 5 C-14.401875 4.71125 -13.80375 4.4225 -13.1875 4.125 C-10.80672208 2.95257974 -10.80672208 2.95257974 -8 1 C-5.29120665 -0.35439668 -2.99066732 -0.06501451 0 0 Z " fill="#7E8293" transform="translate(85,94)"/>
<path d="M0 0 C1.796875 0.2421875 1.796875 0.2421875 4 1 C5.27617188 1.43699219 5.27617188 1.43699219 6.578125 1.8828125 C9.6646615 3.31778122 11.69851282 4.46577816 14 7 C14.89084252 12.13039425 14.58985745 16.84857826 14 22 C12.35 22.66 10.7 23.32 9 24 C9.33 21.69 9.66 19.38 10 17 C8.68 17 7.36 17 6 17 C6.66 15.68 7.32 14.36 8 13 C8.66 13.66 9.32 14.32 10 15 C10.36049676 12.63435763 10.36049676 12.63435763 10 10 C8.15292415 8.16299009 8.15292415 8.16299009 5.6875 6.8125 C4.88699219 6.32394531 4.08648437 5.83539063 3.26171875 5.33203125 C2.51535156 4.89246094 1.76898438 4.45289063 1 4 C0.01 3.34 -0.98 2.68 -2 2 C-1.34 1.34 -0.68 0.68 0 0 Z " fill="#E9CABE" transform="translate(32,31)"/>
<path d="M0 0 C0.33 0.66 0.66 1.32 1 2 C2.2684375 2.4021875 2.2684375 2.4021875 3.5625 2.8125 C7.78764399 4.2720952 11.61341063 6.03462822 15 9 C15.5 11.8125 15.5 11.8125 15 14 C14.01 14.33 13.02 14.66 12 15 C11.54625 14.505 11.0925 14.01 10.625 13.5 C9.12364481 11.77390663 9.12364481 11.77390663 7 12 C6.938125 11.401875 6.87625 10.80375 6.8125 10.1875 C5.63365068 7.01367491 4.01955491 6.44413495 1 5 C-0.175625 4.690625 -1.35125 4.38125 -2.5625 4.0625 C-6.1638817 2.94934566 -7.62326475 1.8520823 -10 -1 C-5.97215907 -2.15081169 -3.71901707 -1.96281457 0 0 Z " fill="#9B9EEE" transform="translate(69,26)"/>
<path d="M0 0 C5.75 1.75 5.75 1.75 8 4 C9.5159375 4.6496875 9.5159375 4.6496875 11.0625 5.3125 C14 7 14 7 14.875 9.6875 C14.936875 10.8321875 14.936875 10.8321875 15 12 C12.59494448 12.85010911 11.39944025 13.14566919 8.96484375 12.2578125 C8.29582031 11.88398437 7.62679687 11.51015625 6.9375 11.125 C4.58253537 9.8322555 2.57019176 8.85673059 0 8 C0.33 6.02 0.66 4.04 1 2 C0.34 1.67 -0.32 1.34 -1 1 C-0.67 0.67 -0.34 0.34 0 0 Z " fill="#A1AAE7" transform="translate(88,55)"/>
<path d="M0 0 C16.13689482 1.41944908 16.13689482 1.41944908 22 6 C22 6.99 22 7.98 22 9 C19.84035715 8.53721939 18.03219833 8.01661849 16.0625 7 C13.12989787 5.5781323 10.25330922 5 7 5 C8.32 6.32 9.64 7.64 11 9 C6.5221629 7.75037104 3.35725691 6.25851406 0 3 C0 2.01 0 1.02 0 0 Z " fill="#9CACF9" transform="translate(58,48)"/>
<path d="M0 0 C2.0625 0.4375 2.0625 0.4375 4 1 C4 1.66 4 2.32 4 3 C4.391875 2.484375 4.78375 1.96875 5.1875 1.4375 C5.785625 0.963125 6.38375 0.48875 7 0 C9.6875 0.3125 9.6875 0.3125 12 1 C8.99893521 4.90138423 6.93729011 6.36980557 2 7.0625 C-1.79064321 7.28880706 -2.77487112 7.13957991 -6.125 5.0625 C-6.74375 4.381875 -7.3625 3.70125 -8 3 C-7.67 2.67 -7.34 2.34 -7 2 C-5.33333333 2 -3.66666667 2 -2 2 C-1.67 1.67 -1.34 1.34 -1 1 C-0.67 0.67 -0.34 0.34 0 0 Z " fill="#626578" transform="translate(85,94)"/>
<path d="M0 0 C3.40312738 1.05875074 6.01353231 2.00902154 9 4 C9.34057617 5.97119141 9.34057617 5.97119141 9.29296875 8.3515625 C9.28330078 9.20234375 9.27363281 10.053125 9.26367188 10.9296875 C9.23853516 11.81914063 9.21339844 12.70859375 9.1875 13.625 C9.17396484 14.5221875 9.16042969 15.419375 9.14648438 16.34375 C9.11106925 18.56309789 9.06168461 20.78125188 9 23 C7.68 22.34 6.36 21.68 5 21 C5.05800781 19.87980469 5.11601563 18.75960937 5.17578125 17.60546875 C5.22267981 16.13285412 5.26817987 14.66019449 5.3125 13.1875 C5.35439453 12.44951172 5.39628906 11.71152344 5.43945312 10.95117188 C5.54863607 8.51260154 5.54863607 8.51260154 5 5 C2.5963677 3.05647773 2.5963677 3.05647773 0 2 C0 1.34 0 0.68 0 0 Z " fill="#73758D" transform="translate(110,39)"/>
<path d="M0 0 C1.68272986 0.62501395 3.34630643 1.30177383 5 2 C5.8765625 2.28875 6.753125 2.5775 7.65625 2.875 C10 5 10 5 10.40161133 7.30541992 C10.49369644 10.2804176 10.43415029 13.21361819 10.3125 16.1875 C10.27866211 17.74114258 10.27866211 17.74114258 10.24414062 19.32617188 C10.18516846 21.88556404 10.10292567 24.44205951 10 27 C9.34 27 8.68 27 8 27 C8 20.4 8 13.8 8 7 C5.525 6.01 5.525 6.01 3 5 C2.01 4.34 1.02 3.68 0 3 C0 2.01 0 1.02 0 0 Z " fill="#E1E4F1" transform="translate(111,36)"/>
<path d="M0 0 C0.33 0.66 0.66 1.32 1 2 C2.051875 2.185625 2.051875 2.185625 3.125 2.375 C6.96718074 3.21025668 9.64465441 4.96047621 13 7 C10 8 10 8 7.8125 7.0625 C7.214375 6.711875 6.61625 6.36125 6 6 C6 6.66 6 7.32 6 8 C5.34 8 4.68 8 4 8 C3.67 8.66 3.34 9.32 3 10 C1.02 9.34 -0.96 8.68 -3 8 C-3.33 5.69 -3.66 3.38 -4 1 C-2.68 0.67 -1.36 0.34 0 0 Z " fill="#8598FA" transform="translate(68,41)"/>
<path d="M0 0 C1.62741744 0.78668518 3.25186131 1.5795241 4.875 2.375 C5.77992187 2.81585938 6.68484375 3.25671875 7.6171875 3.7109375 C10 5 10 5 12 7 C12.125 9.625 12.125 9.625 12 12 C9.69 11.34 7.38 10.68 5 10 C5 9.34 5 8.68 5 8 C2.525 7.01 2.525 7.01 0 6 C0 4.02 0 2.04 0 0 Z " fill="#EC445D" transform="translate(109,60)"/>
<path d="M0 0 C0.99 0 1.98 0 3 0 C3 0.66 3 1.32 3 2 C3.66 2.33 4.32 2.66 5 3 C4.01 3.99 3.02 4.98 2 6 C2.99 6 3.98 6 5 6 C4.34 7.98 3.68 9.96 3 12 C-0.1575985 12 -2.19184563 11.40407719 -5 10 C-4.67 9.34 -4.34 8.68 -4 8 C-4.99 8.66 -5.98 9.32 -7 10 C-9.46278801 11.231394 -11.2795055 11.07159196 -14 11 C-14 9.68 -14 8.36 -14 7 C-12.56465159 6.7773254 -11.12654475 6.57238094 -9.6875 6.375 C-8.48673828 6.20097656 -8.48673828 6.20097656 -7.26171875 6.0234375 C-5 6 -5 6 -2 8 C-0.68 8 0.64 8 2 8 C0.68 6.68 -0.64 5.36 -2 4 C-1.01 3.34 -0.02 2.68 1 2 C0.67 1.34 0.34 0.68 0 0 Z " fill="#8C90A0" transform="translate(60,73)"/>
<path d="M0 0 C1.62741744 0.78668518 3.25186131 1.5795241 4.875 2.375 C5.77992187 2.81585938 6.68484375 3.25671875 7.6171875 3.7109375 C10 5 10 5 12 7 C12.125 10.625 12.125 10.625 12 14 C10.88497867 12.88497867 9.78471397 11.75242106 8.75 10.5625 C6.41339698 8.47624731 3.82482283 7.31825065 1 6 C0.67 7.32 0.34 8.64 0 10 C0 6.7 0 3.4 0 0 Z " fill="#66AA66" transform="translate(18,5)"/>
<path d="M0 0 C4.75 1.875 4.75 1.875 7 3 C7 3.66 7 4.32 7 5 C4.1668507 7.24985386 2.58644794 8.01196833 -1.0625 7.9375 C-4.35862684 6.88554463 -5.79964415 5.62350121 -8 3 C-3.25 1.875 -3.25 1.875 -1 3 C-0.67 2.01 -0.34 1.02 0 0 Z " fill="#65687B" transform="translate(94,99)"/>
<path d="M0 0 C3.44165321 0.35299007 5.06872538 1.04581692 8 3 C8.33 3.66 8.66 4.32 9 5 C11.02463255 5.65213292 11.02463255 5.65213292 13 6 C12.67 6.99 12.34 7.98 12 9 C8.00987629 8.44010697 5.4744948 7.24330232 2.1875 4.9375 C1.39730469 4.38964844 0.60710938 3.84179688 -0.20703125 3.27734375 C-0.79871094 2.85582031 -1.39039063 2.43429688 -2 2 C-1.34 1.34 -0.68 0.68 0 0 Z " fill="#66697C" transform="translate(34,75)"/>
<path d="M0 0 C1.32 0 2.64 0 4 0 C4 0.99 4 1.98 4 3 C4.66 3.33 5.32 3.66 6 4 C6.33 3.01 6.66 2.02 7 1 C8.60031344 4.20062687 7.03173691 6.72271806 6 10 C3 10 3 10 0 8 C-0.40843923 5.28796348 -0.13336867 2.7562858 0 0 Z " fill="#E6C7BA" transform="translate(30,40)"/>
<path d="M0 0 C4.40219569 0.66699935 8.00855246 2.08103484 12 4 C13.50156874 7.00313748 13.09281204 9.79067522 13.0625 13.125 C13.05347656 14.40632813 13.04445313 15.68765625 13.03515625 17.0078125 C13.02355469 17.99523437 13.01195313 18.98265625 13 20 C12.67 20 12.34 20 12 20 C12 16.04 12 12.08 12 8 C10.68 7.34 9.36 6.68 8 6 C5.33333333 4.66666667 2.66666667 3.33333333 0 2 C0 1.34 0 0.68 0 0 Z " fill="#F05A78" transform="translate(110,59)"/>
<path d="M0 0 C4.38366119 1.19554396 7.15378323 2.3874941 10 6 C10 6.99 10 7.98 10 9 C6.15764502 7.86475876 2.8741331 6.8741331 0 4 C0 2.68 0 1.36 0 0 Z " fill="#AAD0AA" transform="translate(19,11)"/>
<path d="M0 0 C0.33 0.66 0.66 1.32 1 2 C1.763125 2.144375 2.52625 2.28875 3.3125 2.4375 C6.30666302 3.06418528 7.80682659 3.88805524 10 6 C10 6.99 10 7.98 10 9 C8.35 9 6.7 9 5 9 C5 8.34 5 7.68 5 7 C3.35 7 1.7 7 0 7 C0 6.01 0 5.02 0 4 C-0.66 3.34 -1.32 2.68 -2 2 C-1.34 2 -0.68 2 0 2 C0 1.34 0 0.68 0 0 Z " fill="#878A9B" transform="translate(67,69)"/>
<path d="M0 0 C0.99 0.33 1.98 0.66 3 1 C3 1.66 3 2.32 3 3 C4.65 3.33 6.3 3.66 8 4 C4.46588679 6.12046792 1.05606165 6.53199289 -3 7 C-3 4 -3 4 -2 1 C-1.34 0.67 -0.68 0.34 0 0 Z " fill="#616477" transform="translate(77,89)"/>
<path d="M0 0 C1.03125 0.185625 2.0625 0.37125 3.125 0.5625 C6.77596874 0.97470615 9.42964643 0.66425183 13 0 C13.66 0.33 14.32 0.66 15 1 C15 1.99 15 2.98 15 4 C12.69 3.67 10.38 3.34 8 3 C8.99 4.485 8.99 4.485 10 6 C5.545 5.01 5.545 5.01 1 4 C0.67 2.68 0.34 1.36 0 0 Z " fill="#A6A9B9" transform="translate(79,99)"/>
<path d="M0 0 C0.33 0.66 0.66 1.32 1 2 C1.763125 2.12375 2.52625 2.2475 3.3125 2.375 C6.59527974 3.13843715 7.8213382 4.49857349 10 7 C8.02 7.99 8.02 7.99 6 9 C5.38125 8.2884375 5.38125 8.2884375 4.75 7.5625 C2.817815 5.83733482 1.51807725 5.43415125 -1 5 C-0.67 4.34 -0.34 3.68 0 3 C-0.66 2.67 -1.32 2.34 -2 2 C-1.34 2 -0.68 2 0 2 C0 1.34 0 0.68 0 0 Z " fill="#818495" transform="translate(103,90)"/>
<path d="M0 0 C4.30764815 1.56641751 8.06171464 3.68336156 12 6 C10.68 6.33 9.36 6.66 8 7 C8.33 7.66 8.66 8.32 9 9 C5.9168649 7.80100302 2.93720508 6.52299523 0 5 C0.33 4.34 0.66 3.68 1 3 C1.66 3.33 2.32 3.66 3 4 C3 3.34 3 2.68 3 2 C2.01 1.67 1.02 1.34 0 1 C0 0.67 0 0.34 0 0 Z " fill="#A278C6" transform="translate(71,45)"/>
<path d="M0 0 C0 1.65 0 3.3 0 5 C-1.98 5.99 -1.98 5.99 -4 7 C-4.33 5.68 -4.66 4.36 -5 3 C-5.99 3 -6.98 3 -8 3 C-7.67 2.01 -7.34 1.02 -7 0 C-4.05610218 -1.17755913 -3.10046087 -1.03348696 0 0 Z " fill="#66697B" transform="translate(103,90)"/>
<path d="M0 0 C0.33 0 0.66 0 1 0 C1 2.97 1 5.94 1 9 C-2.0831351 7.80100302 -5.06279492 6.52299523 -8 5 C-7.67 3.68 -7.34 2.36 -7 1 C-3.535 2.98 -3.535 2.98 0 5 C0 3.35 0 1.7 0 0 Z " fill="#D1D7EF" transform="translate(94,20)"/>
<path d="M0 0 C1.32 0.66 2.64 1.32 4 2 C4 2.99 4 3.98 4 5 C2.125 6.0625 2.125 6.0625 0 7 C-0.66 6.67 -1.32 6.34 -2 6 C-2 5.34 -2 4.68 -2 4 C-3.32 3.67 -4.64 3.34 -6 3 C-5.67 2.34 -5.34 1.68 -5 1 C-4.360625 1.165 -3.72125 1.33 -3.0625 1.5 C-1.19173179 2.03926667 -1.19173179 2.03926667 0 2 C0 1.34 0 0.68 0 0 Z " fill="#616476" transform="translate(91,84)"/>
<path d="M0 0 C2.98100384 1.49050192 5.48696394 2.97392788 7 6 C4.69 6.66 2.38 7.32 0 8 C-0.38063221 5.6739143 -0.71269945 3.33944736 -1 1 C-0.67 0.67 -0.34 0.34 0 0 Z " fill="#7C7F90" transform="translate(75,80)"/>
<path d="M0 0 C0.66 0.33 1.32 0.66 2 1 C1.67 1.66 1.34 2.32 1 3 C3.475 3.99 3.475 3.99 6 5 C2.78548731 6.60725635 -0.43612536 6.05748185 -4 6 C-4.33 5.01 -4.66 4.02 -5 3 C-2.625 1.4375 -2.625 1.4375 0 0 Z " fill="#747889" transform="translate(33,70)"/>
<path d="M0 0 C2 2 2 2 2 4 C0.3125 4.6875 0.3125 4.6875 -2 5 C-4.75 3.6875 -4.75 3.6875 -7 2 C-7 1.34 -7 0.68 -7 0 C-3.85179059 -1.04940314 -3.00659136 -1.066855 0 0 Z " fill="#9DADF9" transform="translate(101,63)"/>
<path d="M0 0 C1.67542976 0.28604898 3.34385343 0.61781233 5 1 C5.33 1.99 5.66 2.98 6 4 C5.01 5.485 5.01 5.485 4 7 C4.99 7 5.98 7 7 7 C7.33 7.99 7.66 8.98 8 10 C4.20411134 9.45773019 2.52788007 7.79872437 0 5 C0.99 4.34 1.98 3.68 3 3 C1.68 2.34 0.36 1.68 -1 1 C-0.67 0.67 -0.34 0.34 0 0 Z " fill="#8D90A1" transform="translate(67,77)"/>
<path d="M0 0 C1.46015291 0.28241641 2.91809793 0.57626614 4.375 0.875 C5.18710938 1.03742187 5.99921875 1.19984375 6.8359375 1.3671875 C9 2 9 2 11 4 C8.525 5.485 8.525 5.485 6 7 C6 6.01 6 5.02 6 4 C5.195625 3.71125 4.39125 3.4225 3.5625 3.125 C1 2 1 2 0 0 Z " fill="#989EF0" transform="translate(78,51)"/>
<path d="M0 0 C3.77545388 1.09068668 6.47043472 1.9083091 9 5 C5.61608307 6.06351675 4.4195366 6.21442982 1.1875 4.5625 C0.465625 4.046875 -0.25625 3.53125 -1 3 C-0.67 2.01 -0.34 1.02 0 0 Z " fill="#5C5F72" transform="translate(35,70)"/>
<path d="M0 0 C2.00720923 0.28674418 4.0085944 0.61866701 6 1 C6 1.66 6 2.32 6 3 C6.66 3.33 7.32 3.66 8 4 C8 4.66 8 5.32 8 6 C3.68607774 5.5206753 1.83430453 4.2542015 -1 1 C-0.67 0.67 -0.34 0.34 0 0 Z " fill="#686B7D" transform="translate(83,104)"/>
<path d="M0 0 C0.99 0.33 1.98 0.66 3 1 C3 1.66 3 2.32 3 3 C2.34 3.66 1.68 4.32 1 5 C0.67 5.66 0.34 6.32 0 7 C-1.65 6.67 -3.3 6.34 -5 6 C-2.25 1.125 -2.25 1.125 0 0 Z " fill="#5F6275" transform="translate(83,82)"/>
<path d="M0 0 C2.9375 0.75 2.9375 0.75 6 2 C6.875 4.125 6.875 4.125 7 6 C4.69 5.67 2.38 5.34 0 5 C-0.5625 3.0625 -0.5625 3.0625 -1 1 C-0.67 0.67 -0.34 0.34 0 0 Z " fill="#A19CD5" transform="translate(57,15)"/>
<path d="M0 0 C4.75 1.875 4.75 1.875 7 3 C7 3.66 7 4.32 7 5 C6.01 5.33 5.02 5.66 4 6 C1.3125 4.5625 1.3125 4.5625 -1 3 C-0.67 2.01 -0.34 1.02 0 0 Z " fill="#5E6174" transform="translate(94,99)"/>
<path d="M0 0 C1.65 0.33 3.3 0.66 5 1 C2.75 3.5625 2.75 3.5625 0 6 C-2.3125 5.8125 -2.3125 5.8125 -4 5 C-2.68 3.35 -1.36 1.7 0 0 Z " fill="#5D6073" transform="translate(92,94)"/>
<path d="M0 0 C3.83206182 0.41427695 6.08025204 1.51280729 9 4 C6.8125 4.75 6.8125 4.75 4 5 C1.1875 3.0625 1.1875 3.0625 -1 1 C-0.67 0.67 -0.34 0.34 0 0 Z " fill="#606376" transform="translate(54,77)"/>
<path d="M0 0 C7.87006961 3.11832947 7.87006961 3.11832947 10 6 C10 6.66 10 7.32 10 8 C4.25 6.25 4.25 6.25 2 4 C1.34 3.67 0.68 3.34 0 3 C0 2.01 0 1.02 0 0 Z " fill="#F7D7A3" transform="translate(11,44)"/>
<path d="M0 0 C2 3.75 2 3.75 2 6 C2.66 6.33 3.32 6.66 4 7 C2.25 7.75 2.25 7.75 0 8 C-2.25 6.0625 -2.25 6.0625 -4 4 C-3.01 4 -2.02 4 -1 4 C-0.67 2.68 -0.34 1.36 0 0 Z " fill="#4964EB" transform="translate(106,33)"/>
<path d="M0 0 C-0.3125 1.875 -0.3125 1.875 -1 4 C-4 6 -4 6 -8 6 C-6.72879117 2.18637351 -4.19078006 0 0 0 Z " fill="#989CAD" transform="translate(117,100)"/>
<path d="M0 0 C1.98 0.99 3.96 1.98 6 3 C5.67 3.99 5.34 4.98 5 6 C4.01 6 3.02 6 2 6 C2 5.34 2 4.68 2 4 C0.68 3.34 -0.64 2.68 -2 2 C-1.34 2 -0.68 2 0 2 C0 1.34 0 0.68 0 0 Z " fill="#8D91A1" transform="translate(58,64)"/>
<path d="M0 0 C0.66 0 1.32 0 2 0 C3.20272819 2.40545638 3.10071472 3.94996953 3.0625 6.625 C3.05347656 7.44226562 3.04445313 8.25953125 3.03515625 9.1015625 C3.02355469 9.72804688 3.01195313 10.35453125 3 11 C2.01 10.67 1.02 10.34 0 10 C0 6.7 0 3.4 0 0 Z " fill="#CCD4FA" transform="translate(102,26)"/>
<path d="M0 0 C0.99 0.33 1.98 0.66 3 1 C3 1.66 3 2.32 3 3 C2.34 3.66 1.68 4.32 1 5 C0.67 5.66 0.34 6.32 0 7 C-0.99 7 -1.98 7 -3 7 C-2.625 4.0625 -2.625 4.0625 -2 1 C-1.34 0.67 -0.68 0.34 0 0 Z " fill="#5D6173" transform="translate(74,77)"/>
<path d="M0 0 C0.66 0 1.32 0 2 0 C2.33 3.63 2.66 7.26 3 11 C2.01 10.67 1.02 10.34 0 10 C-0.74926071 6.33694766 -1.2380014 3.57644848 0 0 Z " fill="#D0D7FB" transform="translate(98,24)"/>
<path d="M0 0 C2.625 0.9375 2.625 0.9375 5 2 C4.67 2.99 4.34 3.98 4 5 C-0.875 3.25 -0.875 3.25 -2 1 C-1.34 0.67 -0.68 0.34 0 0 Z " fill="#5C5F72" transform="translate(104,95)"/>
<path d="M0 0 C2.16874252 0.50603992 3.99967627 0.99983813 6 2 C5.67 2.99 5.34 3.98 5 5 C2.525 4.01 2.525 4.01 0 3 C0 2.01 0 1.02 0 0 Z " fill="#8A8D9E" transform="translate(94,86)"/>
<path d="M0 0 C3.25696479 0.41755959 4.63443291 0.63443291 7 3 C4.6875 3.6875 4.6875 3.6875 2 4 C0.1875 2.5625 0.1875 2.5625 -1 1 C-0.67 0.67 -0.34 0.34 0 0 Z " fill="#5C5F72" transform="translate(42,65)"/>
<path d="M0 0 C4.75 0.875 4.75 0.875 7 2 C7 2.99 7 3.98 7 5 C2.25 3.125 2.25 3.125 0 2 C0 1.34 0 0.68 0 0 Z " fill="#E6577C" transform="translate(110,59)"/>
<path d="M0 0 C0.99 0 1.98 0 3 0 C3 2 3 2 1 4.125 C0.34 4.74375 -0.32 5.3625 -1 6 C-3 5 -3 5 -5 2 C-3.35 2 -1.7 2 0 2 C0 1.34 0 0.68 0 0 Z " fill="#8D90A1" transform="translate(51,63)"/>
<path d="M0 0 C2.125 0.9375 2.125 0.9375 4 2 C3.67 2.66 3.34 3.32 3 4 C1.35 4 -0.3 4 -2 4 C-2 3.01 -2 2.02 -2 1 C-1.34 0.67 -0.68 0.34 0 0 Z " fill="#5E6174" transform="translate(71,95)"/>
<path d="M0 0 C1.98 0.495 1.98 0.495 4 1 C3.67 2.32 3.34 3.64 3 5 C1.68 4.34 0.36 3.68 -1 3 C-0.67 2.01 -0.34 1.02 0 0 Z " fill="#696D7F" transform="translate(85,94)"/>
<path d="M0 0 C-0.33 0.99 -0.66 1.98 -1 3 C-2.65 2.67 -4.3 2.34 -6 2 C-6 1.34 -6 0.68 -6 0 C-3.50907189 -1.24546405 -2.58919267 -0.7767578 0 0 Z " fill="#5F6275" transform="translate(47,81)"/>
<path d="M0 0 C1.98 0.99 3.96 1.98 6 3 C5.67 4.32 5.34 5.64 5 7 C4.34 6.67 3.68 6.34 3 6 C3 5.34 3 4.68 3 4 C2.01 4 1.02 4 0 4 C0 2.68 0 1.36 0 0 Z " fill="#F8B8C1" transform="translate(110,66)"/>
<path d="M0 0 C-0.33 0.66 -0.66 1.32 -1 2 C-6.53846154 2.36923077 -6.53846154 2.36923077 -8.875 0.5 C-9.24625 0.005 -9.6175 -0.49 -10 -1 C-5.94568308 -2.15837626 -3.78187881 -1.83691257 0 0 Z " fill="#A28EC6" transform="translate(69,26)"/>
<path d="M0 0 C1.98 0.495 1.98 0.495 4 1 C4 2.32 4 3.64 4 5 C3.01 5 2.02 5 1 5 C0.34 4.34 -0.32 3.68 -1 3 C-0.67 2.01 -0.34 1.02 0 0 Z " fill="#A48EC3" transform="translate(80,54)"/>
<path d="M0 0 C2.475 0.99 2.475 0.99 5 2 C5 2.99 5 3.98 5 5 C2.83125748 4.49396008 1.00032373 4.00016187 -1 3 C-0.67 2.01 -0.34 1.02 0 0 Z " fill="#999FE2" transform="translate(75,52)"/>
<path d="M0 0 C0.33 0.66 0.66 1.32 1 2 C-1.3125 2.6875 -1.3125 2.6875 -4 3 C-5.8125 1.5625 -5.8125 1.5625 -7 0 C-4.30234372 -1.34882814 -2.84835666 -0.80338265 0 0 Z " fill="#8CD090" transform="translate(25,4)"/>
</svg>
