<?xml version="1.0" encoding="UTF-8"?>
<svg version="1.1" xmlns="http://www.w3.org/2000/svg" width="112" height="115">
<path d="M0 0 C3.73258305 1.36382842 6.48828759 3.3209119 9.734375 5.578125 C17.92003936 10.81491648 27.57954903 13.36092001 36.83935547 16.04492188 C37.62584473 16.28017578 38.41233398 16.51542969 39.22265625 16.7578125 C39.92656494 16.96164551 40.63047363 17.16547852 41.35571289 17.37548828 C43.52153608 18.3038976 44.65402371 19.47963498 46.25 21.1875 C48.24577209 22.14726692 48.24577209 22.14726692 50.4375 22.9375 C59.62457211 26.85990254 66.4026782 34.71243854 71.6875 43 C74.23100988 46.71237202 76.94574421 47.07158183 81.25 48.1875 C83.125 50.6875 83.125 50.6875 84.25 53.1875 C84.58 53.8475 84.91 54.5075 85.25 55.1875 C85.52097299 59.31983808 85.62166174 62.18182707 84.1875 66.0625 C81.55167032 68.95340997 79.01367438 69.40636003 75.25 70.1875 C75.6521875 71.2703125 75.6521875 71.2703125 76.0625 72.375 C76.25 75.1875 76.25 75.1875 73.8125 78 C72.5440625 79.0828125 72.5440625 79.0828125 71.25 80.1875 C67.58630097 79.15414899 64.57914349 77.81124594 61.375 75.8125 C56.48034748 72.96424657 51.4243958 71.81309833 45.92236328 70.70751953 C41.40887195 69.73695915 38.4923531 68.50021158 35.25 65.1875 C33.88671875 62.609375 33.88671875 62.609375 32.9375 59.9375 C32.61136719 59.04546875 32.28523438 58.1534375 31.94921875 57.234375 C31.60310547 56.22117187 31.60310547 56.22117187 31.25 55.1875 C30.43162558 56.60078129 29.62053781 58.01828346 28.8125 59.4375 C28.36003906 60.22640625 27.90757813 61.0153125 27.44140625 61.828125 C23.94627237 68.74963604 24.18330205 77.6707961 25.93359375 85.08203125 C29.32688166 94.2481326 34.46645958 99.22259597 43.078125 103.6328125 C45.7205267 105.52431588 46.32156753 107.12367287 47.25 110.1875 C45.25 112.75 45.25 112.75 42.25 115.1875 C39.28468585 115.09336304 37.06931676 114.85639672 34.25 114.1875 C31.05604974 113.47348768 31.05604974 113.47348768 28.25 113.1875 C27.26 113.8475 26.27 114.5075 25.25 115.1875 C20.63349084 115.1875 18.22675444 112.68164812 15.015625 109.71484375 C13.13271928 107.97825979 13.13271928 107.97825979 10.0625 106.4375 C5.59181765 102.86095412 3.77745121 97.6635941 2.92578125 92.05078125 C2.86777344 91.43589844 2.80976563 90.82101563 2.75 90.1875 C2.585 89.1975 2.42 88.2075 2.25 87.1875 C0.33235826 85.8112206 0.33235826 85.8112206 -1.75 85.1875 C-3.96103855 80.76542291 -3.03941614 74.58195956 -2.0625 69.875 C-1.43864516 67.09317864 -1.43864516 67.09317864 -3.3515625 64.8828125 C-4.75 62.1875 -4.75 62.1875 -4.16015625 59.35546875 C0.62171377 48.77991273 6.37415907 39.2692248 17.25 34.1875 C16.23164062 33.87039062 15.21328125 33.55328125 14.1640625 33.2265625 C1.16937524 29.00875724 -17.36285013 22.70297587 -25.75 11.1875 C-26.54402092 8.37623675 -26.91013204 6.76397533 -26.125 3.9375 C-24.75 2.1875 -24.75 2.1875 -22.58984375 1.33203125 C-18.58541372 1.12822945 -16.13459296 2.96865525 -12.9375 5.125 C-12.0412793 5.70411133 -12.0412793 5.70411133 -11.12695312 6.29492188 C-9.65934278 7.24593338 -8.2034509 8.214986 -6.75 9.1875 C-6.95753906 8.58550781 -7.16507813 7.98351562 -7.37890625 7.36328125 C-7.50136719 6.64527344 -7.62382812 5.92726563 -7.75 5.1875 C-5.4019857 1.98566232 -4.06184354 0.27694388 0 0 Z " fill="#FFF6F7" transform="translate(26.75,-0.1875)"/>
<path d="M0 0 C0.65484375 0.43570312 1.3096875 0.87140625 1.984375 1.3203125 C17.51047064 11.45174779 34.02943114 18.74376938 52.77612305 19.23876953 C63.84504481 19.56866338 72.52941805 20.90014811 80.9375 28.6640625 C84.05762543 32.19784093 86.67539256 36.10145519 89.1484375 40.11279297 C92.36760815 45.02931995 95.3792796 46.35665378 101 48 C101 50.97 101 53.94 101 57 C96.25 58.125 96.25 58.125 94 57 C94 56.34 94 55.68 94 55 C92.02 54.34 90.04 53.68 88 53 C87.34 53.99 86.68 54.98 86 56 C85.34 56 84.68 56 84 56 C84.33 54.02 84.66 52.04 85 50 C84.2575 49.9175 83.515 49.835 82.75 49.75 C78.43878653 48.57421451 76.53426395 45.67164611 73.8125 42.25 C70.35480743 39.48384595 68.47130504 39.50257853 64.18359375 39.62890625 C61.81206504 40.03193886 60.08549682 40.82247459 58 42 C62.75 36.125 62.75 36.125 65 35 C66.62165752 34.87851695 68.24884327 34.82456348 69.875 34.8125 C70.73867187 34.79832031 71.60234375 34.78414062 72.4921875 34.76953125 C75.15847538 35.01456394 76.75443239 35.56364594 79 37 C79.28875 37.639375 79.5775 38.27875 79.875 38.9375 C81.52363667 41.96000056 83.92402005 42.66261741 87 44 C86.46375 43.0925 85.9275 42.185 85.375 41.25 C85.07335937 40.73953125 84.77171875 40.2290625 84.4609375 39.703125 C81.52124311 36.27610159 78.95413086 34.26784419 74.47070312 33.65332031 C70.47715928 33.48177633 66.49448716 33.496436 62.49804688 33.51171875 C56.10804632 33.4200162 52.18388937 32.85128793 47 29 C46.34 28.01 45.68 27.02 45 26 C48.37492629 25.94154804 51.74972087 25.90625258 55.125 25.875 C56.07632813 25.85824219 57.02765625 25.84148438 58.0078125 25.82421875 C63.08583255 25.78895472 67.24487525 25.96666383 72 28 C66.78204063 22.78204063 58.32061765 23.47559719 51.5625 23.1875 C32.53590703 22.00419832 14.36961849 15.00241207 0 2 C0 1.34 0 0.68 0 0 Z " fill="#FF133A" transform="translate(5,6)"/>
<path d="M0 0 C3.3 0.66 6.6 1.32 10 2 C9 5 9 5 6.6640625 6.8671875 C-0.25844936 12.40925712 -4.49828772 21.35832841 -6 30 C-6.98368725 40.42391171 -4.34815352 49.06525095 1 58 C1.99764983 59.00234466 2.99708031 60.00292824 4 61 C4 61.66 4 62.32 4 63 C4.53625 63.2475 5.0725 63.495 5.625 63.75 C8.56424252 65.29696975 11.25754408 67.13014369 14 69 C11 70 11 70 7.375 68.625 C1.99385925 65.80440206 -1.9202779 61.41969894 -6 57 C-6.30219324 59.98082675 -6.30219324 59.98082675 -4.625 61.8125 C-2.69671113 64.40827347 -1.91096615 66.91672995 -1 70 C-4.79007726 68.73664091 -5.18073712 67.46740258 -7.125 64.0625 C-7.64320312 63.16660156 -8.16140625 62.27070312 -8.6953125 61.34765625 C-9.49208952 59.91393472 -10.26645913 58.46708174 -11 57 C-11.495 59.475 -11.495 59.475 -12 62 C-14 61 -14 61 -15.625 57.4375 C-17.8638007 50.50734306 -17.23817342 43.18930881 -17 36 C-14.71522446 39.42716331 -14.32512338 42.04925971 -13.66015625 46.0390625 C-13.44230469 46.68617187 -13.22445312 47.33328125 -13 48 C-12.01 48.33 -11.02 48.66 -10 49 C-10.309375 48.46375 -10.61875 47.9275 -10.9375 47.375 C-14.86245895 38.60156235 -14.15302536 26.30337153 -11.05078125 17.37890625 C-8.25389723 11.04692718 -4.53307778 5.23047436 0 0 Z " fill="#FF0F37" transform="translate(52,39)"/>
<path d="M0 0 C-0.38671875 0.40089844 -0.7734375 0.80179688 -1.171875 1.21484375 C-8.23506191 8.92490668 -12.26168571 19.10906667 -13.375 29.5 C-14.26661168 34.49302539 -16.58772027 38.57600359 -19 43 C-19.33 43 -19.66 43 -20 43 C-20.68323211 31.95441419 -18.56097592 23.90418161 -12 15 C-12.72316406 15.63228516 -12.72316406 15.63228516 -13.4609375 16.27734375 C-14.40839844 17.09912109 -14.40839844 17.09912109 -15.375 17.9375 C-16.31472656 18.75541016 -16.31472656 18.75541016 -17.2734375 19.58984375 C-19 21 -19 21 -21 22 C-20.22425289 13.72536419 -14.00267476 7.21792141 -8 2 C-3.6 -1.2 -3.6 -1.2 0 0 Z " fill="#FF163C" transform="translate(50,39)"/>
<path d="M0 0 C0.65484375 0.43570312 1.3096875 0.87140625 1.984375 1.3203125 C18.8543992 12.32871812 35.73465555 18.63737876 55.875 19.5625 C57.19371094 19.62727539 57.19371094 19.62727539 58.5390625 19.69335938 C60.69255797 19.79869339 62.84626064 19.89977649 65 20 C65 20.33 65 20.66 65 21 C63.35 21 61.7 21 60 21 C60 21.66 60 22.32 60 23 C55.66510611 23.06029992 51.33497748 23.05431065 47 23 C46.23945312 22.99613281 45.47890625 22.99226563 44.6953125 22.98828125 C29.36241849 22.12319579 11.20930321 12.14278698 0 2 C0 1.34 0 0.68 0 0 Z " fill="#FF143B" transform="translate(5,6)"/>
<path d="M0 0 C2.27733832 3.41600748 2.62779248 5.96091086 3.2421875 9.94140625 C3.81036067 12.17290331 3.81036067 12.17290331 5.9609375 13.09765625 C6.97027344 13.54431641 6.97027344 13.54431641 8 14 C10.25881554 17.71091124 11 19.60010849 11 24 C11.98560611 25.34400833 12.98758315 26.67607028 14 28 C14.72351427 29.98014432 15.40265389 31.97821315 16 34 C12.20992274 32.73664091 11.81926288 31.46740258 9.875 28.0625 C9.35679688 27.16660156 8.83859375 26.27070312 8.3046875 25.34765625 C7.50791048 23.91393472 6.73354087 22.46708174 6 21 C5.67 22.65 5.34 24.3 5 26 C3 25 3 25 1.375 21.4375 C-0.8638007 14.50734306 -0.23817342 7.18930881 0 0 Z " fill="#FFC6CF" transform="translate(35,75)"/>
<path d="M0 0 C2.25 0.9375 2.25 0.9375 3.25 2.9375 C2.13625 2.875625 1.0225 2.81375 -0.125 2.75 C-1.919375 2.8428125 -1.919375 2.8428125 -3.75 2.9375 C-6.08296251 5.76467213 -6.08296251 5.76467213 -5.5 9 C-4.9906756 12.036959 -4.9906756 12.036959 -2.75 13.9375 C-0.62615672 14.0106351 1.50000272 14.02110924 3.625 14 C12.40635849 14.43543926 16.92260666 18.20112691 23.25 23.9375 C22.92 24.5975 22.59 25.2575 22.25 25.9375 C21.30125 25.215625 20.3525 24.49375 19.375 23.75 C14.21788946 20.44535335 8.51246948 19.22118271 2.59814453 17.90161133 C-1.30639054 16.95509503 -3.33147223 16.34886789 -6.26171875 13.46875 C-8.15214123 10.25354327 -8.4381671 8.60772455 -7.75 4.9375 C-4.0053495 -0.09103067 -4.0053495 -0.09103067 0 0 Z " fill="#FF506D" transform="translate(72.75,48.0625)"/>
<path d="M0 0 C0.33 0.66 0.66 1.32 1 2 C0.28558854 3.87107763 -0.43455334 5.74017039 -1.18359375 7.59765625 C-2.06623161 10.19489207 -2.47873684 12.66271335 -2.875 15.375 C-3.82011339 21.20048337 -6.10244063 25.90162263 -9 31 C-9.33 31 -9.66 31 -10 31 C-10.70595211 19.58710759 -7.99118075 11.5858892 -2 2 C-1.34 1.34 -0.68 0.68 0 0 Z " fill="#FF2347" transform="translate(40,51)"/>
<path d="M0 0 C2.97537014 1.42058098 5.69049869 3.06836506 8.4609375 4.8515625 C14.23300733 8.33854556 20.21329554 10.3728031 26.625 12.375 C27.72457031 12.72949219 28.82414062 13.08398438 29.95703125 13.44921875 C32.63465882 14.31071631 35.31535328 15.16068723 38 16 C38 16.33 38 16.66 38 17 C24.79803176 18.01553602 12.29173958 11.25739473 2.25 3.125 C1.5075 2.42375 0.765 1.7225 0 1 C0 0.67 0 0.34 0 0 Z " fill="#FF2E50" transform="translate(26,6)"/>
<path d="M0 0 C0.65484375 0.43570312 1.3096875 0.87140625 1.984375 1.3203125 C13.2403453 8.66531007 24.01218734 13.73383409 37 17 C36.01 17.33 35.02 17.66 34 18 C34 18.66 34 19.32 34 20 C26.93878187 18.40553139 21.03961928 15.61184525 14.75 12.125 C13.59781982 11.49102295 13.59781982 11.49102295 12.42236328 10.84423828 C7.873709 8.26939797 3.81677578 5.58582438 0 2 C0 1.34 0 0.68 0 0 Z " fill="#FF4C69" transform="translate(5,6)"/>
<path d="M0 0 C3.31138959 3.54662491 3.61226596 6.76420199 4.125 11.5 C4.73183997 17.3119004 4.73183997 17.3119004 6 23 C5.34 23 4.68 23 4 23 C3.67 23.66 3.34 24.32 3 25 C2.01 21.04 1.02 17.08 0 13 C-0.33 16.3 -0.66 19.6 -1 23 C-1.33 23 -1.66 23 -2 23 C-2.22786458 21.01432292 -2.45572917 19.02864583 -2.68359375 17.04296875 C-2.97170735 14.80603607 -2.97170735 14.80603607 -4 12 C-3.319375 10.88625 -3.319375 10.88625 -2.625 9.75 C-0.69376054 6.48174861 -0.36725367 3.74598743 0 0 Z " fill="#FFD5DC" transform="translate(36,65)"/>
<path d="M0 0 C1 3 1 3 -0.109375 5.28515625 C-0.65078125 6.20167969 -1.1921875 7.11820313 -1.75 8.0625 C-5.93292993 15.97115589 -6.88669849 24.21077757 -8 33 C-8.33 33 -8.66 33 -9 33 C-9.97466056 11.6657633 -9.97466056 11.6657633 -3.62109375 3.15234375 C-2.25 1.75 -2.25 1.75 0 0 Z " fill="#FFF0F2" transform="translate(46,44)"/>
<path d="M0 0 C1.07217773 0.00483398 1.07217773 0.00483398 2.16601562 0.00976562 C7.88908653 0.16023621 12.46851106 1.38457355 17.375 4.4375 C17.045 5.0975 16.715 5.7575 16.375 6.4375 C15.60929687 6.12039062 14.84359375 5.80328125 14.0546875 5.4765625 C9.19123947 4.10323216 4.53074529 3.97610147 -0.5 3.8125 C-1.47453125 3.77382813 -2.4490625 3.73515625 -3.453125 3.6953125 C-5.8435672 3.60156967 -8.23401244 3.5158617 -10.625 3.4375 C-7.48567277 -0.16728896 -4.56383652 -0.06286276 0 0 Z " fill="#FFD7DE" transform="translate(60.625,28.5625)"/>
<path d="M0 0 C3.86849081 5.80273622 5.58305236 13.87196917 4.6875 20.8125 C4.460625 21.864375 4.23375 22.91625 4 24 C0.58923794 20.58923794 -0.11007927 16.61063202 -0.1953125 11.9140625 C-0.18219489 10.48424307 -0.15860452 9.05448466 -0.125 7.625 C-0.11597656 6.88894531 -0.10695312 6.15289062 -0.09765625 5.39453125 C-0.07430144 3.5962112 -0.03843836 1.79806089 0 0 Z " fill="#FF0F36" transform="translate(35,75)"/>
<path d="M0 0 C3.33054135 2.69712551 5.36982099 4.37681586 6.09765625 8.734375 C3.28515625 8.046875 3.28515625 8.046875 0.09765625 6.734375 C-0.31484375 5.909375 -0.72734375 5.084375 -1.15234375 4.234375 C-3.33756373 1.11263217 -4.43782203 1.13383996 -8.08984375 0.421875 C-9.6909472 0.17220365 -11.29454366 -0.0635188 -12.90234375 -0.265625 C-12.90234375 -0.595625 -12.90234375 -0.925625 -12.90234375 -1.265625 C-8.17417185 -2.51719991 -4.22011573 -2.80763346 0 0 Z " fill="#FFE2E7" transform="translate(85.90234375,41.265625)"/>
<path d="M0 0 C0.33 0 0.66 0 1 0 C1 4.29 1 8.58 1 13 C0.67 13 0.34 13 0 13 C-0.33 16.3 -0.66 19.6 -1 23 C-1.33 23 -1.66 23 -2 23 C-2.22786458 21.01432292 -2.45572917 19.02864583 -2.68359375 17.04296875 C-2.97170735 14.80603607 -2.97170735 14.80603607 -4 12 C-3.319375 10.88625 -3.319375 10.88625 -2.625 9.75 C-0.69376054 6.48174861 -0.36725367 3.74598743 0 0 Z " fill="#FFBCC7" transform="translate(36,65)"/>
<path d="M0 0 C3.06185225 1.47109683 5.92497748 3.15041913 8.8125 4.9375 C12.78483848 7.34444287 16.6790634 9.30919872 21 11 C21 11.33 21 11.66 21 12 C13.83873814 11.84086085 8.5823901 8.29346245 3 4 C1.171875 1.76953125 1.171875 1.76953125 0 0 Z " fill="#FF4060" transform="translate(26,6)"/>
<path d="M0 0 C0.66 0.33 1.32 0.66 2 1 C1.125 7.875 1.125 7.875 0 9 C-2.4375 9.1875 -2.4375 9.1875 -5 9 C-5.66 8.34 -6.32 7.68 -7 7 C-6.625 4.375 -6.625 4.375 -6 2 C-4.02 2.495 -4.02 2.495 -2 3 C-2 3.66 -2 4.32 -2 5 C-2.99 5 -3.98 5 -5 5 C-4.67 5.66 -4.34 6.32 -4 7 C-3.01 7 -2.02 7 -1 7 C-0.67 4.69 -0.34 2.38 0 0 Z " fill="#FF5D78" transform="translate(76,51)"/>
<path d="M0 0 C4.95781517 4.82382017 8.02403415 8.31211557 10 15 C6.24514684 13.74838228 5.83105872 12.54425403 3.875 9.1875 C3.35679688 8.31480469 2.83859375 7.44210938 2.3046875 6.54296875 C1.1609068 4.31362373 0.46743191 2.44546695 0 0 Z " fill="#FF2C4F" transform="translate(41,94)"/>
<path d="M0 0 C0.33 0.99 0.66 1.98 1 3 C-0.9375 5.6875 -0.9375 5.6875 -3 8 C-3.66 7.67 -4.32 7.34 -5 7 C-3.75023244 3.34683329 -3.32901247 2.21934164 0 0 Z " fill="#FFDDE3" transform="translate(46,44)"/>
<path d="M0 0 C-0.33 0.66 -0.66 1.32 -1 2 C-4.3 1.67 -7.6 1.34 -11 1 C-11 0.67 -11 0.34 -11 0 C-7.01803543 -1.05404945 -4.01804691 -0.84098656 0 0 Z " fill="#FFCED6" transform="translate(84,40)"/>
<path d="M0 0 C0.33 0 0.66 0 1 0 C1 4.29 1 8.58 1 13 C-2 9 -2 9 -1.85546875 6.640625 C-1.63503906 5.85171875 -1.41460937 5.0628125 -1.1875 4.25 C-0.97480469 3.45078125 -0.76210938 2.6515625 -0.54296875 1.828125 C-0.36378906 1.22484375 -0.18460938 0.6215625 0 0 Z " fill="#FFB2BF" transform="translate(36,65)"/>
</svg>
