<?xml version="1.0" encoding="UTF-8"?>
<svg version="1.1" xmlns="http://www.w3.org/2000/svg" width="128" height="128">
<path d="M0 0 C4.51399073 2.69506198 8.79596083 6.20038248 10.5 11.3125 C10.625 14.5625 10.625 14.5625 10.5 17.3125 C11.593125 17.250625 12.68625 17.18875 13.8125 17.125 C17.5 17.3125 17.5 17.3125 19.21484375 18.5390625 C20.85419796 20.80127166 20.84118903 22.10741306 20.75 24.875 C20.73453125 25.66003906 20.7190625 26.44507812 20.703125 27.25390625 C20.5 29.3125 20.5 29.3125 19.5 31.3125 C18.84 31.3125 18.18 31.3125 17.5 31.3125 C17.52320312 31.91578125 17.54640625 32.5190625 17.5703125 33.140625 C17.58835937 33.93984375 17.60640625 34.7390625 17.625 35.5625 C17.64820312 36.35140625 17.67140625 37.1403125 17.6953125 37.953125 C17.47711178 40.58898974 16.92967069 42.09698383 15.5 44.3125 C11.97320901 46.66369399 10.47120515 46.52693452 6.3125 46.4375 C5.22582031 46.41945312 4.13914062 46.40140625 3.01953125 46.3828125 C2.18808594 46.35960937 1.35664062 46.33640625 0.5 46.3125 C0.18241248 50.01673682 0.18241248 50.01673682 1.5 53.3125 C4.33701422 54.91404029 7.22042586 55.95503558 10.28125 57.06640625 C17.66793586 59.92605769 24.04451826 64.29592441 27.58984375 71.5390625 C28.68245552 74.86848033 28.69563661 77.62848795 28.625 81.125 C28.60695313 82.28644531 28.58890625 83.44789062 28.5703125 84.64453125 C28.54710938 85.52496094 28.52390625 86.40539062 28.5 87.3125 C29.75296875 87.28929688 31.0059375 87.26609375 32.296875 87.2421875 C33.9479107 87.22342573 35.59895285 87.20522597 37.25 87.1875 C38.075 87.17074219 38.9 87.15398437 39.75 87.13671875 C40.54921875 87.13027344 41.3484375 87.12382813 42.171875 87.1171875 C42.9050293 87.10671387 43.63818359 87.09624023 44.39355469 87.08544922 C46.83992539 87.34914008 48.41604264 88.01840223 50.5 89.3125 C52.74946003 93.81142007 51.72721927 99.96452437 51.74023438 104.97045898 C51.7499479 107.23783949 51.78097393 109.50431639 51.8125 111.77148438 C51.81902942 113.21093211 51.82428014 114.65038634 51.828125 116.08984375 C51.8374707 117.40202881 51.84681641 118.71421387 51.85644531 120.06616211 C51.5 123.3125 51.5 123.3125 50.28848267 124.99158669 C47.91949834 126.74123906 46.45993938 126.68973714 43.52783203 126.69345093 C42.50151672 126.7019104 41.47520142 126.71036987 40.41778564 126.71908569 C39.29249451 126.713013 38.16720337 126.70694031 37.0078125 126.70068359 C35.22948029 126.70856903 35.22948029 126.70856903 33.41522217 126.71661377 C30.16311235 126.72756531 26.91136803 126.72498413 23.65926361 126.71547651 C20.25737229 126.70788594 16.85550555 126.71492384 13.45361328 126.71963501 C7.74051524 126.72509434 2.02753351 126.71789638 -3.68554688 126.70361328 C-10.29248564 126.68728632 -16.89914669 126.69257471 -23.50607872 126.7090925 C-29.17665168 126.72270239 -34.84714098 126.72462949 -40.51772499 126.71677649 C-43.90539732 126.7120972 -47.29293907 126.71148202 -50.68060303 126.72138596 C-54.45653236 126.72897828 -58.23192341 126.71742655 -62.0078125 126.70068359 C-63.13310364 126.70675629 -64.25839478 126.71282898 -65.41778564 126.71908569 C-66.44410095 126.71062622 -67.47041626 126.70216675 -68.52783203 126.69345093 C-69.42084015 126.69231985 -70.31384827 126.69118877 -71.23391724 126.69002342 C-73.98677316 126.23140487 -74.87804759 125.55725832 -76.5 123.3125 C-76.87231445 120.08203125 -76.87231445 120.08203125 -76.86328125 116.125 C-76.86402901 115.07662964 -76.86402901 115.07662964 -76.86479187 114.00708008 C-76.86245392 112.53105828 -76.85274165 111.05503231 -76.83618164 109.57910156 C-76.81258464 107.32060067 -76.8156227 105.06328038 -76.82226562 102.8046875 C-76.77922768 91.73134152 -76.77922768 91.73134152 -74.5 88.3125 C-71.49984088 87.31244696 -69.52576244 87.19674415 -66.39453125 87.21484375 C-65.41162109 87.21806641 -64.42871094 87.22128906 -63.41601562 87.22460938 C-61.87977539 87.23717773 -61.87977539 87.23717773 -60.3125 87.25 C-58.75885742 87.25676758 -58.75885742 87.25676758 -57.17382812 87.26367188 C-54.61582734 87.2754599 -52.05794267 87.29191485 -49.5 87.3125 C-49.56960937 85.79269531 -49.56960937 85.79269531 -49.640625 84.2421875 C-49.67816758 82.89065468 -49.71456506 81.53908972 -49.75 80.1875 C-49.78351562 79.52234375 -49.81703125 78.8571875 -49.8515625 78.171875 C-49.97225526 72.01654428 -47.75010897 68.80315514 -43.74609375 64.37109375 C-37.62022102 58.8803007 -30.5774547 55.08652043 -22.5 53.3125 C-22.08168596 50.02250718 -22.08168596 50.02250718 -22.5 46.3125 C-24.72877725 43.66676499 -24.72877725 43.66676499 -27.5 41.3125 C-31.5 35.90709459 -31.5 35.90709459 -31.5 32.3125 C-33.1396875 32.374375 -33.1396875 32.374375 -34.8125 32.4375 C-38.5 32.3125 -38.5 32.3125 -41.5 30.3125 C-41.86328125 27.78125 -41.86328125 27.78125 -41.8125 24.8125 C-41.80863281 23.8328125 -41.80476563 22.853125 -41.80078125 21.84375 C-41.5 19.3125 -41.5 19.3125 -39.5 17.3125 C-35.875 17.1875 -35.875 17.1875 -32.5 17.3125 C-32.4175 16.11625 -32.335 14.92 -32.25 13.6875 C-31.65226039 9.28596288 -30.55758894 6.6683903 -27.5 3.3125 C-19.5126127 -2.50907651 -9.16352285 -4.21867845 0 0 Z M10.5 32.3125 C9.84 33.42625 9.18 34.54 8.5 35.6875 C8.12875 36.31398438 7.7575 36.94046875 7.375 37.5859375 C6.34931652 39.28722667 6.34931652 39.28722667 6.5 41.3125 C9.79075996 40.93345792 9.79075996 40.93345792 12.5 39.3125 C12.54092937 36.97952567 12.54241723 34.64544775 12.5 32.3125 C11.84 32.3125 11.18 32.3125 10.5 32.3125 Z " fill="#9DD2FB" transform="translate(76.5,1.6875)"/>
<path d="M0 0 C4.51399073 2.69506198 8.79596083 6.20038248 10.5 11.3125 C10.625 14.5625 10.625 14.5625 10.5 17.3125 C11.593125 17.250625 12.68625 17.18875 13.8125 17.125 C17.5 17.3125 17.5 17.3125 19.21484375 18.5390625 C20.85419796 20.80127166 20.84118903 22.10741306 20.75 24.875 C20.73453125 25.66003906 20.7190625 26.44507812 20.703125 27.25390625 C20.5 29.3125 20.5 29.3125 19.5 31.3125 C18.84 31.3125 18.18 31.3125 17.5 31.3125 C17.52320312 31.91578125 17.54640625 32.5190625 17.5703125 33.140625 C17.58835937 33.93984375 17.60640625 34.7390625 17.625 35.5625 C17.64820312 36.35140625 17.67140625 37.1403125 17.6953125 37.953125 C17.47711178 40.58898974 16.92967069 42.09698383 15.5 44.3125 C11.97320901 46.66369399 10.47120515 46.52693452 6.3125 46.4375 C5.22582031 46.41945312 4.13914063 46.40140625 3.01953125 46.3828125 C2.18808594 46.35960937 1.35664062 46.33640625 0.5 46.3125 C0.18241248 50.01673682 0.18241248 50.01673682 1.5 53.3125 C4.33701422 54.91404029 7.22042586 55.95503558 10.28125 57.06640625 C16.78949726 59.58598255 22.68525316 63.36149493 26.5 69.3125 C28.5 74.3125 28.5 74.3125 28.5 88.3125 C2.76 88.3125 -22.98 88.3125 -49.5 88.3125 C-49.5 70.74011693 -49.5 70.74011693 -43.74609375 64.37109375 C-37.62022102 58.8803007 -30.5774547 55.08652043 -22.5 53.3125 C-22.08168596 50.02250718 -22.08168596 50.02250718 -22.5 46.3125 C-24.72877725 43.66676499 -24.72877725 43.66676499 -27.5 41.3125 C-31.5 35.90709459 -31.5 35.90709459 -31.5 32.3125 C-33.1396875 32.374375 -33.1396875 32.374375 -34.8125 32.4375 C-38.5 32.3125 -38.5 32.3125 -41.5 30.3125 C-41.86328125 27.78125 -41.86328125 27.78125 -41.8125 24.8125 C-41.80863281 23.8328125 -41.80476563 22.853125 -41.80078125 21.84375 C-41.5 19.3125 -41.5 19.3125 -39.5 17.3125 C-35.875 17.1875 -35.875 17.1875 -32.5 17.3125 C-32.4175 16.11625 -32.335 14.92 -32.25 13.6875 C-31.65226039 9.28596288 -30.55758894 6.6683903 -27.5 3.3125 C-19.5126127 -2.50907651 -9.16352285 -4.21867845 0 0 Z M10.5 32.3125 C9.84 33.42625 9.18 34.54 8.5 35.6875 C8.12875 36.31398438 7.7575 36.94046875 7.375 37.5859375 C6.34931652 39.28722667 6.34931652 39.28722667 6.5 41.3125 C9.79075996 40.93345792 9.79075996 40.93345792 12.5 39.3125 C12.54092937 36.97952567 12.54241723 34.64544775 12.5 32.3125 C11.84 32.3125 11.18 32.3125 10.5 32.3125 Z " fill="#FDBB84" transform="translate(76.5,1.6875)"/>
<path d="M0 0 C10.2820511 4.6339655 17.61553057 8.03882643 22 19 C22 23.62 22 28.24 22 33 C11.44 33 0.88 33 -10 33 C-13.62068966 18.51724138 -13.62068966 18.51724138 -10 12 C-8.68 12.33 -7.36 12.66 -6 13 C-5.7525 12.154375 -5.505 11.30875 -5.25 10.4375 C-3.86026373 6.61572526 -2.08879162 3.48131937 0 0 Z " fill="#385E7D" transform="translate(83,57)"/>
<path d="M0 0 C3.04049801 3.64859761 4.96518762 7.7444533 7 12 C7.99 12 8.98 12 10 12 C12.31217519 14.83188429 12.98490056 16.55456655 13.109375 20.2265625 C12.99078125 21.34804687 12.8721875 22.46953125 12.75 23.625 C12.64171875 24.75164062 12.5334375 25.87828125 12.421875 27.0390625 C12 30 12 30 11 33 C0.44 33 -10.12 33 -21 33 C-21 15.33404711 -21 15.33404711 -15.17578125 9.0234375 C-10.47795981 4.86729359 -5.87629324 2.19000743 0 0 Z " fill="#385F7D" transform="translate(48,57)"/>
<path d="M0 0 C4.64092483 2.77084752 8.50284035 6.21261017 10.5 11.3125 C10.6953125 14.328125 10.6953125 14.328125 10.625 17.5625 C10.60695312 18.64015625 10.58890625 19.7178125 10.5703125 20.828125 C10.54710937 21.64796875 10.52390625 22.4678125 10.5 23.3125 C1.87765104 24.15143125 -3.87851687 22.74668636 -11.4921875 18.625 C-14.87866412 17.14726475 -16.84716233 16.80932766 -20.5 17.3125 C-23.29436262 18.78971852 -23.29436262 18.78971852 -25.8125 20.8125 C-30.45833333 24.3125 -30.45833333 24.3125 -31.5 24.3125 C-32.59888576 17.11016442 -32.9983895 11.84282706 -29.5 5.3125 C-27.25 3.5625 -27.25 3.5625 -24.5 2.3125 C-23.51 1.590625 -22.52 0.86875 -21.5 0.125 C-15.21524398 -3.43682015 -6.43877858 -2.99336006 0 0 Z " fill="#385E7C" transform="translate(76.5,1.6875)"/>
<path d="M0 0 C1.0209375 0.5259375 1.0209375 0.5259375 2.0625 1.0625 C6.23392138 2.39380469 10.06958735 1.96520632 14 0 C16.6723621 -0.13415472 19.32250488 -0.04318541 22 0 C22.33 2.31 22.66 4.62 23 7 C25.475 7.99 25.475 7.99 28 9 C26.02 13.29 24.04 17.58 22 22 C20.68 21.67 19.36 21.34 18 21 C15.68806489 28.70645038 16.37066967 34.12490339 18 42 C13.38 42 8.76 42 4 42 C4.09539063 40.90300781 4.19078125 39.80601563 4.2890625 38.67578125 C4.40165961 37.22140188 4.51360442 35.7669719 4.625 34.3125 C4.68945312 33.59126953 4.75390625 32.87003906 4.8203125 32.12695312 C5.13102342 27.87409746 4.97020088 24.81256429 3 21 C2.01 21.33 1.02 21.66 0 22 C-1.03307771 20.23628182 -2.05112049 18.46374967 -3.0625 16.6875 C-3.63097656 15.70136719 -4.19945312 14.71523438 -4.78515625 13.69921875 C-6 11 -6 11 -5 8 C-2.9375 7.3125 -2.9375 7.3125 -1 7 C-0.67 4.69 -0.34 2.38 0 0 Z " fill="#EA9B5A" transform="translate(55,48)"/>
<path d="M0 0 C1.79093191 -0.08086147 3.58289628 -0.13912702 5.375 -0.1875 C6.87160156 -0.23970703 6.87160156 -0.23970703 8.3984375 -0.29296875 C9.25695312 -0.19628906 10.11546875 -0.09960938 11 0 C14.30779288 4.96168932 13.33276765 10.92149766 13.31567383 16.73339844 C13.31251117 18.99202598 13.33598804 21.24934664 13.36132812 23.5078125 C13.36360094 24.94270668 13.3643047 26.37760438 13.36328125 27.8125 C13.36626221 29.11832031 13.36924316 30.42414063 13.37231445 31.76953125 C13 35 13 35 11.64599609 36.9309082 C9.19492575 38.5229042 7.19558962 38.2892561 4.3125 38.1875 C3.31863281 38.16042969 2.32476562 38.13335937 1.30078125 38.10546875 C0.54152344 38.07066406 -0.21773438 38.03585938 -1 38 C-0.50886719 37.58105469 -0.01773438 37.16210938 0.48828125 36.73046875 C2.84212235 34.03602015 2.19433719 31.4332903 2 28 C1.01 28 0.02 28 -1 28 C-1 23.38 -1 18.76 -1 14 C-2.32 13.67 -3.64 13.34 -5 13 C-4.67 12.01 -4.34 11.02 -4 10 C-1.69 10 0.62 10 3 10 C2.41825155 4.6913151 2.41825155 4.6913151 0 0 Z " fill="#84BDED" transform="translate(115,90)"/>
<path d="M0 0 C16.81703052 7.57918225 16.81703052 7.57918225 21.1328125 16.28515625 C22.18586294 19.58186821 22.19477438 22.35866803 22.125 25.8125 C22.10695313 26.97394531 22.08890625 28.13539062 22.0703125 29.33203125 C22.04710938 30.21246094 22.02390625 31.09289062 22 32 C19.03 32 16.06 32 13 32 C12.93683594 31.0821875 12.87367187 30.164375 12.80859375 29.21875 C12.07523209 21.86969421 11.26484254 16.75365612 5.88671875 11.48828125 C3.41915968 9.54182161 0.92508068 8.1414949 -2 7 C-1.125 1.125 -1.125 1.125 0 0 Z " fill="#2B4D66" transform="translate(83,57)"/>
<path d="M0 0 C0.99 0.66 1.98 1.32 3 2 C2 7 2 7 1.40625 9.28125 C0.92101437 12.52859615 1.33576622 15.09145447 1.9375 18.3125 C2.288125 20.189375 2.63875 22.06625 3 24 C-1.62 24 -6.24 24 -11 24 C-10.90460937 22.87980469 -10.80921875 21.75960937 -10.7109375 20.60546875 C-10.59838115 19.1328565 -10.4864337 17.66019763 -10.375 16.1875 C-10.31054688 15.44951172 -10.24609375 14.71152344 -10.1796875 13.95117188 C-9.82029739 9.19441504 -9.82029739 9.19441504 -12 5 C-12 4.01 -12 3.02 -12 2 C-7.93789229 -1.44663685 -5.03872577 -1.21302658 0 0 Z " fill="#E33F55" transform="translate(70,66)"/>
<path d="M0 0 C3.74785043 2.08213913 4.79482295 3.2947039 6 7.4375 C6 11.4184894 5.5177436 12.96134393 3 16 C0.04959234 18.06528536 -2.44648605 18.6066975 -6 18 C-9.46096583 15.40427563 -10.80125836 13.65467835 -12.0625 9.5 C-11.98656644 5.24772053 -11.0047581 3.91890787 -8 1 C-5.14675563 -0.42662219 -3.16545451 -0.31033868 0 0 Z " fill="#355973" transform="translate(84,100)"/>
<path d="M0 0 C6.66252843 -0.5552107 11.41028022 0.22876984 17 4 C20.15224513 6.74108272 22.47642125 9.10943283 24 13 C24.1953125 16.015625 24.1953125 16.015625 24.125 19.25 C24.10695313 20.32765625 24.08890625 21.4053125 24.0703125 22.515625 C24.04710938 23.33546875 24.02390625 24.1553125 24 25 C21.69 25 19.38 25 17 25 C16.97421875 24.28714844 16.9484375 23.57429688 16.921875 22.83984375 C16.5426244 16.43568016 15.98462346 12.10849162 12 7 C8.27876148 4.13456993 4.19832899 2.07105068 0 0 Z " fill="#2B4D66" transform="translate(63,0)"/>
<path d="M0 0 C1.65 0 3.3 0 5 0 C5.29530201 8.8590604 5.29530201 8.8590604 3 12 C-0.35119519 14.23413013 -1.4177755 14.23847762 -5.32421875 14.1953125 C-6.86625977 14.18564453 -6.86625977 14.18564453 -8.43945312 14.17578125 C-9.51130859 14.15902344 -10.58316406 14.14226563 -11.6875 14.125 C-12.77095703 14.11597656 -13.85441406 14.10695313 -14.97070312 14.09765625 C-17.6473571 14.0740734 -20.32356797 14.04116126 -23 14 C-23 12.68 -23 11.36 -23 10 C-21.91460937 9.95101562 -20.82921875 9.90203125 -19.7109375 9.8515625 C-18.26560216 9.77648014 -16.82029081 9.70093472 -15.375 9.625 C-14.66214844 9.5940625 -13.94929688 9.563125 -13.21484375 9.53125 C-8.82847392 9.28979845 -5.1405166 8.60657269 -1 7 C-0.67 4.69 -0.34 2.38 0 0 Z " fill="#3B5F7C" transform="translate(89,34)"/>
<path d="M0 0 C7 0 7 0 9.4375 1.1875 C11 3 11 3 11.375 5.4375 C11 8 11 8 9.875 10 C8.69689905 12.09393753 8.69689905 12.09393753 9.875 14.75 C10.24625 15.4925 10.6175 16.235 11 17 C9.68 17 8.36 17 7 17 C6.34 15.68 5.68 14.36 5 13 C4.34 13 3.68 13 3 13 C3 14.32 3 15.64 3 17 C2.01 17 1.02 17 0 17 C0 11.39 0 5.78 0 0 Z " fill="#375B76" transform="translate(95,100)"/>
<path d="M0 0 C3.6875 0.3125 3.6875 0.3125 6.1875 1.9375 C7.6875 4.3125 7.6875 4.3125 7.625 7.4375 C6.6875 10.3125 6.6875 10.3125 3.6875 12.3125 C2.3675 12.3125 1.0475 12.3125 -0.3125 12.3125 C-0.3125 13.9625 -0.3125 15.6125 -0.3125 17.3125 C-1.6325 17.3125 -2.9525 17.3125 -4.3125 17.3125 C-4.33934679 14.66659986 -4.35926357 12.02096904 -4.375 9.375 C-4.38337891 8.62025391 -4.39175781 7.86550781 -4.40039062 7.08789062 C-4.40902441 5.16255687 -4.36474333 3.23714419 -4.3125 1.3125 C-3.3125 0.3125 -3.3125 0.3125 0 0 Z " fill="#3D627E" transform="translate(61.3125,99.6875)"/>
<path d="M0 0 C0.99 0.33 1.98 0.66 3 1 C3.33 4.96 3.66 8.92 4 13 C5.65 13 7.3 13 9 13 C9 8.71 9 4.42 9 0 C10.32 0.33 11.64 0.66 13 1 C13.7745855 11.7925579 13.7745855 11.7925579 10.875 16.3125 C8 18 8 18 4.875 18 C1.88369272 16.9595453 0.82120749 16.52412968 -1 14 C-1.328125 10.8984375 -1.328125 10.8984375 -1.25 7.375 C-1.23453125 6.20710938 -1.2190625 5.03921875 -1.203125 3.8359375 C-1 1 -1 1 0 0 Z " fill="#355974" transform="translate(24,100)"/>
<path d="M0 0 C2.01822917 0.06510417 4.03645833 0.13020833 6.0546875 0.1953125 C6.0546875 5.1453125 6.0546875 10.0953125 6.0546875 15.1953125 C-0.9453125 15.1953125 -0.9453125 15.1953125 -3.9453125 13.1953125 C-4.30859375 10.6640625 -4.30859375 10.6640625 -4.2578125 7.6953125 C-4.25394531 6.715625 -4.25007813 5.7359375 -4.24609375 4.7265625 C-3.88036403 1.64873316 -3.22511565 0.32380679 0 0 Z " fill="#9ED3FD" transform="translate(38.9453125,18.8046875)"/>
<path d="M0 0 C0.33 1.32 0.66 2.64 1 4 C-1.31 3.67 -3.62 3.34 -6 3 C-4.49336217 6.01327566 -1.96833589 6.61056618 1 8 C1.35664336 13.34965035 1.35664336 13.34965035 -0.0625 15.9375 C-3.18348955 17.6490104 -5.64533884 16.79291991 -9 16 C-9.66 15.34 -10.32 14.68 -11 14 C-11 13.01 -11 12.02 -11 11 C-8.69 11.33 -6.38 11.66 -4 12 C-3.67 11.34 -3.34 10.68 -3 10 C-3.969375 9.690625 -4.93875 9.38125 -5.9375 9.0625 C-9 8 -9 8 -10 7 C-10.25 4.0625 -10.25 4.0625 -10 1 C-6.1496895 -1.56687367 -4.41430237 -0.83288724 0 0 Z " fill="#345872" transform="translate(18,101)"/>
<path d="M0 0 C7 0 7 0 8.9140625 1.21875 C10.27581985 3.45242393 10.40107113 4.89288695 10.375 7.5 C10.38273437 8.2734375 10.39046875 9.046875 10.3984375 9.84375 C10 12 10 12 8.9140625 13.78125 C7 15 7 15 0 15 C0 10.05 0 5.1 0 0 Z " fill="#9ED3FD" transform="translate(87,19)"/>
<path d="M0 0 C2.31 0 4.62 0 7 0 C7.51907013 7.03628398 6.88567332 12.02324143 3 18 C2 19 2 19 0.15234375 19.09765625 C-1.8984375 19.06510417 -3.94921875 19.03255208 -6 19 C-5.65066406 18.46632813 -5.30132812 17.93265625 -4.94140625 17.3828125 C-1.3919704 11.57098835 -0.1558892 6.78826597 0 0 Z " fill="#F1A96E" transform="translate(80,25)"/>
<path d="M0 0 C8 0 8 0 10 1.125 C11.49686954 3.93163039 11.45535315 5.87757843 11 9 C9.25 10.875 9.25 10.875 7 12 C5.68 12 4.36 12 3 12 C3 13.65 3 15.3 3 17 C2.01 17 1.02 17 0 17 C0 11.39 0 5.78 0 0 Z " fill="#3A5E7A" transform="translate(42,100)"/>
<path d="M0 0 C1.010625 0.45375 2.02125 0.9075 3.0625 1.375 C1.0825 5.665 -0.8975 9.955 -2.9375 14.375 C-6.64250184 12.89299926 -9.61012 11.466496 -12.9375 9.375 C-10.3331556 3.55651349 -6.66789409 -1.05839589 0 0 Z " fill="#EAF0F9" transform="translate(79.9375,55.625)"/>
<path d="M0 0 C0.94875 0.70125 1.8975 1.4025 2.875 2.125 C3.57625 2.74375 4.2775 3.3625 5 4 C5 4.66 5 5.32 5 6 C0.05 8.475 0.05 8.475 -5 11 C-6.03307771 9.23628182 -7.05112049 7.46374967 -8.0625 5.6875 C-8.63097656 4.70136719 -9.19945312 3.71523438 -9.78515625 2.69921875 C-11 0 -11 0 -10 -3 C-5.87451832 -5.29193426 -3.36361267 -2.53987079 0 0 Z " fill="#EDF2FA" transform="translate(60,59)"/>
<path d="M0 0 C1.98 0 3.96 0 6 0 C6.33 3.3 6.66 6.6 7 10 C8.65 9.67 10.3 9.34 12 9 C12 9.66 12 10.32 12 11 C7.38 11 2.76 11 -2 11 C-1.125 2.25 -1.125 2.25 0 0 Z " fill="#E45569" transform="translate(61,79)"/>
<path d="M0 0 C0.78375 0.474375 1.5675 0.94875 2.375 1.4375 C6.92189258 3.39736749 11.09893144 3.71910872 16 4 C15.4739075 7.78786597 14.61896089 10.17152224 12 13 C10 13 10 13 7.6875 10.75 C6.3571875 9.38875 6.3571875 9.38875 5 8 C4.071875 7.319375 3.14375 6.63875 2.1875 5.9375 C1.465625 5.298125 0.74375 4.65875 0 4 C0 2.68 0 1.36 0 0 Z " fill="#F4AA71" transform="translate(55,52)"/>
<path d="M0 0 C2.97 0 5.94 0 9 0 C9.33 1.32 9.66 2.64 10 4 C8.68 4 7.36 4 6 4 C6 8.62 6 13.24 6 18 C5.01 18 4.02 18 3 18 C3 13.38 3 8.76 3 4 C1.68 3.67 0.36 3.34 -1 3 C-0.67 2.01 -0.34 1.02 0 0 Z " fill="#30536D" transform="translate(111,100)"/>
<path d="M0 0 C3.125 0.375 3.125 0.375 6 1 C7.32841008 6.43440487 7.32841008 6.43440487 5.875 8.9375 C4 10 4 10 1.4375 9.8125 C-1 9 -1 9 -3 7 C-2.67028521 3.70285207 -2.3773161 2.3773161 0 0 Z " fill="#98CCF5" transform="translate(79,104)"/>
<path d="M0 0 C2.97 0 5.94 0 9 0 C10.45184478 4.53701494 11.23509196 8.18061476 11 13 C9.68 13 8.36 13 7 13 C6.67 9.7 6.34 6.4 6 3 C4.02 3 2.04 3 0 3 C0 2.01 0 1.02 0 0 Z " fill="#E13B52" transform="translate(61,76)"/>
<path d="M0 0 C2.3125 1.3125 2.3125 1.3125 4.3125 3.3125 C3.3225 4.7975 3.3225 4.7975 2.3125 6.3125 C0.1484375 6.60546875 0.1484375 6.60546875 -2.3125 6.5 C-3.12976563 6.47292969 -3.94703125 6.44585937 -4.7890625 6.41796875 C-5.72878906 6.36576172 -5.72878906 6.36576172 -6.6875 6.3125 C-7.0175 4.9925 -7.3475 3.6725 -7.6875 2.3125 C-3.40273619 -0.8704674 -3.40273619 -0.8704674 0 0 Z " fill="#E85367" transform="translate(67.6875,69.6875)"/>
<path d="M0 0 C0.33 0 0.66 0 1 0 C1 4.95 1 9.9 1 15 C-6 15 -6 15 -9 13 C-9.1875 10.375 -9.1875 10.375 -9 8 C-7.515 8.99 -7.515 8.99 -6 10 C-4.0103005 10.39013716 -2.00980131 10.73202649 0 11 C0 7.37 0 3.74 0 0 Z " fill="#8BBEEA" transform="translate(44,19)"/>
<path d="M0 0 C1.051875 0.4125 2.10375 0.825 3.1875 1.25 C2.1975 3.56 1.2075 5.87 0.1875 8.25 C-0.1425 7.59 -0.4725 6.93 -0.8125 6.25 C-2.47571482 5.89984951 -4.14284549 5.56802943 -5.8125 5.25 C-6.8025 4.59 -7.7925 3.93 -8.8125 3.25 C-5.5802484 -0.08019862 -4.70297908 -0.92517621 0 0 Z " fill="#D8EBF9" transform="translate(79.8125,55.75)"/>
<path d="M0 0 C0.6875 1.8125 0.6875 1.8125 1 4 C0 5.75 0 5.75 -2 7 C-5.6875 7.1875 -5.6875 7.1875 -9 7 C-9 5.68 -9 4.36 -9 3 C-7.88625 2.87625 -6.7725 2.7525 -5.625 2.625 C-1.96896323 2.3534187 -1.96896323 2.3534187 0 0 Z " fill="#86BBE9" transform="translate(96,27)"/>
<path d="M0 0 C-4.71159603 3.73678306 -8.01903338 4.11284843 -14 4 C-8.94212432 0.62808288 -6.22090367 -0.23926553 0 0 Z " fill="#F5A96D" transform="translate(76,48)"/>
</svg>
