<?xml version="1.0" encoding="UTF-8"?>
<svg version="1.1" xmlns="http://www.w3.org/2000/svg" width="128" height="128">
<path d="M0 0 C2.46691895 -0.3742218 2.46691895 -0.3742218 5.61132812 -0.37231445 C6.78594604 -0.37854324 7.96056396 -0.38477203 9.17077637 -0.39118958 C10.44473267 -0.38197983 11.71868896 -0.37277008 13.03125 -0.36328125 C14.33324341 -0.36377975 15.63523682 -0.36427826 16.97668457 -0.36479187 C19.73408566 -0.3647021 22.49119465 -0.35426392 25.24853516 -0.33618164 C28.78629062 -0.31349394 32.32361912 -0.31294973 35.86142731 -0.31969929 C39.2305838 -0.32384069 42.59960823 -0.31186978 45.96875 -0.30078125 C47.2427063 -0.30169266 48.5166626 -0.30260406 49.82922363 -0.30354309 C51.00384155 -0.29401108 52.17845947 -0.28447906 53.38867188 -0.2746582 C54.4263269 -0.27005081 55.46398193 -0.26544342 56.53308105 -0.26069641 C59 0 59 0 61 2 C61.17488447 4.50818172 61.23183624 6.90715332 61.1953125 9.4140625 C61.19329834 10.06076904 61.19128418 10.70747559 61.18920898 11.3737793 C61.17874025 13.79092495 61.1508176 16.20796956 61.125 18.625 C61.08375 24.02875 61.0425 29.4325 61 35 C40.21 35 19.42 35 -2 35 C-2.04125 29.781875 -2.0825 24.56375 -2.125 19.1875 C-2.14320801 17.54418701 -2.16141602 15.90087402 -2.18017578 14.20776367 C-2.1851709 12.91588135 -2.19016602 11.62399902 -2.1953125 10.29296875 C-2.20554443 9.61737915 -2.21577637 8.94178955 -2.22631836 8.24572754 C-2.22768004 4.58758341 -2.09067465 3.13601198 0 0 Z M19.26171875 6.515625 C15.59567287 10.4004087 13.9016676 13.49338541 14 19 C15.88757011 25.08217036 18.81570259 29.10663397 24.3125 32.375 C29.51169732 33.58411566 33.56451397 32.69013752 38.25 30.4375 C42.16271724 26.96940972 44.75050034 23.24958088 45.16015625 17.9140625 C44.78082288 13.084501 43.13728864 9.74731698 40 6 C33.28557806 0.73734497 25.73529674 0.87124689 19.26171875 6.515625 Z " fill="#2478BB" transform="translate(34,41)"/>
<path d="M0 0 C20.79 0 41.58 0 63 0 C62.67 2.31 62.34 4.62 62 7 C54.21156603 7.06943556 46.42320423 7.12277821 38.63453865 7.15543652 C35.0181296 7.17110901 31.40193192 7.19237553 27.78564453 7.22631836 C24.29730012 7.25885631 20.80915932 7.27684108 17.3206749 7.28463173 C15.33856231 7.29289269 13.35653191 7.31632087 11.37454224 7.33988953 C10.17344818 7.34011612 8.97235413 7.34034271 7.73486328 7.34057617 C6.67341095 7.34723801 5.61195862 7.35389984 4.51834106 7.36076355 C3.27176224 7.18218559 3.27176224 7.18218559 2 7 C0 4 0 4 0 0 Z M28 3 C28.33 3.66 28.66 4.32 29 5 C30.98 5 32.96 5 35 5 C35.33 4.34 35.66 3.68 36 3 C33.36 3 30.72 3 28 3 Z " fill="#1E476C" transform="translate(32,78)"/>
<path d="M0 0 C0.76953125 2.16015625 0.76953125 2.16015625 1 4 C0.34 4.33 -0.32 4.66 -1 5 C-3.07501997 4.13883732 -5.11183764 3.18473936 -7.125 2.1875 C-15.19082402 -1.80745519 -22.23022477 -3.39240344 -31.1875 -3.375 C-32.42826294 -3.37367065 -32.42826294 -3.37367065 -33.6940918 -3.37231445 C-42.18589175 -3.21004027 -49.65003478 -1.24651066 -57.20703125 2.65625 C-60 4 -60 4 -62.375 3.6875 C-62.91125 3.460625 -63.4475 3.23375 -64 3 C-63 0 -63 0 -61.13671875 -1.28125 C-43.2049734 -10.20422376 -17.10471206 -12.65820411 0 0 Z " fill="#2478BB" transform="translate(95,12)"/>
<path d="M0 0 C0.70125 -0.2475 1.4025 -0.495 2.125 -0.75 C4 -1 4 -1 6.75 0.875 C9 4 9 4 9 13 C2.07 13 -4.86 13 -12 13 C-12 4 -12 4 -9.9375 0.875 C-6.11639804 -1.56400125 -4.33272033 -0.9453208 0 0 Z " fill="#1E466C" transform="translate(112,21)"/>
<path d="M0 0 C0.70125 -0.2475 1.4025 -0.495 2.125 -0.75 C4 -1 4 -1 6.75 0.875 C9 4 9 4 9 13 C2.07 13 -4.86 13 -12 13 C-12 4 -12 4 -9.9375 0.875 C-6.11639804 -1.56400125 -4.33272033 -0.9453208 0 0 Z " fill="#1E476D" transform="translate(19,21)"/>
<path d="M0 0 C3.79868039 0.66912535 7.29244014 1.74973987 10.9375 3 C24.19940686 7.07255407 37.93605735 7.10237942 50.75390625 1.390625 C54 0 54 0 57 0 C57 1.32 57 2.64 57 4 C40.34656001 11.86162392 24.26746671 12.84445754 6.70703125 7.03515625 C4.3788097 6.14485508 2.1981903 5.1699199 0 4 C0 2.68 0 1.36 0 0 Z " fill="#2477BB" transform="translate(35,113)"/>
<path d="M0 0 C2.86328125 0.4765625 2.86328125 0.4765625 6.11328125 2.4765625 C7.86328125 5.4765625 7.86328125 5.4765625 7.86328125 13.4765625 C0.93328125 13.4765625 -5.99671875 13.4765625 -13.13671875 13.4765625 C-13.13671875 5.4765625 -13.13671875 5.4765625 -11.88671875 2.4765625 C-7.98404156 -0.36174819 -4.73578309 -0.21973108 0 0 Z " fill="#1E466C" transform="translate(20.13671875,108.5234375)"/>
<path d="M0 0 C3.1875 2 3.1875 2 5 5 C5 7.64 5 10.28 5 13 C-1.93 13 -8.86 13 -16 13 C-16 5 -16 5 -14.1875 2 C-9.51744583 -0.93023007 -5.36751797 -0.98176491 0 0 Z " fill="#1F466D" transform="translate(116,109)"/>
<path d="M0 0 C0.99 0 1.98 0 3 0 C8.34376735 13.98117747 8.52399431 29.77079983 2.90625 43.71484375 C2.01855624 45.51876429 1.0239921 47.26980646 0 49 C-0.99 48.67 -1.98 48.34 -3 48 C-2.51469146 44.31165512 -1.67506411 40.95122828 -0.5 37.4375 C2.65130374 27.08321629 2.16943552 17.47569891 0 7 C-0.38351925 5.00901429 -0.72823954 3.00929275 -1 1 C-0.67 0.67 -0.34 0.34 0 0 Z " fill="#2476BC" transform="translate(117,42)"/>
<path d="M0 0 C1.32 0.33 2.64 0.66 4 1 C3.80083984 1.87398437 3.80083984 1.87398437 3.59765625 2.765625 C0.60301013 16.66777778 0.07909869 29.6834617 5.51171875 43.09765625 C6.10047336 45.39144421 5.73713928 46.77868768 5 49 C2 48 2 48 0.90234375 46.05859375 C-4.7103549 30.81114114 -5.52416151 15.40211134 0 0 Z " fill="#2478BB" transform="translate(7,42)"/>
<path d="M0 0 C4.95 0 9.9 0 15 0 C15.33 2.97 15.66 5.94 16 9 C10.39 9 4.78 9 -1 9 C-0.67 6.03 -0.34 3.06 0 0 Z " fill="#1E476D" transform="translate(56,87)"/>
<path d="M0 0 C10.56 0 21.12 0 32 0 C32 1.32 32 2.64 32 4 C21.11 4 10.22 4 -1 4 C-0.67 2.68 -0.34 1.36 0 0 Z " fill="#1E466C" transform="translate(48,98)"/>
<path d="M0 0 C3.5 0.125 3.5 0.125 4.5 1.125 C4.5979057 2.62238124 4.62974864 4.12442892 4.625 5.625 C4.62757812 6.4396875 4.63015625 7.254375 4.6328125 8.09375 C4.5 10.125 4.5 10.125 3.5 11.125 C0 11.25 0 11.25 -3.5 11.125 C-4.5 10.125 -4.5 10.125 -4.6328125 8.09375 C-4.63023438 7.2790625 -4.62765625 6.464375 -4.625 5.625 C-4.62757812 4.8103125 -4.63015625 3.995625 -4.6328125 3.15625 C-4.40191658 -0.37509943 -3.6741554 0.13121984 0 0 Z " fill="#1D476C" transform="translate(110.5,96.875)"/>
<path d="M0 0 C3.5 0.125 3.5 0.125 4.5 1.125 C4.5979057 2.62238124 4.62974864 4.12442892 4.625 5.625 C4.62757812 6.4396875 4.63015625 7.254375 4.6328125 8.09375 C4.5 10.125 4.5 10.125 3.5 11.125 C0 11.25 0 11.25 -3.5 11.125 C-4.5 10.125 -4.5 10.125 -4.6328125 8.09375 C-4.63023438 7.2790625 -4.62765625 6.464375 -4.625 5.625 C-4.62757812 4.8103125 -4.63015625 3.995625 -4.6328125 3.15625 C-4.40191658 -0.37509943 -3.6741554 0.13121984 0 0 Z " fill="#1D456A" transform="translate(17.5,96.875)"/>
<path d="M0 0 C2.5 0.25 2.5 0.25 4.5 2.25 C4.80078125 4.125 4.80078125 4.125 4.8125 6.25 C4.82925781 6.95125 4.84601562 7.6525 4.86328125 8.375 C4.68345703 9.303125 4.68345703 9.303125 4.5 10.25 C1.5 12.25 1.5 12.25 -1.125 11.9375 C-3.5 11.25 -3.5 11.25 -4.5 10.25 C-4.77314815 4.51388889 -4.77314815 4.51388889 -4.5 2.25 C-2.5 0.25 -2.5 0.25 0 0 Z " fill="#1E466B" transform="translate(17.5,7.75)"/>
<path d="M0 0 C2.5 0.25 2.5 0.25 4.5 2.25 C4.80078125 4.125 4.80078125 4.125 4.8125 6.25 C4.82925781 6.95125 4.84601563 7.6525 4.86328125 8.375 C4.68345703 9.303125 4.68345703 9.303125 4.5 10.25 C1.5 12.25 1.5 12.25 -1.125 11.9375 C-3.5 11.25 -3.5 11.25 -4.5 10.25 C-4.77314815 4.51388889 -4.77314815 4.51388889 -4.5 2.25 C-2.5 0.25 -2.5 0.25 0 0 Z " fill="#1E476D" transform="translate(110.5,7.75)"/>
<path d="M0 0 C1.98 0 3.96 0 6 0 C6 2.31 6 4.62 6 7 C4.02 7 2.04 7 0 7 C0 4.69 0 2.38 0 0 Z " fill="#1F486E" transform="translate(57,55)"/>
<path d="M0 0 C1.65 0 3.3 0 5 0 C5 2.31 5 4.62 5 7 C3.35 7 1.7 7 0 7 C0 4.69 0 2.38 0 0 Z " fill="#1E476D" transform="translate(65,55)"/>
<path d="M0 0 C2.475 0.495 2.475 0.495 5 1 C5 2.65 5 4.3 5 6 C3.35 6.33 1.7 6.66 0 7 C0 4.69 0 2.38 0 0 Z " fill="#1F476D" transform="translate(72,55)"/>
<path d="M0 0 C1.32 0 2.64 0 4 0 C4 2.31 4 4.62 4 7 C2.35 6.67 0.7 6.34 -1 6 C-1.042721 4.33388095 -1.04063832 2.66617115 -1 1 C-0.67 0.67 -0.34 0.34 0 0 Z " fill="#1D486E" transform="translate(51,55)"/>
<path d="M0 0 C1.65 0 3.3 0 5 0 C5 2.31 5 4.62 5 7 C3.0625 6.3125 3.0625 6.3125 1 5 C0.25 2.375 0.25 2.375 0 0 Z " fill="#20466A" transform="translate(58,64)"/>
<path d="M0 0 C0.66 0 1.32 0 2 0 C2 2.31 2 4.62 2 7 C0.35 7 -1.3 7 -3 7 C-2.25 2.25 -2.25 2.25 0 0 Z " fill="#1A4565" transform="translate(61,46)"/>
<path d="M0 0 C1.32 0 2.64 0 4 0 C3.6875 2.375 3.6875 2.375 3 5 C2.01 5.66 1.02 6.32 0 7 C0 4.69 0 2.38 0 0 Z " fill="#1E466D" transform="translate(65,64)"/>
<path d="M0 0 C2 1.8125 2 1.8125 4 4 C4 4.99 4 5.98 4 7 C2.68 7 1.36 7 0 7 C0 4.69 0 2.38 0 0 Z " fill="#1C466E" transform="translate(65,46)"/>
<path d="M0 0 C0.66 0 1.32 0 2 0 C1.34 1.98 0.68 3.96 0 6 C-1.32 6 -2.64 6 -4 6 C-2.84826645 3.53199953 -1.95216435 1.95216435 0 0 Z " fill="#1B4466" transform="translate(56,47)"/>
<path d="M0 0 C1.32 0 2.64 0 4 0 C2.95125002 2.62187494 2.35068687 3.79371361 -0.125 5.25 C-0.74375 5.4975 -1.3625 5.745 -2 6 C-1.34 4.02 -0.68 2.04 0 0 Z " fill="#1B476F" transform="translate(71,64)"/>
<path d="M0 0 C1.32 0 2.64 0 4 0 C4.66 1.98 5.32 3.96 6 6 C3.37812506 4.95125002 2.20628639 4.35068687 0.75 1.875 C0.5025 1.25625 0.255 0.6375 0 0 Z " fill="#1F486E" transform="translate(52,64)"/>
<path d="M0 0 C2.62187494 1.04874998 3.79371361 1.64931313 5.25 4.125 C5.4975 4.74375 5.745 5.3625 6 6 C4.68 6 3.36 6 2 6 C1.34 4.02 0.68 2.04 0 0 Z " fill="#1D466D" transform="translate(69,47)"/>
</svg>
