<?xml version="1.0" encoding="UTF-8"?>
<svg version="1.1" xmlns="http://www.w3.org/2000/svg" width="128" height="128">
<path d="M0 0 C1.9375 1.1875 1.9375 1.1875 3 3 C3.1875 5.6875 3.1875 5.6875 3 8 C3.680625 8.2475 4.36125 8.495 5.0625 8.75 C8.56865083 10.24197908 11.71620368 12.06835511 15 14 C15 16.64 15 19.28 15 22 C15.9075 21.62875 16.815 21.2575 17.75 20.875 C21 20 21 20 23.375 20.875 C23.91125 21.24625 24.4475 21.6175 25 22 C24.79375 20.80375 24.5875 19.6075 24.375 18.375 C24.34375 16.1796875 24.34375 16.1796875 25 14 C28.2638222 11.17371918 32.54362632 8 37 8 C36.938125 7.236875 36.87625 6.47375 36.8125 5.6875 C37 3 37 3 38.0625 1.1875 C41.09375543 -0.67036623 43.53422859 -0.37133265 47 0 C48.9375 1.125 48.9375 1.125 50 3 C50.52979878 6.5572204 50.43204232 8.31593299 48.5 11.375 C45.50776833 13.31995059 43.58082775 13.08333923 40.09765625 12.875 C36.45855827 13.091855 34.02485895 15.06409027 31 17 C30.34 17 29.68 17 29 17 C29.495 20.465 29.495 20.465 30 24 C33.96 25.32 37.92 26.64 42 28 C41.814375 26.80375 41.62875 25.6075 41.4375 24.375 C41.41015625 22.17578125 41.41015625 22.17578125 42 20 C45.23493383 16.93498189 49.03981498 14.98009251 53 13 C53.5878125 11.2675 53.5878125 11.2675 54.1875 9.5 C56 6 56 6 59.4375 4.875 C63 5 63 5 65.4375 6 C67 8 67 8 67.4375 11.5 C67 15 67 15 65.7421875 16.72265625 C63.50483358 18.36304802 62.41410726 18.19650414 59.6875 17.9375 C55.00552149 17.7468657 52.72182795 19.09515868 49 22 C48.34 22 47.68 22 47 22 C47 24.64 47 27.28 47 30 C50.3 30.33 53.6 30.66 57 31 C57.495 36.445 57.495 36.445 58 42 C62.32774472 43.18029402 66.26955982 44.05987153 70.75 44.3125 C74.04615038 44.65406999 74.86674417 44.8927453 77.5625 47.0625 C79.42570247 50.86991375 79.83213728 53.83931361 79 58 C77.3125 60.9375 77.3125 60.9375 75 63 C73.33805547 63.35613097 71.671549 63.69208308 70 64 C68.93283296 65.79932579 68.93283296 65.79932579 68 68 C65.25313072 71.07003037 62.30444573 73.56842673 59 76 C54.12056897 79.60257057 50.37744858 83.47526835 46.8125 88.375 C40.93041048 96.02680909 32.4098908 101.66646831 23 104 C15.28228623 104.79226088 8.43044267 100.86758508 2 97 C0.6078125 95.6696875 0.6078125 95.6696875 -0.8125 94.3125 C-5.3541817 91.01755445 -10.10639622 90.55953834 -15.5390625 89.67578125 C-18.51464172 89.09477086 -20.36642822 88.35143815 -23 87 C-24.98970797 87.03209206 -26.97946169 87.06522848 -28.96875 87.1171875 C-32.15233665 86.93351904 -34.35527974 85.70017731 -37 84 C-39.37855399 80.43216902 -39.53212649 78.41532174 -39.45703125 74.23046875 C-38.91720146 71.59591479 -38.20160609 70.68172587 -36.1875 68.9375 C-33 67 -33 67 -30 67 C-29.835 66.319375 -29.67 65.63875 -29.5 64.9375 C-27.27821187 60.58649824 -23.71737106 58.07457564 -20 55 C-17.57921271 53.03000769 -17.57921271 53.03000769 -17.83984375 49.26171875 C-17.86248447 47.73679979 -17.89547096 46.21200779 -17.9375 44.6875 C-18.14878138 35.4615463 -18.14878138 35.4615463 -17 31 C-13.7 30.67 -10.4 30.34 -7 30 C-7 27.36 -7 24.72 -7 22 C-7.763125 21.71125 -8.52625 21.4225 -9.3125 21.125 C-12 20 -12 20 -15 18 C-17.30947912 17.9037717 -19.53883623 18.06515381 -21.84375 18.22265625 C-24 18 -24 18 -25.7578125 16.71484375 C-27.8140229 13.87623883 -27.36159242 11.37486255 -27 8 C-25.875 6.0625 -25.875 6.0625 -24 5 C-21.0625 4.5625 -21.0625 4.5625 -18 5 C-15.60954468 6.80899322 -14.16412311 7.91241084 -13.70703125 10.94140625 C-12.65939238 13.99171391 -10.76962304 14.6571259 -8 16.1875 C-3.01618123 18.98381877 -3.01618123 18.98381877 -2 20 C-1.85884839 22.67058851 -1.95752893 25.32432238 -2 28 C1.96 26.68 5.92 25.36 10 24 C10.33 21.69 10.66 19.38 11 17 C9.88625 16.566875 9.88625 16.566875 8.75 16.125 C6 15 6 15 4.1875 13.875 C1.81533455 12.92613382 0.51784341 12.99468648 -2 13.125 C-5.0643086 13.19360392 -5.81837425 13.11805674 -8.5 11.375 C-10.43204232 8.31593299 -10.52979878 6.5572204 -10 3 C-7.72054654 -1.02256493 -4.21158603 -0.45124136 0 0 Z M58 47 C57.01 55.25 56.02 63.5 55 72 C58.94092164 70.02953918 61.12249773 68.27715536 64 65 C64 64.01 64 63.02 64 62 C63.525625 61.54625 63.05125 61.0925 62.5625 60.625 C60.47160338 58.45046752 60.27777594 56.98609137 60 54 C60.4375 50.6875 60.4375 50.6875 61 48 C60.01 47.67 59.02 47.34 58 47 Z M-21.5625 62.875 C-22.20316406 63.40867188 -22.84382813 63.94234375 -23.50390625 64.4921875 C-25.23478096 65.88260353 -25.23478096 65.88260353 -25 68 C-24.360625 68.598125 -23.72125 69.19625 -23.0625 69.8125 C-20.66521603 72.35507391 -20.24629325 73.55189455 -20 77 C-20.4375 80.3125 -20.4375 80.3125 -21 83 C-19.56445975 83.50559908 -18.1264798 84.0042749 -16.6875 84.5 C-15.88699219 84.7784375 -15.08648437 85.056875 -14.26171875 85.34375 C-11.91230578 86.13933107 -11.91230578 86.13933107 -9 86 C-9.28875 85.29359375 -9.5775 84.5871875 -9.875 83.859375 C-12.94021284 76.06862569 -15.35851683 68.20741585 -17 60 C-18.87303704 60 -20.19616383 61.72120501 -21.5625 62.875 Z " fill="#83C1F6" transform="translate(44,12)"/>
<path d="M0 0 C1.9375 1.1875 1.9375 1.1875 3 3 C3.1875 5.6875 3.1875 5.6875 3 8 C3.680625 8.2475 4.36125 8.495 5.0625 8.75 C8.56865083 10.24197908 11.71620368 12.06835511 15 14 C15 16.64 15 19.28 15 22 C15.9075 21.62875 16.815 21.2575 17.75 20.875 C21 20 21 20 23.375 20.875 C23.91125 21.24625 24.4475 21.6175 25 22 C24.79375 20.80375 24.5875 19.6075 24.375 18.375 C24.34375 16.1796875 24.34375 16.1796875 25 14 C28.2638222 11.17371918 32.54362632 8 37 8 C36.938125 7.236875 36.87625 6.47375 36.8125 5.6875 C37 3 37 3 38.0625 1.1875 C41.09375543 -0.67036623 43.53422859 -0.37133265 47 0 C48.9375 1.125 48.9375 1.125 50 3 C50.52979878 6.5572204 50.43204232 8.31593299 48.5 11.375 C45.50776833 13.31995059 43.58082775 13.08333923 40.09765625 12.875 C36.45855827 13.091855 34.02485895 15.06409027 31 17 C30.34 17 29.68 17 29 17 C29.495 20.465 29.495 20.465 30 24 C33.96 25.32 37.92 26.64 42 28 C41.814375 26.80375 41.62875 25.6075 41.4375 24.375 C41.41015625 22.17578125 41.41015625 22.17578125 42 20 C45.23493383 16.93498189 49.03981498 14.98009251 53 13 C53.5878125 11.2675 53.5878125 11.2675 54.1875 9.5 C56 6 56 6 59.4375 4.875 C63 5 63 5 65.4375 6 C67 8 67 8 67.4375 11.5 C67 15 67 15 65.7421875 16.72265625 C63.50483358 18.36304802 62.41410726 18.19650414 59.6875 17.9375 C55.00552149 17.7468657 52.72182795 19.09515868 49 22 C48.34 22 47.68 22 47 22 C47 24.64 47 27.28 47 30 C50.3 30.33 53.6 30.66 57 31 C57.495 36.445 57.495 36.445 58 42 C62.32774472 43.18029402 66.26955982 44.05987153 70.75 44.3125 C74.04615038 44.65406999 74.86674417 44.8927453 77.5625 47.0625 C79.42570247 50.86991375 79.83213728 53.83931361 79 58 C77.3125 60.9375 77.3125 60.9375 75 63 C73.33805547 63.35613097 71.671549 63.69208308 70 64 C68.93283296 65.79932579 68.93283296 65.79932579 68 68 C65.25313072 71.07003037 62.30444573 73.56842673 59 76 C54.12056897 79.60257057 50.37744858 83.47526835 46.8125 88.375 C40.93041048 96.02680909 32.4098908 101.66646831 23 104 C15.28228623 104.79226088 8.43044267 100.86758508 2 97 C0.6078125 95.6696875 0.6078125 95.6696875 -0.8125 94.3125 C-5.3541817 91.01755445 -10.10639622 90.55953834 -15.5390625 89.67578125 C-18.51464172 89.09477086 -20.36642822 88.35143815 -23 87 C-24.98970797 87.03209206 -26.97946169 87.06522848 -28.96875 87.1171875 C-32.15233665 86.93351904 -34.35527974 85.70017731 -37 84 C-39.37855399 80.43216902 -39.53212649 78.41532174 -39.45703125 74.23046875 C-38.91720146 71.59591479 -38.20160609 70.68172587 -36.1875 68.9375 C-33 67 -33 67 -30 67 C-29.835 66.319375 -29.67 65.63875 -29.5 64.9375 C-27.27821187 60.58649824 -23.71737106 58.07457564 -20 55 C-17.57921271 53.03000769 -17.57921271 53.03000769 -17.83984375 49.26171875 C-17.86248447 47.73679979 -17.89547096 46.21200779 -17.9375 44.6875 C-18.14878138 35.4615463 -18.14878138 35.4615463 -17 31 C-13.7 30.67 -10.4 30.34 -7 30 C-7 27.36 -7 24.72 -7 22 C-7.763125 21.71125 -8.52625 21.4225 -9.3125 21.125 C-12 20 -12 20 -15 18 C-17.30947912 17.9037717 -19.53883623 18.06515381 -21.84375 18.22265625 C-24 18 -24 18 -25.7578125 16.71484375 C-27.8140229 13.87623883 -27.36159242 11.37486255 -27 8 C-25.875 6.0625 -25.875 6.0625 -24 5 C-21.0625 4.5625 -21.0625 4.5625 -18 5 C-15.60954468 6.80899322 -14.16412311 7.91241084 -13.70703125 10.94140625 C-12.65939238 13.99171391 -10.76962304 14.6571259 -8 16.1875 C-3.01618123 18.98381877 -3.01618123 18.98381877 -2 20 C-1.85884839 22.67058851 -1.95752893 25.32432238 -2 28 C1.96 26.68 5.92 25.36 10 24 C10.33 21.69 10.66 19.38 11 17 C9.88625 16.566875 9.88625 16.566875 8.75 16.125 C6 15 6 15 4.1875 13.875 C1.81533455 12.92613382 0.51784341 12.99468648 -2 13.125 C-5.0643086 13.19360392 -5.81837425 13.11805674 -8.5 11.375 C-10.43204232 8.31593299 -10.52979878 6.5572204 -10 3 C-7.72054654 -1.02256493 -4.21158603 -0.45124136 0 0 Z M10.625 27.6875 C2.57528608 30.93966036 -5.54422423 33.08845494 -14 35 C-14.33051528 53.2517883 -14.21498772 69.93799132 -4.19921875 85.86328125 C-1.26961056 88.70963237 0.26210168 88.67087088 4.3125 88.625 C18.53095605 88.31191327 37.23445238 85.4558567 49 77 C51.09185776 74.45520437 51.54250843 72.22323604 52 69 C52.1959375 68.03578125 52.391875 67.0715625 52.59375 66.078125 C54.4346175 55.75957821 54.18909856 45.44244285 54 35 C52.92363281 34.76925781 51.84726563 34.53851563 50.73828125 34.30078125 C42.44499115 32.46746744 34.67052113 30.36904106 26.83203125 27.05078125 C20.52250337 24.70972883 16.73648774 25.06677522 10.625 27.6875 Z M58 47 C57.01 55.25 56.02 63.5 55 72 C58.94092164 70.02953918 61.12249773 68.27715536 64 65 C64 64.01 64 63.02 64 62 C63.525625 61.54625 63.05125 61.0925 62.5625 60.625 C60.47160338 58.45046752 60.27777594 56.98609137 60 54 C60.4375 50.6875 60.4375 50.6875 61 48 C60.01 47.67 59.02 47.34 58 47 Z M-21.5625 62.875 C-22.20316406 63.40867188 -22.84382813 63.94234375 -23.50390625 64.4921875 C-25.23478096 65.88260353 -25.23478096 65.88260353 -25 68 C-24.360625 68.598125 -23.72125 69.19625 -23.0625 69.8125 C-20.66521603 72.35507391 -20.24629325 73.55189455 -20 77 C-20.4375 80.3125 -20.4375 80.3125 -21 83 C-19.56445975 83.50559908 -18.1264798 84.0042749 -16.6875 84.5 C-15.88699219 84.7784375 -15.08648437 85.056875 -14.26171875 85.34375 C-11.91230578 86.13933107 -11.91230578 86.13933107 -9 86 C-9.28875 85.29359375 -9.5775 84.5871875 -9.875 83.859375 C-12.94021284 76.06862569 -15.35851683 68.20741585 -17 60 C-18.87303704 60 -20.19616383 61.72120501 -21.5625 62.875 Z " fill="#2D4051" transform="translate(44,12)"/>
<path d="M0 0 C4.10311383 1.47981155 6.49128505 3.24513266 8.9375 6.875 C10.04427912 10.13023271 10.24372301 12.58787784 10 16 C10.639375 16.103125 11.27875 16.20625 11.9375 16.3125 C12.618125 16.539375 13.29875 16.76625 14 17 C14.495 18.485 14.495 18.485 15 20 C17.97 20 20.94 20 24 20 C24 21.32 24 22.64 24 24 C21.03 24 18.06 24 15 24 C15 25.32 15 26.64 15 28 C17.97 28 20.94 28 24 28 C24 28.99 24 29.98 24 31 C21.03 31 18.06 31 15 31 C15 32.65 15 34.3 15 36 C17.97 36 20.94 36 24 36 C24 36.99 24 37.98 24 39 C21.03 39 18.06 39 15 39 C14.67 40.32 14.34 41.64 14 43 C2.78 43 -8.44 43 -20 43 C-20.33 41.68 -20.66 40.36 -21 39 C-23.97 39 -26.94 39 -30 39 C-30 38.01 -30 37.02 -30 36 C-27.03 36 -24.06 36 -21 36 C-21 34.35 -21 32.7 -21 31 C-23.97 31 -26.94 31 -30 31 C-30 30.01 -30 29.02 -30 28 C-27.03 28 -24.06 28 -21 28 C-21 26.68 -21 25.36 -21 24 C-23.97 24 -26.94 24 -30 24 C-30 22.68 -30 21.36 -30 20 C-27.03 20 -24.06 20 -21 20 C-20.34 18.68 -19.68 17.36 -19 16 C-18.01 16 -17.02 16 -16 16 C-15.97873047 15.11248047 -15.97873047 15.11248047 -15.95703125 14.20703125 C-15.69126053 9.80385693 -15.47323998 7.58532313 -12.625 4.0625 C-8.05612631 0.47267067 -5.85850798 -0.5858508 0 0 Z " fill="#334858" transform="translate(67,46)"/>
<path d="M0 0 C9.9 0 19.8 0 30 0 C30 6.27 30 12.54 30 19 C20.1 19 10.2 19 0 19 C0 12.73 0 6.46 0 0 Z " fill="#FBDE76" transform="translate(49,66)"/>
<path d="M0 0 C0.66 0.33 1.32 0.66 2 1 C-4.17262151 9.1218704 -12.1774242 14.21693686 -22 17 C-26.54720554 16.60405285 -29.84888644 15.28017161 -33.8125 13.0625 C-34.76769531 12.53785156 -35.72289062 12.01320313 -36.70703125 11.47265625 C-39 10 -39 10 -40 8 C-39.28199219 7.97421875 -38.56398437 7.9484375 -37.82421875 7.921875 C-30.7905124 7.53646643 -24.07664697 6.56313388 -17.1875 5.125 C-16.40012451 4.96354492 -15.61274902 4.80208984 -14.80151367 4.63574219 C-10.90608933 3.79167212 -7.25951578 2.77413877 -3.55078125 1.3046875 C-2.37902344 0.87414062 -1.20726562 0.44359375 0 0 Z " fill="#84C2F6" transform="translate(87,95)"/>
<path d="M0 0 C3.5060303 0.86943897 4.94966563 2.56083702 6.9375 5.48046875 C6.9375 7.79046875 6.9375 10.10046875 6.9375 12.48046875 C0.9975 12.48046875 -4.9425 12.48046875 -11.0625 12.48046875 C-11.0625 5.48046875 -11.0625 5.48046875 -9.0625 2.54296875 C-5.72661401 0.24954713 -3.96265906 -0.27768634 0 0 Z " fill="#86C5FA" transform="translate(66.0625,49.51953125)"/>
<path d="M0 0 C1.8125 1.125 1.8125 1.125 3 3 C3.4375 6 3.4375 6 3 9 C1.3125 10.9375 1.3125 10.9375 -1 12 C-4.37036311 11.75925978 -5.58798021 11.41201979 -8 9 C-8.333728 5.86295684 -8.52849028 3.83445834 -6.8125 1.125 C-4.34492892 -0.40659584 -2.85480169 -0.42822025 0 0 Z " fill="#F6DA75" transform="translate(116,60)"/>
<path d="M0 0 C1 1 1 1 1.1875 4.4375 C1 8 1 8 -1 10 C-4.5 10.3125 -4.5 10.3125 -8 10 C-10.15502531 6.76746204 -10.46856135 5.74849077 -10 2 C-7.59027568 -2.25245468 -4.23782457 -0.94173879 0 0 Z " fill="#F9DC75" transform="translate(19,84)"/>
<path d="M0 0 C-1.50349377 3.66786393 -3.63728792 5.68910393 -6.625 8.25 C-7.44226563 8.95640625 -8.25953125 9.6628125 -9.1015625 10.390625 C-10.04128906 11.18726562 -10.04128906 11.18726562 -11 12 C-14.31256928 10.46006593 -16.07771233 9.17177465 -18 6 C-18 5.01 -18 4.02 -18 3 C-16.0625 3.3125 -16.0625 3.3125 -14 4 C-13.67 4.99 -13.34 5.98 -13 7 C-8.93033501 4.4420258 -8.93033501 4.4420258 -5.375 1.25 C-4 0 -4 0 0 0 Z " fill="#384951" transform="translate(73,70)"/>
<path d="M0 0 C1.98 0.495 1.98 0.495 4 1 C3.67 2.32 3.34 3.64 3 5 C1.68 4.67 0.36 4.34 -1 4 C-0.67 2.68 -0.34 1.36 0 0 Z " fill="#E8CF72" transform="translate(103,21)"/>
<path d="M0 0 C1.98 0.495 1.98 0.495 4 1 C3.67 2.32 3.34 3.64 3 5 C1.68 4.67 0.36 4.34 -1 4 C-0.67 2.68 -0.34 1.36 0 0 Z " fill="#E7CF72" transform="translate(22,21)"/>
<path d="M0 0 C1.98 0.495 1.98 0.495 4 1 C3.67 2.32 3.34 3.64 3 5 C1.68 4.67 0.36 4.34 -1 4 C-0.67 2.68 -0.34 1.36 0 0 Z " fill="#E7CE72" transform="translate(86,16)"/>
<path d="M0 0 C1.98 0.495 1.98 0.495 4 1 C3.67 2.32 3.34 3.64 3 5 C1.68 4.67 0.36 4.34 -1 4 C-0.67 2.68 -0.34 1.36 0 0 Z " fill="#E6CE72" transform="translate(39,16)"/>
</svg>
