<?xml version="1.0" encoding="UTF-8"?>
<svg version="1.1" xmlns="http://www.w3.org/2000/svg" width="128" height="128">
<path d="M0 0 C0.66 1.32 1.32 2.64 2 4 C3.53720703 3.93039063 3.53720703 3.93039063 5.10546875 3.859375 C6.46611656 3.82183989 7.82679605 3.78544159 9.1875 3.75 C9.86103516 3.71648437 10.53457031 3.68296875 11.22851562 3.6484375 C14.84777691 3.57781777 16.83110351 3.89446788 19.92578125 5.828125 C23.60577024 9.68137148 23.12340768 13.66964428 23.0625 18.6875 C23.05798828 19.38939453 23.05347656 20.09128906 23.04882812 20.81445312 C23.03706927 22.54300538 23.01913454 24.27151365 23 26 C26.96 26.66 30.92 27.32 35 28 C35.99 26.35 36.98 24.7 38 23 C41.29370921 21.35314539 44.93002032 21.54605834 48.56640625 21.28125 C50.94543305 21.26165078 50.94543305 21.26165078 52 20 C52.36760731 17.67182036 52.70241581 15.3381615 53 13 C52.360625 12.814375 51.72125 12.62875 51.0625 12.4375 C49 11 49 11 48.0625 7.625 C48 4 48 4 48.9375 1.5625 C51.70085101 -0.53094774 53.72489942 -0.51250592 57.125 -0.3125 C59 0 59 0 61 1.0625 C62.56646819 4.09753213 62.2989878 6.65133668 62 10 C61.34 10.99 60.68 11.98 60 13 C59.34 13 58.68 13 58 13 C58.04640625 13.67546875 58.0928125 14.3509375 58.140625 15.046875 C58.17671875 15.93890625 58.2128125 16.8309375 58.25 17.75 C58.29640625 18.63171875 58.3428125 19.5134375 58.390625 20.421875 C58 23 58 23 56.40625 25.28125 C53.2744609 27.51824221 51.06919698 27.59723212 47.25 27.75 C46.07953125 27.80671875 44.9090625 27.8634375 43.703125 27.921875 C42.81109375 27.94765625 41.9190625 27.9734375 41 28 C40.67 29.32 40.34 30.64 40 32 C40.57878906 32.25910156 41.15757813 32.51820312 41.75390625 32.78515625 C49.76479555 37.11800246 54.07411727 44.64435412 57 53 C57 53.66 57 54.32 57 55 C59.64624284 54.85978195 62.29184578 54.71310224 64.9375 54.5625 C65.69224609 54.52318359 66.44699219 54.48386719 67.22460938 54.44335938 C70.91944187 54.55961976 70.91944187 54.55961976 74 53 C74.15091913 51.19187276 74.22169008 49.37669383 74.25 47.5625 C74.27578125 46.57378906 74.3015625 45.58507813 74.328125 44.56640625 C74.21984375 43.71949219 74.1115625 42.87257812 74 42 C72.515 41.01 72.515 41.01 71 40 C70 36.6875 70 36.6875 70 33 C72 30 72 30 75 28 C79.02034924 28.06814151 81.1176825 28.1176825 84 31 C84.44370229 36.59064885 84.44370229 36.59064885 84 39 C83.50757812 39.43570313 83.01515625 39.87140625 82.5078125 40.3203125 C79.6032114 43.55600802 80.56944604 48.4971212 80.50390625 52.65234375 C80 56 80 56 78.54296875 58.42578125 C74.69498356 60.80786732 71.17582989 60.42979934 66.75 60.25 C65.48929688 60.22292969 65.48929688 60.22292969 64.203125 60.1953125 C62.13492605 60.14830798 60.06731559 60.07656724 58 60 C58.02320312 60.64066406 58.04640625 61.28132813 58.0703125 61.94140625 C58.08835937 62.80636719 58.10640625 63.67132813 58.125 64.5625 C58.14820312 65.40941406 58.17140625 66.25632812 58.1953125 67.12890625 C57.95843452 70.61101255 57.04272918 73.67886652 56 77 C56.87736816 76.9685791 56.87736816 76.9685791 57.77246094 76.93652344 C60.43146465 76.85319885 63.09019355 76.80129103 65.75 76.75 C66.67039062 76.71648437 67.59078125 76.68296875 68.5390625 76.6484375 C75.30068898 76.55044291 75.30068898 76.55044291 78.625 78.6875 C80.27244817 81.45820829 80.41838955 83.05059846 80.25 86.25 C80.21390625 87.14203125 80.1778125 88.0340625 80.140625 88.953125 C80.09421875 89.62859375 80.0478125 90.3040625 80 91 C81.98 91.99 81.98 91.99 84 93 C84.36010591 100.32215357 84.36010591 100.32215357 82.9375 103 C79.78136563 104.62897258 77.47848951 104.48820905 74 104 C71.5 101.875 71.5 101.875 70 99 C70.0625 95.875 70.0625 95.875 71 93 C71.515625 92.525625 72.03125 92.05125 72.5625 91.5625 C74.78989929 89.49527398 74.78989929 89.49527398 74 83 C67.07 82.67 60.14 82.34 53 82 C52.34 83.65 51.68 85.3 51 87 C48.90625 89.45703125 48.90625 89.45703125 46.5 91.8125 C45.7059375 92.60269531 44.911875 93.39289063 44.09375 94.20703125 C42 96 42 96 40 96 C40.33 97.32 40.66 98.64 41 100 C43.01822917 100.45572917 45.03645833 100.91145833 47.0546875 101.3671875 C49 102 49 102 51 104 C51.1953125 106.6015625 51.1953125 106.6015625 51.125 109.625 C51.10695313 110.62789063 51.08890625 111.63078125 51.0703125 112.6640625 C51.04710938 113.43492188 51.02390625 114.20578125 51 115 C51.64066406 115.26039062 52.28132813 115.52078125 52.94140625 115.7890625 C55 117 55 117 55.9375 120.375 C56 124 56 124 55.0625 126.4375 C52.29914899 128.53094774 50.27510058 128.51250592 46.875 128.3125 C45 128 45 128 43 126.9375 C41.43353181 123.90246787 41.7010122 121.34866332 42 118 C42.99 116.515 42.99 116.515 44 115 C44.66 115 45.32 115 46 115 C46 112.36 46 109.72 46 107 C44.7625 106.773125 43.525 106.54625 42.25 106.3125 C38.07965475 105.2994906 36.32446864 103.68040867 34 100 C28.555 100.99 28.555 100.99 23 102 C22.79375 103.19625 22.5875 104.3925 22.375 105.625 C21.15607808 110.56207223 18.86270391 112.76794163 15 116 C11.94080612 117.01973129 9.87581975 117.11533602 6.67578125 117.09765625 C5.64775391 117.09443359 4.61972656 117.09121094 3.56054688 117.08789062 C2.48869141 117.07951172 1.41683594 117.07113281 0.3125 117.0625 C-0.77095703 117.05798828 -1.85441406 117.05347656 -2.97070312 117.04882812 C-5.64719085 117.03703743 -8.32356777 117.02058063 -11 117 C-11.26039062 117.64066406 -11.52078125 118.28132813 -11.7890625 118.94140625 C-13 121 -13 121 -16.375 121.9375 C-20 122 -20 122 -22.375 120.9375 C-24.58408687 118.30358873 -24.86086022 116.40892449 -25 113 C-24.03394425 110.25045672 -23.61984486 109.30992243 -21 108 C-17.5625 107.75 -17.5625 107.75 -14 108 C-13.29302979 108.73682007 -13.29302979 108.73682007 -12.57177734 109.48852539 C-9.48256876 112.45921354 -4.68634781 111.46768569 -0.625 111.4375 C0.32117187 111.45748047 1.26734375 111.47746094 2.2421875 111.49804688 C6.51830705 111.49504398 9.2659104 111.41422279 13.0390625 109.28515625 C15.0666574 106.92232156 16.09393877 104.96529128 17 102 C16.31035156 101.91363281 15.62070312 101.82726562 14.91015625 101.73828125 C8.07286586 100.71597034 0.3386012 99.11732717 -4.25708008 93.44970703 C-6.72980164 91.3929735 -8.57642809 91.56912619 -11.76171875 91.48828125 C-12.87998047 91.45283203 -13.99824219 91.41738281 -15.15039062 91.38085938 C-16.31763672 91.35830078 -17.48488281 91.33574219 -18.6875 91.3125 C-19.86634766 91.27833984 -21.04519531 91.24417969 -22.25976562 91.20898438 C-25.17308225 91.12642075 -28.08609466 91.05729678 -31 91 C-31.33 91.99 -31.66 92.98 -32 94 C-35.04983996 95.52491998 -37.6423369 95.23562548 -41 95 C-42.9375 94 -42.9375 94 -44 92 C-44.46000079 89.23999526 -44.50420748 86.75595226 -44 84 C-42.4375 81.9375 -42.4375 81.9375 -40 81 C-36.375 81.0625 -36.375 81.0625 -33 82 C-32.34 83.32 -31.68 84.64 -31 86 C-24.73 86 -18.46 86 -12 86 C-12.804375 84.288125 -13.60875 82.57625 -14.4375 80.8125 C-19.08735789 70.91664859 -19.32228562 60.73846682 -15.94921875 50.3515625 C-14.79058847 47.48121094 -13.41537477 44.75145684 -12 42 C-12.92941406 42.04640625 -13.85882812 42.0928125 -14.81640625 42.140625 C-27.42343344 42.50871339 -27.42343344 42.50871339 -33 38 C-37.39737661 33.80250415 -38.8342822 30.1550798 -40.2265625 24.26953125 C-41.08199559 21.75939679 -42.15008793 20.82974954 -44 19 C-44.38991688 14.63293092 -44.46324069 12.69486103 -42 9 C-38.52839484 7.91994506 -36.62943761 7.77619996 -33.1875 9 C-31 11 -31 11 -30 14.4375 C-30 18 -30 18 -31.3125 20.4375 C-33 22 -33 22 -35 22 C-32.88479554 27.53025524 -31.24067659 31.77496825 -26 35 C-22.21959872 36.26013376 -18.62959239 36.30131603 -14.6875 36.375 C-13.56698242 36.43107422 -13.56698242 36.43107422 -12.42382812 36.48828125 C-6.47440279 36.58230202 -4.26065321 35.08388791 0 31 C5.47352104 27.80241039 10.71709008 26.4569389 17 26 C16.88658509 23.51979503 16.75985314 21.04155031 16.625 18.5625 C16.5940625 17.85544922 16.563125 17.14839844 16.53125 16.41992188 C16.42719371 14.60760812 16.22080108 12.80182012 16 11 C13.29816945 9.64908472 10.88191794 9.66141942 7.875 9.4375 C6.23144531 9.31181641 6.23144531 9.31181641 4.5546875 9.18359375 C3.71164063 9.12300781 2.86859375 9.06242188 2 9 C1.72929688 9.64195313 1.45859375 10.28390625 1.1796875 10.9453125 C0 13 0 13 -2.875 13.875 C-6.07068007 14.0028272 -7.41974181 13.81573725 -10 12 C-11.52491998 8.95016004 -11.23562548 6.3576631 -11 3 C-8.76467814 -1.3309361 -4.26119511 -0.20956697 0 0 Z " fill="#5469E0" transform="translate(44,0)"/>
<path d="M0 0 C3.71886751 2.06073026 6.16397959 4.69144631 8.4375 8.25 C9.30467064 12.48950091 9.15065476 16.68959981 9 21 C10.32 21 11.64 21 13 21 C13 29.91 13 38.82 13 48 C1.12 48 -10.76 48 -23 48 C-23 39.09 -23 30.18 -23 21 C-21.68 21 -20.36 21 -19 21 C-19.05220703 20.02160156 -19.05220703 20.02160156 -19.10546875 19.0234375 C-19.33112008 11.73812305 -18.40275625 7.6957753 -13.4375 2.125 C-9.35319512 -0.99410845 -4.89642528 -1.0984082 0 0 Z " fill="#9DE4F7" transform="translate(69,38)"/>
<path d="M0 0 C1.9375 1.625 1.9375 1.625 3 4 C2.9375 7.625 2.9375 7.625 2 11 C-0.05859375 12.2109375 -0.05859375 12.2109375 -2 13 C0.11520446 18.53025524 1.75932341 22.77496825 7 26 C10.71279469 27.23759823 14.31306346 27.35608897 18.1875 27.5625 C18.93708984 27.60568359 19.68667969 27.64886719 20.45898438 27.69335938 C22.30578375 27.79922685 24.15286834 27.9000976 26 28 C24.125 31.875 24.125 31.875 23 33 C6.15505389 34.19760106 6.15505389 34.19760106 0 29 C-4.39737661 24.80250415 -5.8342822 21.1550798 -7.2265625 15.26953125 C-8.08199559 12.75939679 -9.15008793 11.82974954 -11 10 C-11.38991688 5.63293092 -11.46324069 3.69486103 -9 0 C-5.4314543 -1.18951523 -3.60804584 -0.97717908 0 0 Z " fill="#9DEAF8" transform="translate(11,9)"/>
<path d="M0 0 C3.43403788 2.00011167 6.21175747 4.42351494 8 8 C8.07092842 10.2072923 8.08415025 12.41667452 8.0625 14.625 C8.05347656 15.81351563 8.04445313 17.00203125 8.03515625 18.2265625 C8.02355469 19.14179687 8.01195313 20.05703125 8 21 C5.36 21 2.72 21 0 21 C-0.04898438 20.30132812 -0.09796875 19.60265625 -0.1484375 18.8828125 C-0.22320312 17.97273438 -0.29796875 17.06265625 -0.375 16.125 C-0.44460937 15.22007813 -0.51421875 14.31515625 -0.5859375 13.3828125 C-0.79568132 10.82058097 -0.79568132 10.82058097 -3 9 C-6.30683466 9.28983269 -6.30683466 9.28983269 -9 11 C-9.23287008 12.68183948 -9.41264166 14.3712416 -9.5625 16.0625 C-9.64628906 16.98160156 -9.73007812 17.90070312 -9.81640625 18.84765625 C-9.87699219 19.55792969 -9.93757813 20.26820312 -10 21 C-12.64 21 -15.28 21 -18 21 C-18.91545316 9.72636383 -18.91545316 9.72636383 -16.734375 5.61328125 C-11.88538076 -0.00072421 -7.35863397 -1.1971509 0 0 Z " fill="#FDFDFE" transform="translate(69,38)"/>
<path d="M0 0 C2.475 0.495 2.475 0.495 5 1 C3.8464335 7.69068569 2.22579994 10.62739189 -3 15 C-6.05919388 16.01973129 -8.12418025 16.11533602 -11.32421875 16.09765625 C-12.35224609 16.09443359 -13.38027344 16.09121094 -14.43945312 16.08789062 C-15.51130859 16.07951172 -16.58316406 16.07113281 -17.6875 16.0625 C-18.77095703 16.05798828 -19.85441406 16.05347656 -20.97070312 16.04882812 C-23.64719085 16.03703743 -26.32356777 16.02058063 -29 16 C-29.26039062 16.64066406 -29.52078125 17.28132813 -29.7890625 17.94140625 C-31 20 -31 20 -34.375 20.9375 C-38 21 -38 21 -40.375 19.9375 C-42.58408687 17.30358873 -42.86086022 15.40892449 -43 12 C-42.03394425 9.25045672 -41.61984486 8.30992243 -39 7 C-35.5625 6.75 -35.5625 6.75 -32 7 C-31.52868652 7.49121338 -31.05737305 7.98242676 -30.57177734 8.48852539 C-27.48256876 11.45921354 -22.68634781 10.46768569 -18.625 10.4375 C-17.67882812 10.45748047 -16.73265625 10.47746094 -15.7578125 10.49804688 C-11.40673114 10.49499134 -8.74084529 10.44298944 -4.94921875 8.17578125 C-2.68199536 5.6450329 -1.34295623 3.11000389 0 0 Z " fill="#9DE9F8" transform="translate(62,101)"/>
<path d="M0 0 C0.66 1.32 1.32 2.64 2 4 C3.53720703 3.93039063 3.53720703 3.93039063 5.10546875 3.859375 C6.46611656 3.82183989 7.82679605 3.78544159 9.1875 3.75 C9.86103516 3.71648437 10.53457031 3.68296875 11.22851562 3.6484375 C14.84777691 3.57781777 16.83110351 3.89446788 19.92578125 5.828125 C23.60577024 9.68137148 23.12340768 13.66964428 23.0625 18.6875 C23.05798828 19.38939453 23.05347656 20.09128906 23.04882812 20.81445312 C23.03706927 22.54300538 23.01913454 24.27151365 23 26 C21.34385343 26.38218767 19.67542976 26.71395102 18 27 C15.83574775 24.83574775 16.59729998 19.4251703 16.48242188 16.37109375 C16.39075776 14.57586061 16.20240144 12.78614053 16 11 C13.29816945 9.64908472 10.88191794 9.66141942 7.875 9.4375 C6.23144531 9.31181641 6.23144531 9.31181641 4.5546875 9.18359375 C3.71164063 9.12300781 2.86859375 9.06242188 2 9 C1.72929688 9.64195313 1.45859375 10.28390625 1.1796875 10.9453125 C0 13 0 13 -2.875 13.875 C-6.07068007 14.0028272 -7.41974181 13.81573725 -10 12 C-11.52491998 8.95016004 -11.23562548 6.3576631 -11 3 C-8.76467814 -1.3309361 -4.26119511 -0.20956697 0 0 Z " fill="#9DE9F8" transform="translate(44,0)"/>
<path d="M0 0 C3.3125 0.9375 3.3125 0.9375 5.3125 2.9375 C5.75620229 8.52814885 5.75620229 8.52814885 5.3125 10.9375 C4.82007812 11.37320313 4.32765625 11.80890625 3.8203125 12.2578125 C0.9157114 15.49350802 1.88194604 20.4346212 1.81640625 24.58984375 C1.3125 27.9375 1.3125 27.9375 -0.11328125 30.36328125 C-4.09589184 32.79877756 -7.87164743 32.36285032 -12.4375 32.1875 C-13.76974609 32.16042969 -13.76974609 32.16042969 -15.12890625 32.1328125 C-17.31620848 32.08577374 -19.50129816 32.02007009 -21.6875 31.9375 C-21.6875 30.2875 -21.6875 28.6375 -21.6875 26.9375 C-20.54410156 26.87691406 -19.40070313 26.81632812 -18.22265625 26.75390625 C-16.73175695 26.66951572 -15.24087225 26.58486698 -13.75 26.5 C-12.99525391 26.46068359 -12.24050781 26.42136719 -11.46289062 26.38085938 C-7.76805813 26.49711976 -7.76805813 26.49711976 -4.6875 24.9375 C-4.53658087 23.12937276 -4.46580992 21.31419383 -4.4375 19.5 C-4.41171875 18.51128906 -4.3859375 17.52257812 -4.359375 16.50390625 C-4.46765625 15.65699219 -4.5759375 14.81007813 -4.6875 13.9375 C-5.6775 13.2775 -6.6675 12.6175 -7.6875 11.9375 C-8.6875 8.625 -8.6875 8.625 -8.6875 4.9375 C-6.02788833 0.94808249 -4.85102141 -0.0822207 0 0 Z " fill="#9DEBF9" transform="translate(122.6875,28.0625)"/>
<path d="M0 0 C3.41637953 -0.11632513 6.83224897 -0.18728897 10.25 -0.25 C11.70212891 -0.30027344 11.70212891 -0.30027344 13.18359375 -0.3515625 C20.29227539 -0.44961328 20.29227539 -0.44961328 23.65625 1.6875 C25.26473931 4.45559788 25.41732961 6.07073747 25.25 9.25 C25.21390625 10.14203125 25.1778125 11.0340625 25.140625 11.953125 C25.07101563 12.96632813 25.07101563 12.96632813 25 14 C26.32 14.66 27.64 15.32 29 16 C29.36010591 23.32215357 29.36010591 23.32215357 27.9375 26 C24.78136563 27.62897258 22.47848951 27.48820905 19 27 C16.5 24.875 16.5 24.875 15 22 C15.0625 18.875 15.0625 18.875 16 16 C16.515625 15.525625 17.03125 15.05125 17.5625 14.5625 C19.78989929 12.49527398 19.78989929 12.49527398 19 6 C12.07 5.67 5.14 5.34 -2 5 C-1.34 3.35 -0.68 1.7 0 0 Z " fill="#9CE8F8" transform="translate(99,77)"/>
<path d="M0 0 C1.875 0.3125 1.875 0.3125 3.875 1.375 C5.44146819 4.41003213 5.1739878 6.96383668 4.875 10.3125 C3.885 11.7975 3.885 11.7975 2.875 13.3125 C2.215 13.3125 1.555 13.3125 0.875 13.3125 C0.92140625 13.98796875 0.9678125 14.6634375 1.015625 15.359375 C1.06976563 16.69742187 1.06976563 16.69742187 1.125 18.0625 C1.17140625 18.94421875 1.2178125 19.8259375 1.265625 20.734375 C0.875 23.3125 0.875 23.3125 -0.7265625 25.609375 C-4.63001865 28.38121031 -8.57815517 27.80196656 -13.2265625 27.84375 C-14.18304688 27.9984375 -15.13953125 28.153125 -16.125 28.3125 C-17.59789223 30.23327756 -17.59789223 30.23327756 -18.125 32.3125 C-19.445 31.6525 -20.765 30.9925 -22.125 30.3125 C-20.5 24.5625 -20.5 24.5625 -17.125 22.3125 C-14.4609375 21.93359375 -14.4609375 21.93359375 -11.5 21.75 C-7.9999469 21.80974871 -7.9999469 21.80974871 -5.125 20.3125 C-4.75739269 17.98432036 -4.42258419 15.6506615 -4.125 13.3125 C-4.764375 13.126875 -5.40375 12.94125 -6.0625 12.75 C-8.125 11.3125 -8.125 11.3125 -9.0625 7.9375 C-9.125 4.3125 -9.125 4.3125 -8.1875 1.875 C-5.42414899 -0.21844774 -3.40010058 -0.20000592 0 0 Z " fill="#9DEAF9" transform="translate(101.125,-0.3125)"/>
<path d="M0 0 C3.3125 0.9375 3.3125 0.9375 5.3125 2.9375 C5.86489643 9.89769496 5.86489643 9.89769496 4.25 12.9375 C1.21496787 14.50396819 -1.33883668 14.2364878 -4.6875 13.9375 C-7.6875 11.9375 -7.6875 11.9375 -8.6875 8.625 C-8.6875 4.9375 -8.6875 4.9375 -6.6875 1.9375 C-3.6875 -0.0625 -3.6875 -0.0625 0 0 Z " fill="#556AE0" transform="translate(122.6875,28.0625)"/>
<path d="M0 0 C1.9375 1.625 1.9375 1.625 3 4 C2.67272727 10.32727273 2.67272727 10.32727273 0 13 C-6.96019496 13.55239643 -6.96019496 13.55239643 -10 11.9375 C-11.56646819 8.90246787 -11.2989878 6.34866332 -11 3 C-7.89285592 -1.66071612 -5.11474757 -1.38524413 0 0 Z " fill="#5469E0" transform="translate(11,9)"/>
<path d="M0 0 C1.9375 1 1.9375 1 3 3 C3.46000079 5.76000474 3.50420748 8.24404774 3 11 C1.4375 13.0625 1.4375 13.0625 -1 14 C-4.5625 14 -4.5625 14 -8 13 C-10.36604164 10.33820316 -11.04466185 8.93789883 -10.875 5.375 C-8.77325752 -0.32972958 -5.8986525 -0.63199848 0 0 Z " fill="#5368E0" transform="translate(30,108)"/>
<path d="M0 0 C6.33756589 -0.01040651 6.33756589 -0.01040651 9.06640625 1.99609375 C10.30698529 5.4519925 9.79073592 7.90560898 8.94140625 11.43359375 C6.94140625 13.43359375 6.94140625 13.43359375 3.00390625 13.74609375 C0.50348731 13.66441037 -0.83065176 13.55468793 -3.05859375 12.37109375 C-4.62506194 9.33606162 -4.35758155 6.78225707 -4.05859375 3.43359375 C-2.05859375 0.43359375 -2.05859375 0.43359375 0 0 Z " fill="#5368E0" transform="translate(90.05859375,114.56640625)"/>
<path d="M0 0 C2.42522207 2.42522207 2.29629254 3.1720679 2.3125 6.5 C2.33763672 7.69109375 2.33763672 7.69109375 2.36328125 8.90625 C2.24339844 9.5971875 2.12351562 10.288125 2 11 C-1.69486103 13.46324069 -3.63293092 13.38991688 -8 13 C-9.9375 12 -9.9375 12 -11 10 C-11.46000079 7.23999526 -11.50420748 4.75595226 -11 2 C-7.93817059 -2.04161482 -4.56939437 -1.10003939 0 0 Z " fill="#5368E0" transform="translate(11,82)"/>
<path d="M0 0 C2.50041894 0.08168338 3.83455801 0.19140582 6.0625 1.375 C7.62896819 4.41003213 7.3614878 6.96383668 7.0625 10.3125 C5.0625 13.3125 5.0625 13.3125 3.00390625 13.74609375 C-3.33365964 13.75650026 -3.33365964 13.75650026 -6.0625 11.75 C-7.30307904 8.29410125 -6.78682967 5.84048477 -5.9375 2.3125 C-3.9375 0.3125 -3.9375 0.3125 0 0 Z " fill="#5469E0" transform="translate(98.9375,-0.3125)"/>
<path d="M0 0 C2.40346379 2.40346379 2.32083747 3.13900195 2.375 6.4375 C2.25977203 10.64671004 2.25977203 10.64671004 0.4375 13.125 C-3.04906873 14.37658877 -5.45212472 13.91981952 -9 13 C-11.46324069 9.30513897 -11.38991688 7.36706908 -11 3 C-8.75710073 -1.34561734 -4.26890597 -0.33880206 0 0 Z " fill="#5368E0" transform="translate(44,0)"/>
<path d="M0 0 C1.19109375 0.00773437 1.19109375 0.00773437 2.40625 0.015625 C3.2003125 0.01046875 3.994375 0.0053125 4.8125 0 C6.90625 0.265625 6.90625 0.265625 8.90625 2.265625 C9.45864643 9.22581996 9.45864643 9.22581996 7.84375 12.265625 C4.68761563 13.89459758 2.38473951 13.75383405 -1.09375 13.265625 C-3.59375 11.140625 -3.59375 11.140625 -5.09375 8.265625 C-4.93469504 4.2097234 -4.65740712 0.59086508 0 0 Z " fill="#5369DF" transform="translate(119.09375,90.734375)"/>
<path d="M0 0 C0.165 0.61875 0.33 1.2375 0.5 1.875 C2.58518402 4.8290107 4.67654629 4.88658371 8.125 5.5078125 C10 6 10 6 12 8 C12.1953125 10.6015625 12.1953125 10.6015625 12.125 13.625 C12.10695313 14.62789062 12.08890625 15.63078125 12.0703125 16.6640625 C12.04710938 17.43492188 12.02390625 18.20578125 12 19 C10.35 19 8.7 19 7 19 C7 16.36 7 13.72 7 11 C5.741875 10.773125 4.48375 10.54625 3.1875 10.3125 C-0.08651267 9.50703494 -0.80431558 9.24460552 -3 6.5 C-4 4 -4 4 -4 2 C-2.68 1.34 -1.36 0.68 0 0 Z " fill="#9FEAF9" transform="translate(83,96)"/>
<path d="M0 0 C4.62 0 9.24 0 14 0 C14 2.97 14 5.94 14 9 C9.38 9 4.76 9 0 9 C0 6.03 0 3.06 0 0 Z " fill="#F5FDFE" transform="translate(57,68)"/>
<path d="M0 0 C3.43734063 -0.08703823 6.87439837 -0.14040272 10.3125 -0.1875 C11.28896484 -0.21263672 12.26542969 -0.23777344 13.27148438 -0.26367188 C14.20927734 -0.27333984 15.14707031 -0.28300781 16.11328125 -0.29296875 C16.97735596 -0.3086792 17.84143066 -0.32438965 18.73168945 -0.34057617 C21.47681774 0.07159194 22.36151753 0.79626954 24 3 C24 3.66 24 4.32 24 5 C16.08 5 8.16 5 0 5 C0 3.35 0 1.7 0 0 Z " fill="#9DE9F8" transform="translate(13,86)"/>
<path d="M0 0 C4.55555556 0.55555556 4.55555556 0.55555556 6 2 C6.07244053 4.01964199 6.08377188 6.04167124 6.0625 8.0625 C6.05347656 9.16722656 6.04445313 10.27195312 6.03515625 11.41015625 C6.02355469 12.26480469 6.01195313 13.11945312 6 14 C3.36 14 0.72 14 -2 14 C-2.05389087 12.04196493 -2.09274217 10.08351091 -2.125 8.125 C-2.14820313 7.03445312 -2.17140625 5.94390625 -2.1953125 4.8203125 C-2 2 -2 2 0 0 Z " fill="#5A71E1" transform="translate(62,46)"/>
</svg>
