<?xml version="1.0" encoding="UTF-8"?>
<svg version="1.1" xmlns="http://www.w3.org/2000/svg" width="128" height="128">
<path d="M0 0 C0.78568359 -0.01611328 1.57136719 -0.03222656 2.38085938 -0.04882812 C8.177348 -0.05367874 12.10332943 1.16965235 16.875 4.625 C18.57950899 7.04719698 18.74019537 9.41175835 19.0625 12.3125 C19.68125 12.395 20.3 12.4775 20.9375 12.5625 C23.0625 13.3125 23.0625 13.3125 24.1328125 14.9140625 C25.7812325 19.16670904 25.97549799 23.69021487 26.5 28.1953125 C26.77291611 31.40311461 26.77291611 31.40311461 29.0625 33.3125 C29.63313611 36.36990822 29.58520025 39.2502157 29.0625 42.3125 C26.8125 45.375 26.8125 45.375 24.0625 47.3125 C22.7425 47.3125 21.4225 47.3125 20.0625 47.3125 C19.918125 48.26125 19.77375 49.21 19.625 50.1875 C19.0625 53.3125 19.0625 53.3125 18.0625 55.3125 C18.62990906 55.30361755 19.19731812 55.29473511 19.78192139 55.2855835 C25.68654305 55.19710206 31.59097646 55.13676269 37.49609375 55.09277344 C39.6999476 55.07265581 41.90374807 55.04535828 44.10742188 55.01074219 C47.27487356 54.96223167 50.44161968 54.93953264 53.609375 54.921875 C54.59492371 54.90122986 55.58047241 54.88058472 56.59588623 54.85931396 C60.47426927 54.85804122 63.23204607 54.866101 66.68041992 56.71972656 C68.84457468 60.77966712 68.65310998 64.65282686 68.62890625 69.1875 C68.63510483 70.14897949 68.64130341 71.11045898 68.64768982 72.10107422 C68.65478682 74.13182564 68.65161608 76.16263526 68.63891602 78.19335938 C68.62504743 81.30186878 68.65912601 84.40736975 68.69726562 87.515625 C68.6982168 89.48958407 68.69635809 91.46354691 68.69140625 93.4375 C68.70466446 94.36675293 68.71792267 95.29600586 68.73158264 96.25341797 C68.63928406 102.64349097 68.63928406 102.64349097 65.82714844 105.90527344 C62.96127322 107.36402518 61.38018082 107.78521434 58.19921875 107.703125 C57.31298828 107.69023438 56.42675781 107.67734375 55.51367188 107.6640625 C54.60166016 107.63054687 53.68964844 107.59703125 52.75 107.5625 C51.81865234 107.54445313 50.88730469 107.52640625 49.92773438 107.5078125 C47.63825803 107.46084888 45.35091816 107.39519475 43.0625 107.3125 C43.0625 109.2925 43.0625 111.2725 43.0625 113.3125 C43.81015625 113.26609375 44.5578125 113.2196875 45.328125 113.171875 C53.47244854 112.87339194 53.47244854 112.87339194 56.75 115.3125 C57.183125 115.9725 57.61625 116.6325 58.0625 117.3125 C57.4025 119.2925 56.7425 121.2725 56.0625 123.3125 C43.43254515 123.33562132 30.8025953 123.35341401 18.17262363 123.36431217 C12.30867836 123.36954146 6.44474751 123.37663994 0.58081055 123.38793945 C-5.07311712 123.3987667 -10.72703087 123.40477649 -16.38096809 123.40737724 C-18.5432361 123.40923179 -20.70550331 123.41285295 -22.86776543 123.41823006 C-25.88508657 123.42543833 -28.90234943 123.42649103 -31.91967773 123.42602539 C-32.8231041 123.42962067 -33.72653046 123.43321594 -34.65733337 123.43692017 C-40.82344784 123.42655216 -40.82344784 123.42655216 -41.9375 122.3125 C-42.04094107 119.63520161 -42.07846491 116.98992559 -42.0625 114.3125 C-42.05742432 113.10702515 -42.05742432 113.10702515 -42.05224609 111.87719727 C-41.80023257 81.89051833 -41.80023257 81.89051833 -37.6184082 76.66381836 C-35.70545992 75.12595797 -34.29527435 74.63782397 -31.91796875 74.06640625 C-31.14259766 73.86853516 -30.36722656 73.67066406 -29.56835938 73.46679688 C-27.95141588 73.07516308 -26.33423137 72.68452289 -24.71679688 72.29492188 C-19.73644966 71.02202916 -15.86976776 69.7002025 -11.9375 66.3125 C-11.9375 64.9925 -11.9375 63.6725 -11.9375 62.3125 C-13.05125 61.44625 -13.05125 61.44625 -14.1875 60.5625 C-17.68846077 57.69807755 -19.38667305 54.53178898 -20.9375 50.3125 C-20.9375 49.3225 -20.9375 48.3325 -20.9375 47.3125 C-21.865625 47.23 -22.79375 47.1475 -23.75 47.0625 C-26.9375 46.3125 -26.9375 46.3125 -28.8125 44.8125 C-30.48094725 41.10483944 -30.6882184 37.3089715 -29.9375 33.3125 C-29.44378906 32.86390625 -28.95007812 32.4153125 -28.44140625 31.953125 C-26.11229771 29.41227932 -26.56199833 26.99843871 -26.5 23.625 C-26.10709468 16.55998027 -25.36314621 11.50881424 -20.0703125 6.5703125 C-13.52033816 1.40448368 -8.22509427 -0.03357181 0 0 Z " fill="#0D0F10" transform="translate(54.9375,4.6875)"/>
<path d="M0 0 C1.55170898 -0.00945648 1.55170898 -0.00945648 3.13476562 -0.019104 C4.81602539 -0.01303131 4.81602539 -0.01303131 6.53125 -0.00683594 C7.67787109 -0.00874939 8.82449219 -0.01066284 10.00585938 -0.01263428 C12.43359598 -0.01399715 14.86133984 -0.01029361 17.2890625 -0.00195312 C21.01579073 0.00874469 24.74203686 -0.00184525 28.46875 -0.01464844 C30.82291774 -0.01332686 33.17708517 -0.01076451 35.53125 -0.00683594 C36.65208984 -0.0108844 37.77292969 -0.01493286 38.92773438 -0.019104 C39.96220703 -0.01279968 40.99667969 -0.00649536 42.0625 0 C43.43245117 0.00238678 43.43245117 0.00238678 44.83007812 0.00482178 C47.03125 0.25878906 47.03125 0.25878906 49.03125 2.25878906 C49.29194641 4.08032227 49.29194641 4.08032227 49.3059082 6.30957031 C49.32020622 7.56096802 49.32020622 7.56096802 49.33479309 8.83764648 C49.33388168 9.73974854 49.33297028 10.64185059 49.33203125 11.57128906 C49.33631638 12.49594971 49.3406015 13.42061035 49.34501648 14.37329102 C49.35076503 16.33023255 49.35125619 18.28719545 49.34692383 20.24414062 C49.34376263 23.24678777 49.36722062 26.24845126 49.39257812 29.25097656 C49.39485085 31.14941281 49.39555474 33.04785173 49.39453125 34.94628906 C49.403741 35.84839111 49.41295074 36.75049316 49.42243958 37.67993164 C49.41621078 38.51419678 49.40998199 39.34846191 49.40356445 40.20800781 C49.40419388 40.94365967 49.4048233 41.67931152 49.4054718 42.43725586 C49.03125 44.25878906 49.03125 44.25878906 46.03125 46.25878906 C43.9465332 46.48583984 43.9465332 46.48583984 41.58203125 46.45410156 C40.31069336 46.44443359 40.31069336 46.44443359 39.01367188 46.43457031 C37.69206055 46.40943359 37.69206055 46.40943359 36.34375 46.38378906 C35.45107422 46.37476563 34.55839844 46.36574219 33.63867188 46.35644531 C31.43592686 46.33288654 29.23372412 46.29999235 27.03125 46.25878906 C26.97066406 45.18757813 26.91007812 44.11636719 26.84765625 43.01269531 C26.76326463 41.61554515 26.67861594 40.2184105 26.59375 38.82128906 C26.55443359 38.11423828 26.51511719 37.4071875 26.47460938 36.67871094 C26.55500562 33.17188487 26.55500562 33.17188487 25.03125 30.25878906 C22.02793982 30.11685569 19.03907866 30.21642528 16.03125 30.25878906 C15.70125 35.53878906 15.37125 40.81878906 15.03125 46.25878906 C11.92685214 46.31267446 8.82338693 46.35240645 5.71875 46.38378906 C4.39713867 46.40892578 4.39713867 46.40892578 3.04882812 46.43457031 C2.20126953 46.44101563 1.35371094 46.44746094 0.48046875 46.45410156 C-0.29981689 46.4645752 -1.08010254 46.47504883 -1.8840332 46.48583984 C-3.96875 46.25878906 -3.96875 46.25878906 -6.96875 44.25878906 C-7.3429718 42.43725586 -7.3429718 42.43725586 -7.34106445 40.20800781 C-7.34729324 39.37374268 -7.35352203 38.53947754 -7.35993958 37.67993164 C-7.35072983 36.77782959 -7.34152008 35.87572754 -7.33203125 34.94628906 C-7.33277901 33.5592981 -7.33277901 33.5592981 -7.33354187 32.14428711 C-7.33119907 30.1873154 -7.32145846 28.23034082 -7.30493164 26.2734375 C-7.28134503 23.27088596 -7.2843683 20.26922212 -7.29101562 17.26660156 C-7.28543892 15.36815875 -7.27832909 13.46971968 -7.26953125 11.57128906 C-7.27089836 10.21813599 -7.27089836 10.21813599 -7.27229309 8.83764648 C-7.26276108 8.00338135 -7.25322906 7.16911621 -7.2434082 6.30957031 C-7.23880081 5.57391846 -7.23419342 4.8382666 -7.22944641 4.08032227 C-6.61025235 -0.2460992 -3.62670421 0.00631858 0 0 Z " fill="#518ED9" transform="translate(70.96875,62.7412109375)"/>
<path d="M0 0 C2.53515625 2.22265625 2.53515625 2.22265625 5.0625 5.0625 C7.47110873 7.88947009 7.47110873 7.88947009 10 10 C12.78092421 9.88145261 13.68023101 9.28550803 15.75 7.4375 C16.36875 6.7259375 16.36875 6.7259375 17 6 C19.91666781 7.30747178 22.11203322 8.39280778 24 11 C24.37791954 14.43034661 24.48444761 17.75136555 24.52734375 21.1953125 C24.56633912 25.18521057 24.56633912 25.18521057 26.2199707 28.69848633 C28.53447584 30.3907956 30.03480612 30.42529716 32.88671875 30.51171875 C33.82451172 30.54716797 34.76230469 30.58261719 35.72851562 30.61914062 C36.70498047 30.64169922 37.68144531 30.66425781 38.6875 30.6875 C39.67556641 30.72166016 40.66363281 30.75582031 41.68164062 30.79101562 C44.12098053 30.87350538 46.55996063 30.94265068 49 31 C49 33.64 49 36.28 49 39 C44.71 39.33 40.42 39.66 36 40 C35.67 41.98 35.34 43.96 35 46 C21.14 46 7.28 46 -7 46 C-7 35.44 -7 24.88 -7 14 C-7.99 14 -8.98 14 -10 14 C-10 17.3 -10 20.6 -10 24 C-13.3 24 -16.6 24 -20 24 C-20.07372096 19.3555797 -20.06775054 14.75645154 -19.6875 10.125 C-19.62949219 9.40570313 -19.57148438 8.68640625 -19.51171875 7.9453125 C-18.85080995 5.43285002 -18.07483324 4.55951518 -16 3 C-13.4765625 2.05078125 -13.4765625 2.05078125 -10.625 1.3125 C-9.68914063 1.06113281 -8.75328125 0.80976562 -7.7890625 0.55078125 C-2.74942985 -0.44444032 -2.74942985 -0.44444032 0 0 Z " fill="#6DD0F2" transform="translate(37,80)"/>
<path d="M0 0 C3.12743447 0.47385371 5.47754641 1.2210863 8.375 2.5625 C13.06569679 4.4226039 16.53917215 4.95058735 21.3359375 3.09765625 C22.89940279 2.38676022 24.45035022 1.64737611 25.984375 0.875 C28 0 28 0 31 0 C34.16526414 4.74789621 33.32821514 9.79298137 33.3125 15.375 C33.32861328 16.51195313 33.34472656 17.64890625 33.36132812 18.8203125 C33.36197266 19.91859375 33.36261719 21.016875 33.36328125 22.1484375 C33.36626221 23.15052246 33.36924316 24.15260742 33.37231445 25.18505859 C32.93749164 28.47260422 31.96728683 30.34970506 30 33 C28.34795544 33.70211894 26.68076231 34.36971413 25 35 C24.55140625 35.66 24.1028125 36.32 23.640625 37 C22 39 22 39 19.765625 39.71484375 C14.02988211 40.22251043 10.06830887 40.1189593 5 37 C1.14969817 33.30649779 -1.82315208 30.03881206 -2.14526367 24.50390625 C-2.16971846 21.33582803 -2.18565374 18.1681799 -2.1875 15 C-2.19974609 13.89398438 -2.21199219 12.78796875 -2.22460938 11.6484375 C-2.22654297 10.58882812 -2.22847656 9.52921875 -2.23046875 8.4375 C-2.23457764 7.46683594 -2.23868652 6.49617188 -2.24291992 5.49609375 C-2 3 -2 3 0 0 Z " fill="#F5CDB1" transform="translate(39,27)"/>
<path d="M0 0 C0.70523804 0.00404846 1.41047607 0.00809692 2.13708496 0.01226807 C2.8619812 0.01035461 3.58687744 0.00844116 4.33374023 0.00646973 C5.86698758 0.0051082 7.40024646 0.00880243 8.93347168 0.01715088 C11.28415755 0.02785129 13.63407919 0.01725498 15.98474121 0.00445557 C17.47302415 0.00577717 18.96130662 0.00833957 20.44958496 0.01226807 C21.154823 0.0082196 21.86006104 0.00417114 22.58666992 0 C27.56341011 0.04796821 27.56341011 0.04796821 29.79333496 2.27789307 C30.05212402 4.58453369 30.05212402 4.58453369 30.05895996 7.43414307 C30.06282715 8.96748291 30.06282715 8.96748291 30.06677246 10.53179932 C30.05903809 11.60301025 30.05130371 12.67422119 30.04333496 13.77789307 C30.05493652 15.38470947 30.05493652 15.38470947 30.06677246 17.02398682 C30.06419434 18.04621338 30.06161621 19.06843994 30.05895996 20.12164307 C30.0567041 21.06201416 30.05444824 22.00238525 30.05212402 22.97125244 C29.79333496 25.27789307 29.79333496 25.27789307 27.79333496 27.27789307 C25.30766953 27.47737863 22.93582746 27.55779049 20.44958496 27.54351807 C19.72468872 27.54543152 18.99979248 27.54734497 18.25292969 27.54931641 C16.71968234 27.55067794 15.18642346 27.54698371 13.65319824 27.53863525 C11.30251237 27.52793484 8.95259073 27.53853115 6.60192871 27.55133057 C5.11364577 27.55000897 3.6253633 27.54744656 2.13708496 27.54351807 C1.43184692 27.54756653 0.72660889 27.55161499 0 27.55578613 C-4.97674018 27.50781792 -4.97674018 27.50781792 -7.20666504 25.27789307 C-7.4654541 22.97125244 -7.4654541 22.97125244 -7.47229004 20.12164307 C-7.47486816 19.0994165 -7.47744629 18.07718994 -7.48010254 17.02398682 C-7.46850098 15.41717041 -7.46850098 15.41717041 -7.45666504 13.77789307 C-7.46439941 12.70668213 -7.47213379 11.63547119 -7.48010254 10.53179932 C-7.47752441 9.50957275 -7.47494629 8.48734619 -7.47229004 7.43414307 C-7.47003418 6.49377197 -7.46777832 5.55340088 -7.4654541 4.58453369 C-6.9333963 -0.15780794 -4.12445017 0.03975343 0 0 Z " fill="#E95D74" transform="translate(95.2066650390625,26.72210693359375)"/>
<path d="M0 0 C0.7425 -0.01611328 1.485 -0.03222656 2.25 -0.04882812 C7.0963606 -0.05310936 10.44342496 0.61532094 14.625 3.3125 C16.625 6.3125 16.625 6.3125 16.9375 8.8125 C17.164375 9.6375 17.39125 10.4625 17.625 11.3125 C18.8934375 11.869375 18.8934375 11.869375 20.1875 12.4375 C20.991875 13.05625 21.79625 13.675 22.625 14.3125 C23.08635796 18.00885603 22.90822153 21.60544491 22.625 25.3125 C21.965 25.3125 21.305 25.3125 20.625 25.3125 C17.625 19.5625 17.625 19.5625 17.625 17.3125 C13.61496915 16.91149691 11.14514014 17.39832885 7.6875 19.3125 C3.78470216 21.38609278 1.10394591 21.95234942 -3.375 21.3125 C-4.74956517 20.66674911 -6.10376423 19.97634187 -7.4375 19.25 C-10.2150232 17.75358246 -11.42673013 17.30957188 -14.6875 17.125 C-17.72815697 18.4685461 -17.9771316 18.96220348 -19.25 21.875 C-19.806875 23.5765625 -19.806875 23.5765625 -20.375 25.3125 C-21.035 25.3125 -21.695 25.3125 -22.375 25.3125 C-22.99734043 14.62898936 -22.99734043 14.62898936 -20.75 9.875 C-14.35028051 2.9700395 -9.5565059 -0.04105028 0 0 Z " fill="#595B5E" transform="translate(54.375,7.6875)"/>
<path d="M0 0 C0.70523804 0.00404846 1.41047607 0.00809692 2.13708496 0.01226807 C2.8619812 0.01035461 3.58687744 0.00844116 4.33374023 0.00646973 C5.86698758 0.0051082 7.40024646 0.00880243 8.93347168 0.01715088 C11.28415755 0.02785129 13.63407919 0.01725498 15.98474121 0.00445557 C17.47302415 0.00577717 18.96130662 0.00833957 20.44958496 0.01226807 C21.154823 0.0082196 21.86006104 0.00417114 22.58666992 0 C27.56341011 0.04796821 27.56341011 0.04796821 29.79333496 2.27789307 C30.05212402 4.58453369 30.05212402 4.58453369 30.05895996 7.43414307 C30.06282715 8.96748291 30.06282715 8.96748291 30.06677246 10.53179932 C30.05903809 11.60301025 30.05130371 12.67422119 30.04333496 13.77789307 C30.05493652 15.38470947 30.05493652 15.38470947 30.06677246 17.02398682 C30.06419434 18.04621338 30.06161621 19.06843994 30.05895996 20.12164307 C30.0567041 21.06201416 30.05444824 22.00238525 30.05212402 22.97125244 C29.79333496 25.27789307 29.79333496 25.27789307 27.79333496 27.27789307 C25.30766953 27.47737863 22.93582746 27.55779049 20.44958496 27.54351807 C19.72468872 27.54543152 18.99979248 27.54734497 18.25292969 27.54931641 C16.71968234 27.55067794 15.18642346 27.54698371 13.65319824 27.53863525 C11.30251237 27.52793484 8.95259073 27.53853115 6.60192871 27.55133057 C5.11364577 27.55000897 3.6253633 27.54744656 2.13708496 27.54351807 C1.43184692 27.54756653 0.72660889 27.55161499 0 27.55578613 C-4.97674018 27.50781792 -4.97674018 27.50781792 -7.20666504 25.27789307 C-7.4654541 22.97125244 -7.4654541 22.97125244 -7.47229004 20.12164307 C-7.47486816 19.0994165 -7.47744629 18.07718994 -7.48010254 17.02398682 C-7.46850098 15.41717041 -7.46850098 15.41717041 -7.45666504 13.77789307 C-7.46439941 12.70668213 -7.47213379 11.63547119 -7.48010254 10.53179932 C-7.47752441 9.50957275 -7.47494629 8.48734619 -7.47229004 7.43414307 C-7.47003418 6.49377197 -7.46777832 5.55340088 -7.4654541 4.58453369 C-6.9333963 -0.15780794 -4.12445017 0.03975343 0 0 Z M-5.20666504 4.27789307 C-5.30526635 5.68138042 -5.33745441 7.08969784 -5.33947754 8.49664307 C-5.3407666 9.34613525 -5.34205566 10.19562744 -5.34338379 11.07086182 C-5.3395166 11.96418213 -5.33564941 12.85750244 -5.33166504 13.77789307 C-5.33553223 14.67121338 -5.33939941 15.56453369 -5.34338379 16.48492432 C-5.34209473 17.3344165 -5.34080566 18.18390869 -5.33947754 19.05914307 C-5.33834961 19.8435376 -5.33722168 20.62793213 -5.33605957 21.43609619 C-5.40773946 23.29542294 -5.40773946 23.29542294 -4.20666504 24.27789307 C-1.92718712 24.37810236 0.35540631 24.4087061 2.63708496 24.41070557 C3.32137573 24.41166229 4.0056665 24.41261902 4.71069336 24.41360474 C6.15995373 24.41428636 7.60921714 24.41243329 9.05847168 24.40826416 C11.28396424 24.40291559 13.50925497 24.40820967 15.73474121 24.41461182 C17.13968958 24.41395103 18.54463781 24.41266986 19.94958496 24.41070557 C21.23671387 24.40957764 22.52384277 24.40844971 23.84997559 24.4072876 C26.68159653 24.61475449 26.68159653 24.61475449 27.79333496 23.27789307 C27.89193627 21.87440571 27.92412433 20.46608829 27.92614746 19.05914307 C27.92743652 18.20965088 27.92872559 17.36015869 27.93005371 16.48492432 C27.92425293 15.14494385 27.92425293 15.14494385 27.91833496 13.77789307 C27.92220215 12.88457275 27.92606934 11.99125244 27.93005371 11.07086182 C27.92876465 10.22136963 27.92747559 9.37187744 27.92614746 8.49664307 C27.92445557 7.32005127 27.92445557 7.32005127 27.92272949 6.11968994 C27.99440938 4.26036319 27.99440938 4.26036319 26.79333496 3.27789307 C24.51385705 3.17768377 22.23126361 3.14708003 19.94958496 3.14508057 C19.26529419 3.14412384 18.58100342 3.14316711 17.87597656 3.1421814 C16.42671619 3.14149977 14.97745278 3.14335284 13.52819824 3.14752197 C11.30270568 3.15287055 9.07741495 3.14757647 6.85192871 3.14117432 C5.44698035 3.1418351 4.04203211 3.14311627 2.63708496 3.14508057 C1.34995605 3.1462085 0.06282715 3.14733643 -1.26330566 3.14849854 C-4.09492661 2.94103164 -4.09492661 2.94103164 -5.20666504 4.27789307 Z " fill="#0D0506" transform="translate(95.2066650390625,26.72210693359375)"/>
<path d="M0 0 C3.3 0 6.6 0 10 0 C10 5.94 10 11.88 10 18 C6.37 18 2.74 18 -1 18 C-1.02707139 15.75006641 -1.04642829 13.50003905 -1.0625 11.25 C-1.07410156 9.99703125 -1.08570313 8.7440625 -1.09765625 7.453125 C-1 4 -1 4 0 0 Z " fill="#F6CDB1" transform="translate(17,107)"/>
<path d="M0 0 C4.62 0 9.24 0 14 0 C14.61538462 8.24615385 14.61538462 8.24615385 11.5 12.0625 C10.675 12.701875 9.85 13.34125 9 14 C6.13387186 12.89764302 3.95936811 11.27296881 1.6875 9.25 C1.15511719 8.78078125 0.62273438 8.3115625 0.07421875 7.828125 C-1 6 -1 6 0 0 Z " fill="#F3CBAF" transform="translate(47,69)"/>
<path d="M0 0 C1.98 0 3.96 0 6 0 C6 7.92 6 15.84 6 24 C4.02 24 2.04 24 0 24 C0 16.08 0 8.16 0 0 Z " fill="#C5D5E3" transform="translate(89,95)"/>
<path d="M0 0 C11.22 0 22.44 0 34 0 C34 0.99 34 1.98 34 3 C22.78 3 11.56 3 0 3 C0 2.01 0 1.02 0 0 Z " fill="#EDF4FC" transform="translate(75,122)"/>
<path d="M0 0 C3.85829052 1.33044501 6.42259618 3.90711541 9 7 C8.8125 9.3125 8.8125 9.3125 8 11 C4 11 4 11 2.078125 9.46875 C1.47484375 8.8190625 0.8715625 8.169375 0.25 7.5 C-0.36359375 6.8503125 -0.9771875 6.200625 -1.609375 5.53125 C-2.06828125 5.0259375 -2.5271875 4.520625 -3 4 C-2.67 3.01 -2.34 2.02 -2 1 C-1.34 0.67 -0.68 0.34 0 0 Z " fill="#8ED3E5" transform="translate(42,76)"/>
<path d="M0 0 C5 1 5 1 6 2 C6.46740859 8.3100159 6.46740859 8.3100159 4.6875 10.9375 C3 12 3 12 0 12 C0 8.04 0 4.08 0 0 Z " fill="#F2CAAF" transform="translate(75,37)"/>
<path d="M0 0 C1.32 0 2.64 0 4 0 C4 3.96 4 7.92 4 12 C0 11 0 11 -2 9 C-2.25 5.5 -2.25 5.5 -2 2 C-1.34 1.34 -0.68 0.68 0 0 Z " fill="#F2CAAF" transform="translate(30,37)"/>
<path d="M0 0 C0.99 0 1.98 0 3 0 C3 0.99 3 1.98 3 3 C3.99 3 4.98 3 6 3 C5.67 4.32 5.34 5.64 5 7 C4.34 7 3.68 7 3 7 C3 7.66 3 8.32 3 9 C1.68 9 0.36 9 -1 9 C-1 8.34 -1 7.68 -1 7 C-1.66 7 -2.32 7 -3 7 C-3 5.68 -3 4.36 -3 3 C-2.34 3 -1.68 3 -1 3 C-0.67 2.01 -0.34 1.02 0 0 Z " fill="#FC657D" transform="translate(6,37)"/>
<path d="M0 0 C1.65 1.32 3.3 2.64 5 4 C4.67 4.99 4.34 5.98 4 7 C3.34 7 2.68 7 2 7 C1.67 7.99 1.34 8.98 1 10 C0.34 9.67 -0.32 9.34 -1 9 C-1 8.34 -1 7.68 -1 7 C-2.32 6.34 -3.64 5.68 -5 5 C-3.35 3.35 -1.7 1.7 0 0 Z " fill="#F6C64B" transform="translate(105,10)"/>
<path d="M0 0 C0.99 0 1.98 0 3 0 C2.54705135 1.75140143 2.08741252 3.50107344 1.625 5.25 C1.36976562 6.22453125 1.11453125 7.1990625 0.8515625 8.203125 C0.10401491 10.65837303 -0.77123817 12.75617405 -2 15 C-2.66 15 -3.32 15 -4 15 C-2.9318153 9.88634986 -1.76892524 4.92772031 0 0 Z " fill="#240E12" transform="translate(107,33)"/>
<path d="M0 0 C-0.309375 0.5775 -0.61875 1.155 -0.9375 1.75 C-2.36547957 4.7646204 -2.36547957 4.7646204 -3 8 C-1.60411246 9.64594139 -1.60411246 9.64594139 0 11 C0 11.66 0 12.32 0 13 C-3.7952131 11.50902342 -5.61042731 9.24299151 -8 6 C-7.0479279 4.99403703 -6.08812654 3.99538437 -5.125 3 C-4.59132813 2.443125 -4.05765625 1.88625 -3.5078125 1.3125 C-2 0 -2 0 0 0 Z " fill="#0B0405" transform="translate(101,34)"/>
<path d="M0 0 C3.7952131 1.49097658 5.61042731 3.75700849 8 7 C7.0479279 8.00596297 6.08812654 9.00461563 5.125 10 C4.59132813 10.556875 4.05765625 11.11375 3.5078125 11.6875 C2 13 2 13 0 13 C0.309375 12.4225 0.61875 11.845 0.9375 11.25 C2.36547957 8.2353796 2.36547957 8.2353796 3 5 C1.60411246 3.35405861 1.60411246 3.35405861 0 2 C0 1.34 0 0.68 0 0 Z " fill="#0B0405" transform="translate(112,34)"/>
<path d="M0 0 C2.27564709 0.18132646 4.51398288 0.51991937 6.7734375 0.84375 C9.17283708 1.15453371 9.17283708 1.15453371 12 0 C12 0.99 12 1.98 12 3 C9.20046988 4.90368048 7.84226401 4.99184124 4.375 4.8125 C1 4 1 4 -1 1 C-0.67 0.67 -0.34 0.34 0 0 Z " fill="#261F1B" transform="translate(49,53)"/>
<path d="M0 0 C0.66 1.65 1.32 3.3 2 5 C1.34 5 0.68 5 0 5 C0 5.66 0 6.32 0 7 C-3.875 5.25 -3.875 5.25 -5 3 C-2.25 0 -2.25 0 0 0 Z " fill="#6FD8F9" transform="translate(23,11)"/>
<path d="M0 0 C1.98 0.495 1.98 0.495 4 1 C3.67 2.32 3.34 3.64 3 5 C1.68 4.67 0.36 4.34 -1 4 C-0.67 2.68 -0.34 1.36 0 0 Z " fill="#1A1512" transform="translate(62,41)"/>
<path d="M0 0 C1.98 0.495 1.98 0.495 4 1 C3.67 2.32 3.34 3.64 3 5 C1.68 4.67 0.36 4.34 -1 4 C-0.67 2.68 -0.34 1.36 0 0 Z " fill="#1F1916" transform="translate(45,41)"/>
<path d="M0 0 C1.32 0 2.64 0 4 0 C3.67 1.32 3.34 2.64 3 4 C2.01 4 1.02 4 0 4 C0 2.68 0 1.36 0 0 Z " fill="#F5CB47" transform="translate(10,68)"/>
<path d="M0 0 C1.32 0 2.64 0 4 0 C3.67 1.32 3.34 2.64 3 4 C2.01 4 1.02 4 0 4 C0 2.68 0 1.36 0 0 Z " fill="#87D047" transform="translate(82,0)"/>
</svg>
